%TF.GenerationSoftware,KiCad,Pcbnew,9.0.0*%
%TF.CreationDate,2025-05-01T22:13:03+08:00*%
%TF.ProjectId,kbd5x5,6b626435-7835-42e6-9b69-6361645f7063,rev?*%
%TF.SameCoordinates,Original*%
%TF.FileFunction,Soldermask,Top*%
%TF.FilePolarity,Negative*%
%FSLAX46Y46*%
G04 Gerber Fmt 4.6, Leading zero omitted, Abs format (unit mm)*
G04 Created by KiCad (PCBNEW 9.0.0) date 2025-05-01 22:13:03*
%MOMM*%
%LPD*%
G01*
G04 APERTURE LIST*
G04 Aperture macros list*
%AMRoundRect*
0 Rectangle with rounded corners*
0 $1 Rounding radius*
0 $2 $3 $4 $5 $6 $7 $8 $9 X,Y pos of 4 corners*
0 Add a 4 corners polygon primitive as box body*
4,1,4,$2,$3,$4,$5,$6,$7,$8,$9,$2,$3,0*
0 Add four circle primitives for the rounded corners*
1,1,$1+$1,$2,$3*
1,1,$1+$1,$4,$5*
1,1,$1+$1,$6,$7*
1,1,$1+$1,$8,$9*
0 Add four rect primitives between the rounded corners*
20,1,$1+$1,$2,$3,$4,$5,0*
20,1,$1+$1,$4,$5,$6,$7,0*
20,1,$1+$1,$6,$7,$8,$9,0*
20,1,$1+$1,$8,$9,$2,$3,0*%
G04 Aperture macros list end*
%ADD10C,4.000000*%
%ADD11C,1.700000*%
%ADD12RoundRect,0.450000X-1.050000X-1.050000X1.050000X-1.050000X1.050000X1.050000X-1.050000X1.050000X0*%
%ADD13C,2.200000*%
%ADD14RoundRect,0.090000X-0.660000X-0.360000X0.660000X-0.360000X0.660000X0.360000X-0.660000X0.360000X0*%
G04 APERTURE END LIST*
D10*
%TO.C,SW1*%
X40000000Y-40000000D03*
D11*
X31270000Y-41110000D03*
D12*
X32190000Y-37460000D03*
D13*
X36190000Y-37460000D03*
D11*
X48730000Y-41110000D03*
D13*
X42540000Y-34920000D03*
D12*
X46540000Y-34920000D03*
D11*
X47460000Y-31270000D03*
X47460000Y-48730000D03*
X31270000Y-43650000D03*
X48730000Y-43650000D03*
X35080000Y-31270000D03*
X35080000Y-48730000D03*
X44920000Y-31270000D03*
X44920000Y-48730000D03*
X32540000Y-31270000D03*
X32540000Y-48730000D03*
%TD*%
D10*
%TO.C,SW22*%
X120000000Y-60000000D03*
D11*
X111270000Y-61110000D03*
D12*
X112190000Y-57460000D03*
D13*
X116190000Y-57460000D03*
D11*
X128730000Y-61110000D03*
D13*
X122540000Y-54920000D03*
D12*
X126540000Y-54920000D03*
D11*
X127460000Y-51270000D03*
X127460000Y-68730000D03*
X111270000Y-63650000D03*
X128730000Y-63650000D03*
X115080000Y-51270000D03*
X115080000Y-68730000D03*
X124920000Y-51270000D03*
X124920000Y-68730000D03*
X112540000Y-51270000D03*
X112540000Y-68730000D03*
%TD*%
D10*
%TO.C,SW17*%
X100000000Y-60000000D03*
D11*
X91270000Y-61110000D03*
D12*
X92190000Y-57460000D03*
D13*
X96190000Y-57460000D03*
D11*
X108730000Y-61110000D03*
D13*
X102540000Y-54920000D03*
D12*
X106540000Y-54920000D03*
D11*
X107460000Y-51270000D03*
X107460000Y-68730000D03*
X91270000Y-63650000D03*
X108730000Y-63650000D03*
X95080000Y-51270000D03*
X95080000Y-68730000D03*
X104920000Y-51270000D03*
X104920000Y-68730000D03*
X92540000Y-51270000D03*
X92540000Y-68730000D03*
%TD*%
D10*
%TO.C,SW18*%
X100000000Y-80000000D03*
D11*
X91270000Y-81110000D03*
D12*
X92190000Y-77460000D03*
D13*
X96190000Y-77460000D03*
D11*
X108730000Y-81110000D03*
D13*
X102540000Y-74920000D03*
D12*
X106540000Y-74920000D03*
D11*
X107460000Y-71270000D03*
X107460000Y-88730000D03*
X91270000Y-83650000D03*
X108730000Y-83650000D03*
X95080000Y-71270000D03*
X95080000Y-88730000D03*
X104920000Y-71270000D03*
X104920000Y-88730000D03*
X92540000Y-71270000D03*
X92540000Y-88730000D03*
%TD*%
D14*
%TO.C,D10*%
X57550000Y-124850000D03*
X57550000Y-128150000D03*
X62450000Y-128150000D03*
X62450000Y-124850000D03*
%TD*%
%TO.C,D25*%
X117550000Y-124850000D03*
X117550000Y-128150000D03*
X122450000Y-128150000D03*
X122450000Y-124850000D03*
%TD*%
%TO.C,D3*%
X37550000Y-84850000D03*
X37550000Y-88150000D03*
X42450000Y-88150000D03*
X42450000Y-84850000D03*
%TD*%
D10*
%TO.C,SW16*%
X100000000Y-40000000D03*
D11*
X91270000Y-41110000D03*
D12*
X92190000Y-37460000D03*
D13*
X96190000Y-37460000D03*
D11*
X108730000Y-41110000D03*
D13*
X102540000Y-34920000D03*
D12*
X106540000Y-34920000D03*
D11*
X107460000Y-31270000D03*
X107460000Y-48730000D03*
X91270000Y-43650000D03*
X108730000Y-43650000D03*
X95080000Y-31270000D03*
X95080000Y-48730000D03*
X104920000Y-31270000D03*
X104920000Y-48730000D03*
X92540000Y-31270000D03*
X92540000Y-48730000D03*
%TD*%
D14*
%TO.C,D20*%
X97550000Y-124850000D03*
X97550000Y-128150000D03*
X102450000Y-128150000D03*
X102450000Y-124850000D03*
%TD*%
%TO.C,D11*%
X77550000Y-44850000D03*
X77550000Y-48150000D03*
X82450000Y-48150000D03*
X82450000Y-44850000D03*
%TD*%
D10*
%TO.C,SW25*%
X120000000Y-120000000D03*
D11*
X111270000Y-121110000D03*
D12*
X112190000Y-117460000D03*
D13*
X116190000Y-117460000D03*
D11*
X128730000Y-121110000D03*
D13*
X122540000Y-114920000D03*
D12*
X126540000Y-114920000D03*
D11*
X127460000Y-111270000D03*
X127460000Y-128730000D03*
X111270000Y-123650000D03*
X128730000Y-123650000D03*
X115080000Y-111270000D03*
X115080000Y-128730000D03*
X124920000Y-111270000D03*
X124920000Y-128730000D03*
X112540000Y-111270000D03*
X112540000Y-128730000D03*
%TD*%
D14*
%TO.C,D6*%
X57550000Y-44850000D03*
X57550000Y-48150000D03*
X62450000Y-48150000D03*
X62450000Y-44850000D03*
%TD*%
%TO.C,D1*%
X37550000Y-44850000D03*
X37550000Y-48150000D03*
X42450000Y-48150000D03*
X42450000Y-44850000D03*
%TD*%
%TO.C,D18*%
X97550000Y-84850000D03*
X97550000Y-88150000D03*
X102450000Y-88150000D03*
X102450000Y-84850000D03*
%TD*%
%TO.C,D19*%
X97550000Y-104850000D03*
X97550000Y-108150000D03*
X102450000Y-108150000D03*
X102450000Y-104850000D03*
%TD*%
%TO.C,D4*%
X37550000Y-104850000D03*
X37550000Y-108150000D03*
X42450000Y-108150000D03*
X42450000Y-104850000D03*
%TD*%
%TO.C,D8*%
X57550000Y-84850000D03*
X57550000Y-88150000D03*
X62450000Y-88150000D03*
X62450000Y-84850000D03*
%TD*%
%TO.C,D7*%
X57550000Y-64850000D03*
X57550000Y-68150000D03*
X62450000Y-68150000D03*
X62450000Y-64850000D03*
%TD*%
%TO.C,D5*%
X37550000Y-124850000D03*
X37550000Y-128150000D03*
X42450000Y-128150000D03*
X42450000Y-124850000D03*
%TD*%
%TO.C,D14*%
X77550000Y-104850000D03*
X77550000Y-108150000D03*
X82450000Y-108150000D03*
X82450000Y-104850000D03*
%TD*%
D10*
%TO.C,SW4*%
X40000000Y-100000000D03*
D11*
X31270000Y-101110000D03*
D12*
X32190000Y-97460000D03*
D13*
X36190000Y-97460000D03*
D11*
X48730000Y-101110000D03*
D13*
X42540000Y-94920000D03*
D12*
X46540000Y-94920000D03*
D11*
X47460000Y-91270000D03*
X47460000Y-108730000D03*
X31270000Y-103650000D03*
X48730000Y-103650000D03*
X35080000Y-91270000D03*
X35080000Y-108730000D03*
X44920000Y-91270000D03*
X44920000Y-108730000D03*
X32540000Y-91270000D03*
X32540000Y-108730000D03*
%TD*%
D10*
%TO.C,SW23*%
X120000000Y-80000000D03*
D11*
X111270000Y-81110000D03*
D12*
X112190000Y-77460000D03*
D13*
X116190000Y-77460000D03*
D11*
X128730000Y-81110000D03*
D13*
X122540000Y-74920000D03*
D12*
X126540000Y-74920000D03*
D11*
X127460000Y-71270000D03*
X127460000Y-88730000D03*
X111270000Y-83650000D03*
X128730000Y-83650000D03*
X115080000Y-71270000D03*
X115080000Y-88730000D03*
X124920000Y-71270000D03*
X124920000Y-88730000D03*
X112540000Y-71270000D03*
X112540000Y-88730000D03*
%TD*%
D10*
%TO.C,SW12*%
X80000000Y-60000000D03*
D11*
X71270000Y-61110000D03*
D12*
X72190000Y-57460000D03*
D13*
X76190000Y-57460000D03*
D11*
X88730000Y-61110000D03*
D13*
X82540000Y-54920000D03*
D12*
X86540000Y-54920000D03*
D11*
X87460000Y-51270000D03*
X87460000Y-68730000D03*
X71270000Y-63650000D03*
X88730000Y-63650000D03*
X75080000Y-51270000D03*
X75080000Y-68730000D03*
X84920000Y-51270000D03*
X84920000Y-68730000D03*
X72540000Y-51270000D03*
X72540000Y-68730000D03*
%TD*%
D14*
%TO.C,D9*%
X57550000Y-104850000D03*
X57550000Y-108150000D03*
X62450000Y-108150000D03*
X62450000Y-104850000D03*
%TD*%
%TO.C,D15*%
X77550000Y-124850000D03*
X77550000Y-128150000D03*
X82450000Y-128150000D03*
X82450000Y-124850000D03*
%TD*%
%TO.C,D12*%
X77550000Y-64850000D03*
X77550000Y-68150000D03*
X82450000Y-68150000D03*
X82450000Y-64850000D03*
%TD*%
%TO.C,D13*%
X77550000Y-84850000D03*
X77550000Y-88150000D03*
X82450000Y-88150000D03*
X82450000Y-84850000D03*
%TD*%
%TO.C,D17*%
X97550000Y-64850000D03*
X97550000Y-68150000D03*
X102450000Y-68150000D03*
X102450000Y-64850000D03*
%TD*%
%TO.C,D21*%
X117550000Y-44850000D03*
X117550000Y-48150000D03*
X122450000Y-48150000D03*
X122450000Y-44850000D03*
%TD*%
D10*
%TO.C,SW5*%
X40000000Y-120000000D03*
D11*
X31270000Y-121110000D03*
D12*
X32190000Y-117460000D03*
D13*
X36190000Y-117460000D03*
D11*
X48730000Y-121110000D03*
D13*
X42540000Y-114920000D03*
D12*
X46540000Y-114920000D03*
D11*
X47460000Y-111270000D03*
X47460000Y-128730000D03*
X31270000Y-123650000D03*
X48730000Y-123650000D03*
X35080000Y-111270000D03*
X35080000Y-128730000D03*
X44920000Y-111270000D03*
X44920000Y-128730000D03*
X32540000Y-111270000D03*
X32540000Y-128730000D03*
%TD*%
D10*
%TO.C,SW10*%
X60000000Y-120000000D03*
D11*
X51270000Y-121110000D03*
D12*
X52190000Y-117460000D03*
D13*
X56190000Y-117460000D03*
D11*
X68730000Y-121110000D03*
D13*
X62540000Y-114920000D03*
D12*
X66540000Y-114920000D03*
D11*
X67460000Y-111270000D03*
X67460000Y-128730000D03*
X51270000Y-123650000D03*
X68730000Y-123650000D03*
X55080000Y-111270000D03*
X55080000Y-128730000D03*
X64920000Y-111270000D03*
X64920000Y-128730000D03*
X52540000Y-111270000D03*
X52540000Y-128730000D03*
%TD*%
D10*
%TO.C,SW15*%
X80000000Y-120000000D03*
D11*
X71270000Y-121110000D03*
D12*
X72190000Y-117460000D03*
D13*
X76190000Y-117460000D03*
D11*
X88730000Y-121110000D03*
D13*
X82540000Y-114920000D03*
D12*
X86540000Y-114920000D03*
D11*
X87460000Y-111270000D03*
X87460000Y-128730000D03*
X71270000Y-123650000D03*
X88730000Y-123650000D03*
X75080000Y-111270000D03*
X75080000Y-128730000D03*
X84920000Y-111270000D03*
X84920000Y-128730000D03*
X72540000Y-111270000D03*
X72540000Y-128730000D03*
%TD*%
D14*
%TO.C,D24*%
X117550000Y-104850000D03*
X117550000Y-108150000D03*
X122450000Y-108150000D03*
X122450000Y-104850000D03*
%TD*%
%TO.C,D22*%
X117550000Y-64850000D03*
X117550000Y-68150000D03*
X122450000Y-68150000D03*
X122450000Y-64850000D03*
%TD*%
D10*
%TO.C,SW7*%
X60000000Y-60000000D03*
D11*
X51270000Y-61110000D03*
D12*
X52190000Y-57460000D03*
D13*
X56190000Y-57460000D03*
D11*
X68730000Y-61110000D03*
D13*
X62540000Y-54920000D03*
D12*
X66540000Y-54920000D03*
D11*
X67460000Y-51270000D03*
X67460000Y-68730000D03*
X51270000Y-63650000D03*
X68730000Y-63650000D03*
X55080000Y-51270000D03*
X55080000Y-68730000D03*
X64920000Y-51270000D03*
X64920000Y-68730000D03*
X52540000Y-51270000D03*
X52540000Y-68730000D03*
%TD*%
D10*
%TO.C,SW3*%
X40000000Y-80000000D03*
D11*
X31270000Y-81110000D03*
D12*
X32190000Y-77460000D03*
D13*
X36190000Y-77460000D03*
D11*
X48730000Y-81110000D03*
D13*
X42540000Y-74920000D03*
D12*
X46540000Y-74920000D03*
D11*
X47460000Y-71270000D03*
X47460000Y-88730000D03*
X31270000Y-83650000D03*
X48730000Y-83650000D03*
X35080000Y-71270000D03*
X35080000Y-88730000D03*
X44920000Y-71270000D03*
X44920000Y-88730000D03*
X32540000Y-71270000D03*
X32540000Y-88730000D03*
%TD*%
D14*
%TO.C,D16*%
X97550000Y-44850000D03*
X97550000Y-48150000D03*
X102450000Y-48150000D03*
X102450000Y-44850000D03*
%TD*%
%TO.C,D2*%
X37550000Y-64850000D03*
X37550000Y-68150000D03*
X42450000Y-68150000D03*
X42450000Y-64850000D03*
%TD*%
%TO.C,D23*%
X117550000Y-84850000D03*
X117550000Y-88150000D03*
X122450000Y-88150000D03*
X122450000Y-84850000D03*
%TD*%
D10*
%TO.C,SW11*%
X80000000Y-40000000D03*
D11*
X71270000Y-41110000D03*
D12*
X72190000Y-37460000D03*
D13*
X76190000Y-37460000D03*
D11*
X88730000Y-41110000D03*
D13*
X82540000Y-34920000D03*
D12*
X86540000Y-34920000D03*
D11*
X87460000Y-31270000D03*
X87460000Y-48730000D03*
X71270000Y-43650000D03*
X88730000Y-43650000D03*
X75080000Y-31270000D03*
X75080000Y-48730000D03*
X84920000Y-31270000D03*
X84920000Y-48730000D03*
X72540000Y-31270000D03*
X72540000Y-48730000D03*
%TD*%
D10*
%TO.C,SW20*%
X100000000Y-120000000D03*
D11*
X91270000Y-121110000D03*
D12*
X92190000Y-117460000D03*
D13*
X96190000Y-117460000D03*
D11*
X108730000Y-121110000D03*
D13*
X102540000Y-114920000D03*
D12*
X106540000Y-114920000D03*
D11*
X107460000Y-111270000D03*
X107460000Y-128730000D03*
X91270000Y-123650000D03*
X108730000Y-123650000D03*
X95080000Y-111270000D03*
X95080000Y-128730000D03*
X104920000Y-111270000D03*
X104920000Y-128730000D03*
X92540000Y-111270000D03*
X92540000Y-128730000D03*
%TD*%
D10*
%TO.C,SW21*%
X120000000Y-40000000D03*
D11*
X111270000Y-41110000D03*
D12*
X112190000Y-37460000D03*
D13*
X116190000Y-37460000D03*
D11*
X128730000Y-41110000D03*
D13*
X122540000Y-34920000D03*
D12*
X126540000Y-34920000D03*
D11*
X127460000Y-31270000D03*
X127460000Y-48730000D03*
X111270000Y-43650000D03*
X128730000Y-43650000D03*
X115080000Y-31270000D03*
X115080000Y-48730000D03*
X124920000Y-31270000D03*
X124920000Y-48730000D03*
X112540000Y-31270000D03*
X112540000Y-48730000D03*
%TD*%
D10*
%TO.C,SW2*%
X40000000Y-60000000D03*
D11*
X31270000Y-61110000D03*
D12*
X32190000Y-57460000D03*
D13*
X36190000Y-57460000D03*
D11*
X48730000Y-61110000D03*
D13*
X42540000Y-54920000D03*
D12*
X46540000Y-54920000D03*
D11*
X47460000Y-51270000D03*
X47460000Y-68730000D03*
X31270000Y-63650000D03*
X48730000Y-63650000D03*
X35080000Y-51270000D03*
X35080000Y-68730000D03*
X44920000Y-51270000D03*
X44920000Y-68730000D03*
X32540000Y-51270000D03*
X32540000Y-68730000D03*
%TD*%
D10*
%TO.C,SW6*%
X60000000Y-40000000D03*
D11*
X51270000Y-41110000D03*
D12*
X52190000Y-37460000D03*
D13*
X56190000Y-37460000D03*
D11*
X68730000Y-41110000D03*
D13*
X62540000Y-34920000D03*
D12*
X66540000Y-34920000D03*
D11*
X67460000Y-31270000D03*
X67460000Y-48730000D03*
X51270000Y-43650000D03*
X68730000Y-43650000D03*
X55080000Y-31270000D03*
X55080000Y-48730000D03*
X64920000Y-31270000D03*
X64920000Y-48730000D03*
X52540000Y-31270000D03*
X52540000Y-48730000D03*
%TD*%
D10*
%TO.C,SW9*%
X60000000Y-100000000D03*
D11*
X51270000Y-101110000D03*
D12*
X52190000Y-97460000D03*
D13*
X56190000Y-97460000D03*
D11*
X68730000Y-101110000D03*
D13*
X62540000Y-94920000D03*
D12*
X66540000Y-94920000D03*
D11*
X67460000Y-91270000D03*
X67460000Y-108730000D03*
X51270000Y-103650000D03*
X68730000Y-103650000D03*
X55080000Y-91270000D03*
X55080000Y-108730000D03*
X64920000Y-91270000D03*
X64920000Y-108730000D03*
X52540000Y-91270000D03*
X52540000Y-108730000D03*
%TD*%
D10*
%TO.C,SW13*%
X80000000Y-80000000D03*
D11*
X71270000Y-81110000D03*
D12*
X72190000Y-77460000D03*
D13*
X76190000Y-77460000D03*
D11*
X88730000Y-81110000D03*
D13*
X82540000Y-74920000D03*
D12*
X86540000Y-74920000D03*
D11*
X87460000Y-71270000D03*
X87460000Y-88730000D03*
X71270000Y-83650000D03*
X88730000Y-83650000D03*
X75080000Y-71270000D03*
X75080000Y-88730000D03*
X84920000Y-71270000D03*
X84920000Y-88730000D03*
X72540000Y-71270000D03*
X72540000Y-88730000D03*
%TD*%
D10*
%TO.C,SW14*%
X80000000Y-100000000D03*
D11*
X71270000Y-101110000D03*
D12*
X72190000Y-97460000D03*
D13*
X76190000Y-97460000D03*
D11*
X88730000Y-101110000D03*
D13*
X82540000Y-94920000D03*
D12*
X86540000Y-94920000D03*
D11*
X87460000Y-91270000D03*
X87460000Y-108730000D03*
X71270000Y-103650000D03*
X88730000Y-103650000D03*
X75080000Y-91270000D03*
X75080000Y-108730000D03*
X84920000Y-91270000D03*
X84920000Y-108730000D03*
X72540000Y-91270000D03*
X72540000Y-108730000D03*
%TD*%
D10*
%TO.C,SW19*%
X100000000Y-100000000D03*
D11*
X91270000Y-101110000D03*
D12*
X92190000Y-97460000D03*
D13*
X96190000Y-97460000D03*
D11*
X108730000Y-101110000D03*
D13*
X102540000Y-94920000D03*
D12*
X106540000Y-94920000D03*
D11*
X107460000Y-91270000D03*
X107460000Y-108730000D03*
X91270000Y-103650000D03*
X108730000Y-103650000D03*
X95080000Y-91270000D03*
X95080000Y-108730000D03*
X104920000Y-91270000D03*
X104920000Y-108730000D03*
X92540000Y-91270000D03*
X92540000Y-108730000D03*
%TD*%
D10*
%TO.C,SW24*%
X120000000Y-100000000D03*
D11*
X111270000Y-101110000D03*
D12*
X112190000Y-97460000D03*
D13*
X116190000Y-97460000D03*
D11*
X128730000Y-101110000D03*
D13*
X122540000Y-94920000D03*
D12*
X126540000Y-94920000D03*
D11*
X127460000Y-91270000D03*
X127460000Y-108730000D03*
X111270000Y-103650000D03*
X128730000Y-103650000D03*
X115080000Y-91270000D03*
X115080000Y-108730000D03*
X124920000Y-91270000D03*
X124920000Y-108730000D03*
X112540000Y-91270000D03*
X112540000Y-108730000D03*
%TD*%
D10*
%TO.C,SW8*%
X60000000Y-80000000D03*
D11*
X51270000Y-81110000D03*
D12*
X52190000Y-77460000D03*
D13*
X56190000Y-77460000D03*
D11*
X68730000Y-81110000D03*
D13*
X62540000Y-74920000D03*
D12*
X66540000Y-74920000D03*
D11*
X67460000Y-71270000D03*
X67460000Y-88730000D03*
X51270000Y-83650000D03*
X68730000Y-83650000D03*
X55080000Y-71270000D03*
X55080000Y-88730000D03*
X64920000Y-71270000D03*
X64920000Y-88730000D03*
X52540000Y-71270000D03*
X52540000Y-88730000D03*
%TD*%
M02*
