M48
; DRILL file {KiCad 9.0.0} date 2025-05-01T22:13:06+0800
; FORMAT={-:-/ absolute / metric / decimal}
; #@! TF.CreationDate,2025-05-01T22:13:06+08:00
; #@! TF.GenerationSoftware,Kicad,Pcbnew,9.0.0
; #@! TF.FileFunction,Plated,1,2,PTH
FMAT,2
METRIC
; #@! TA.AperFunction,Plated,PTH,ViaDrill
T1C0.300
; #@! TA.AperFunction,Plated,PTH,ComponentDrill
T2C1.000
; #@! TA.AperFunction,Plated,PTH,ComponentDrill
T3C1.500
%
G90
G05
T1
X45.5Y-62.5
X45.5Y-122.5
X45.634Y-42.366
X45.72Y-81.28
X45.72Y-101.6
X64.0Y-43.18
X65.5Y-62.0
X65.5Y-82.5
X65.5Y-102.5
X65.5Y-122.5
X85.5Y-42.0
X85.5Y-62.0
X85.5Y-82.5
X85.5Y-102.5
X85.5Y-122.5
X105.5Y-42.5
X105.5Y-62.0
X105.5Y-82.5
X105.5Y-102.5
X105.5Y-122.0
X125.5Y-42.5
X125.5Y-62.0
X125.5Y-83.0
X125.5Y-102.0
X125.5Y-122.5
T2
X31.27Y-41.11
X31.27Y-43.65
X31.27Y-61.11
X31.27Y-63.65
X31.27Y-81.11
X31.27Y-83.65
X31.27Y-101.11
X31.27Y-103.65
X31.27Y-121.11
X31.27Y-123.65
X32.19Y-37.46
X32.19Y-57.46
X32.19Y-77.46
X32.19Y-97.46
X32.19Y-117.46
X32.54Y-31.27
X32.54Y-48.73
X32.54Y-51.27
X32.54Y-68.73
X32.54Y-71.27
X32.54Y-88.73
X32.54Y-91.27
X32.54Y-108.73
X32.54Y-111.27
X32.54Y-128.73
X35.08Y-31.27
X35.08Y-48.73
X35.08Y-51.27
X35.08Y-68.73
X35.08Y-71.27
X35.08Y-88.73
X35.08Y-91.27
X35.08Y-108.73
X35.08Y-111.27
X35.08Y-128.73
X44.92Y-31.27
X44.92Y-48.73
X44.92Y-51.27
X44.92Y-68.73
X44.92Y-71.27
X44.92Y-88.73
X44.92Y-91.27
X44.92Y-108.73
X44.92Y-111.27
X44.92Y-128.73
X46.54Y-34.92
X46.54Y-54.92
X46.54Y-74.92
X46.54Y-94.92
X46.54Y-114.92
X47.46Y-31.27
X47.46Y-48.73
X47.46Y-51.27
X47.46Y-68.73
X47.46Y-71.27
X47.46Y-88.73
X47.46Y-91.27
X47.46Y-108.73
X47.46Y-111.27
X47.46Y-128.73
X48.73Y-41.11
X48.73Y-43.65
X48.73Y-61.11
X48.73Y-63.65
X48.73Y-81.11
X48.73Y-83.65
X48.73Y-101.11
X48.73Y-103.65
X48.73Y-121.11
X48.73Y-123.65
X51.27Y-41.11
X51.27Y-43.65
X51.27Y-61.11
X51.27Y-63.65
X51.27Y-81.11
X51.27Y-83.65
X51.27Y-101.11
X51.27Y-103.65
X51.27Y-121.11
X51.27Y-123.65
X52.19Y-37.46
X52.19Y-57.46
X52.19Y-77.46
X52.19Y-97.46
X52.19Y-117.46
X52.54Y-31.27
X52.54Y-48.73
X52.54Y-51.27
X52.54Y-68.73
X52.54Y-71.27
X52.54Y-88.73
X52.54Y-91.27
X52.54Y-108.73
X52.54Y-111.27
X52.54Y-128.73
X55.08Y-31.27
X55.08Y-48.73
X55.08Y-51.27
X55.08Y-68.73
X55.08Y-71.27
X55.08Y-88.73
X55.08Y-91.27
X55.08Y-108.73
X55.08Y-111.27
X55.08Y-128.73
X64.92Y-31.27
X64.92Y-48.73
X64.92Y-51.27
X64.92Y-68.73
X64.92Y-71.27
X64.92Y-88.73
X64.92Y-91.27
X64.92Y-108.73
X64.92Y-111.27
X64.92Y-128.73
X66.54Y-34.92
X66.54Y-54.92
X66.54Y-74.92
X66.54Y-94.92
X66.54Y-114.92
X67.46Y-31.27
X67.46Y-48.73
X67.46Y-51.27
X67.46Y-68.73
X67.46Y-71.27
X67.46Y-88.73
X67.46Y-91.27
X67.46Y-108.73
X67.46Y-111.27
X67.46Y-128.73
X68.73Y-41.11
X68.73Y-43.65
X68.73Y-61.11
X68.73Y-63.65
X68.73Y-81.11
X68.73Y-83.65
X68.73Y-101.11
X68.73Y-103.65
X68.73Y-121.11
X68.73Y-123.65
X71.27Y-41.11
X71.27Y-43.65
X71.27Y-61.11
X71.27Y-63.65
X71.27Y-81.11
X71.27Y-83.65
X71.27Y-101.11
X71.27Y-103.65
X71.27Y-121.11
X71.27Y-123.65
X72.19Y-37.46
X72.19Y-57.46
X72.19Y-77.46
X72.19Y-97.46
X72.19Y-117.46
X72.54Y-31.27
X72.54Y-48.73
X72.54Y-51.27
X72.54Y-68.73
X72.54Y-71.27
X72.54Y-88.73
X72.54Y-91.27
X72.54Y-108.73
X72.54Y-111.27
X72.54Y-128.73
X75.08Y-31.27
X75.08Y-48.73
X75.08Y-51.27
X75.08Y-68.73
X75.08Y-71.27
X75.08Y-88.73
X75.08Y-91.27
X75.08Y-108.73
X75.08Y-111.27
X75.08Y-128.73
X84.92Y-31.27
X84.92Y-48.73
X84.92Y-51.27
X84.92Y-68.73
X84.92Y-71.27
X84.92Y-88.73
X84.92Y-91.27
X84.92Y-108.73
X84.92Y-111.27
X84.92Y-128.73
X86.54Y-34.92
X86.54Y-54.92
X86.54Y-74.92
X86.54Y-94.92
X86.54Y-114.92
X87.46Y-31.27
X87.46Y-48.73
X87.46Y-51.27
X87.46Y-68.73
X87.46Y-71.27
X87.46Y-88.73
X87.46Y-91.27
X87.46Y-108.73
X87.46Y-111.27
X87.46Y-128.73
X88.73Y-41.11
X88.73Y-43.65
X88.73Y-61.11
X88.73Y-63.65
X88.73Y-81.11
X88.73Y-83.65
X88.73Y-101.11
X88.73Y-103.65
X88.73Y-121.11
X88.73Y-123.65
X91.27Y-41.11
X91.27Y-43.65
X91.27Y-61.11
X91.27Y-63.65
X91.27Y-81.11
X91.27Y-83.65
X91.27Y-101.11
X91.27Y-103.65
X91.27Y-121.11
X91.27Y-123.65
X92.19Y-37.46
X92.19Y-57.46
X92.19Y-77.46
X92.19Y-97.46
X92.19Y-117.46
X92.54Y-31.27
X92.54Y-48.73
X92.54Y-51.27
X92.54Y-68.73
X92.54Y-71.27
X92.54Y-88.73
X92.54Y-91.27
X92.54Y-108.73
X92.54Y-111.27
X92.54Y-128.73
X95.08Y-31.27
X95.08Y-48.73
X95.08Y-51.27
X95.08Y-68.73
X95.08Y-71.27
X95.08Y-88.73
X95.08Y-91.27
X95.08Y-108.73
X95.08Y-111.27
X95.08Y-128.73
X104.92Y-31.27
X104.92Y-48.73
X104.92Y-51.27
X104.92Y-68.73
X104.92Y-71.27
X104.92Y-88.73
X104.92Y-91.27
X104.92Y-108.73
X104.92Y-111.27
X104.92Y-128.73
X106.54Y-34.92
X106.54Y-54.92
X106.54Y-74.92
X106.54Y-94.92
X106.54Y-114.92
X107.46Y-31.27
X107.46Y-48.73
X107.46Y-51.27
X107.46Y-68.73
X107.46Y-71.27
X107.46Y-88.73
X107.46Y-91.27
X107.46Y-108.73
X107.46Y-111.27
X107.46Y-128.73
X108.73Y-41.11
X108.73Y-43.65
X108.73Y-61.11
X108.73Y-63.65
X108.73Y-81.11
X108.73Y-83.65
X108.73Y-101.11
X108.73Y-103.65
X108.73Y-121.11
X108.73Y-123.65
X111.27Y-41.11
X111.27Y-43.65
X111.27Y-61.11
X111.27Y-63.65
X111.27Y-81.11
X111.27Y-83.65
X111.27Y-101.11
X111.27Y-103.65
X111.27Y-121.11
X111.27Y-123.65
X112.19Y-37.46
X112.19Y-57.46
X112.19Y-77.46
X112.19Y-97.46
X112.19Y-117.46
X112.54Y-31.27
X112.54Y-48.73
X112.54Y-51.27
X112.54Y-68.73
X112.54Y-71.27
X112.54Y-88.73
X112.54Y-91.27
X112.54Y-108.73
X112.54Y-111.27
X112.54Y-128.73
X115.08Y-31.27
X115.08Y-48.73
X115.08Y-51.27
X115.08Y-68.73
X115.08Y-71.27
X115.08Y-88.73
X115.08Y-91.27
X115.08Y-108.73
X115.08Y-111.27
X115.08Y-128.73
X124.92Y-31.27
X124.92Y-48.73
X124.92Y-51.27
X124.92Y-68.73
X124.92Y-71.27
X124.92Y-88.73
X124.92Y-91.27
X124.92Y-108.73
X124.92Y-111.27
X124.92Y-128.73
X126.54Y-34.92
X126.54Y-54.92
X126.54Y-74.92
X126.54Y-94.92
X126.54Y-114.92
X127.46Y-31.27
X127.46Y-48.73
X127.46Y-51.27
X127.46Y-68.73
X127.46Y-71.27
X127.46Y-88.73
X127.46Y-91.27
X127.46Y-108.73
X127.46Y-111.27
X127.46Y-128.73
X128.73Y-41.11
X128.73Y-43.65
X128.73Y-61.11
X128.73Y-63.65
X128.73Y-81.11
X128.73Y-83.65
X128.73Y-101.11
X128.73Y-103.65
X128.73Y-121.11
X128.73Y-123.65
T3
X36.19Y-37.46
X36.19Y-57.46
X36.19Y-77.46
X36.19Y-97.46
X36.19Y-117.46
X42.54Y-34.92
X42.54Y-54.92
X42.54Y-74.92
X42.54Y-94.92
X42.54Y-114.92
X56.19Y-37.46
X56.19Y-57.46
X56.19Y-77.46
X56.19Y-97.46
X56.19Y-117.46
X62.54Y-34.92
X62.54Y-54.92
X62.54Y-74.92
X62.54Y-94.92
X62.54Y-114.92
X76.19Y-37.46
X76.19Y-57.46
X76.19Y-77.46
X76.19Y-97.46
X76.19Y-117.46
X82.54Y-34.92
X82.54Y-54.92
X82.54Y-74.92
X82.54Y-94.92
X82.54Y-114.92
X96.19Y-37.46
X96.19Y-57.46
X96.19Y-77.46
X96.19Y-97.46
X96.19Y-117.46
X102.54Y-34.92
X102.54Y-54.92
X102.54Y-74.92
X102.54Y-94.92
X102.54Y-114.92
X116.19Y-37.46
X116.19Y-57.46
X116.19Y-77.46
X116.19Y-97.46
X116.19Y-117.46
X122.54Y-34.92
X122.54Y-54.92
X122.54Y-74.92
X122.54Y-94.92
X122.54Y-114.92
M30
