%TF.GenerationSoftware,KiCad,Pcbnew,9.0.0*%
%TF.CreationDate,2025-05-01T22:13:03+08:00*%
%TF.ProjectId,kbd5x5,6b626435-7835-42e6-9b69-6361645f7063,rev?*%
%TF.SameCoordinates,Original*%
%TF.FileFunction,Copper,L1,Top*%
%TF.FilePolarity,Positive*%
%FSLAX46Y46*%
G04 Gerber Fmt 4.6, Leading zero omitted, Abs format (unit mm)*
G04 Created by KiCad (PCBNEW 9.0.0) date 2025-05-01 22:13:03*
%MOMM*%
%LPD*%
G01*
G04 APERTURE LIST*
G04 Aperture macros list*
%AMRoundRect*
0 Rectangle with rounded corners*
0 $1 Rounding radius*
0 $2 $3 $4 $5 $6 $7 $8 $9 X,Y pos of 4 corners*
0 Add a 4 corners polygon primitive as box body*
4,1,4,$2,$3,$4,$5,$6,$7,$8,$9,$2,$3,0*
0 Add four circle primitives for the rounded corners*
1,1,$1+$1,$2,$3*
1,1,$1+$1,$4,$5*
1,1,$1+$1,$6,$7*
1,1,$1+$1,$8,$9*
0 Add four rect primitives between the rounded corners*
20,1,$1+$1,$2,$3,$4,$5,0*
20,1,$1+$1,$4,$5,$6,$7,0*
20,1,$1+$1,$6,$7,$8,$9,0*
20,1,$1+$1,$8,$9,$2,$3,0*%
G04 Aperture macros list end*
%TA.AperFunction,ComponentPad*%
%ADD10C,1.700000*%
%TD*%
%TA.AperFunction,ComponentPad*%
%ADD11RoundRect,0.450000X-1.050000X-1.050000X1.050000X-1.050000X1.050000X1.050000X-1.050000X1.050000X0*%
%TD*%
%TA.AperFunction,ComponentPad*%
%ADD12C,2.200000*%
%TD*%
%TA.AperFunction,SMDPad,CuDef*%
%ADD13RoundRect,0.090000X-0.660000X-0.360000X0.660000X-0.360000X0.660000X0.360000X-0.660000X0.360000X0*%
%TD*%
%TA.AperFunction,ViaPad*%
%ADD14C,0.600000*%
%TD*%
%TA.AperFunction,Conductor*%
%ADD15C,0.200000*%
%TD*%
G04 APERTURE END LIST*
D10*
%TO.P,SW1,1,1*%
%TO.N,Net-(SW1-Pad1)*%
X31270000Y-41110000D03*
D11*
X32190000Y-37460000D03*
D12*
X36190000Y-37460000D03*
D10*
X48730000Y-41110000D03*
D12*
%TO.P,SW1,2,2*%
%TO.N,Net-(SW1-Pad2)*%
X42540000Y-34920000D03*
D11*
X46540000Y-34920000D03*
D10*
X47460000Y-31270000D03*
X47460000Y-48730000D03*
%TO.P,SW1,3,3*%
%TO.N,Net-(D1-DIN)*%
X31270000Y-43650000D03*
%TO.P,SW1,4,4*%
%TO.N,Net-(D1-DOUT)*%
X48730000Y-43650000D03*
%TO.P,SW1,5,5*%
%TO.N,VCC*%
X35080000Y-31270000D03*
X35080000Y-48730000D03*
%TO.P,SW1,6,6*%
%TO.N,GND*%
X44920000Y-31270000D03*
X44920000Y-48730000D03*
%TO.P,SW1,7*%
%TO.N,N/C*%
X32540000Y-31270000D03*
X32540000Y-48730000D03*
%TD*%
%TO.P,SW22,1,1*%
%TO.N,Net-(SW12-Pad1)*%
X111270000Y-61110000D03*
D11*
X112190000Y-57460000D03*
D12*
X116190000Y-57460000D03*
D10*
X128730000Y-61110000D03*
D12*
%TO.P,SW22,2,2*%
%TO.N,Net-(SW21-Pad2)*%
X122540000Y-54920000D03*
D11*
X126540000Y-54920000D03*
D10*
X127460000Y-51270000D03*
X127460000Y-68730000D03*
%TO.P,SW22,3,3*%
%TO.N,Net-(D17-DIN)*%
X111270000Y-63650000D03*
%TO.P,SW22,4,4*%
%TO.N,Net-(D21-DOUT)*%
X128730000Y-63650000D03*
%TO.P,SW22,5,5*%
%TO.N,VCC*%
X115080000Y-51270000D03*
X115080000Y-68730000D03*
%TO.P,SW22,6,6*%
%TO.N,GND*%
X124920000Y-51270000D03*
X124920000Y-68730000D03*
%TO.P,SW22,7*%
%TO.N,N/C*%
X112540000Y-51270000D03*
X112540000Y-68730000D03*
%TD*%
%TO.P,SW17,1,1*%
%TO.N,Net-(SW12-Pad1)*%
X91270000Y-61110000D03*
D11*
X92190000Y-57460000D03*
D12*
X96190000Y-57460000D03*
D10*
X108730000Y-61110000D03*
D12*
%TO.P,SW17,2,2*%
%TO.N,Net-(SW16-Pad2)*%
X102540000Y-54920000D03*
D11*
X106540000Y-54920000D03*
D10*
X107460000Y-51270000D03*
X107460000Y-68730000D03*
%TO.P,SW17,3,3*%
%TO.N,Net-(D12-DIN)*%
X91270000Y-63650000D03*
%TO.P,SW17,4,4*%
%TO.N,Net-(D17-DIN)*%
X108730000Y-63650000D03*
%TO.P,SW17,5,5*%
%TO.N,VCC*%
X95080000Y-51270000D03*
X95080000Y-68730000D03*
%TO.P,SW17,6,6*%
%TO.N,GND*%
X104920000Y-51270000D03*
X104920000Y-68730000D03*
%TO.P,SW17,7*%
%TO.N,N/C*%
X92540000Y-51270000D03*
X92540000Y-68730000D03*
%TD*%
%TO.P,SW18,1,1*%
%TO.N,Net-(SW13-Pad1)*%
X91270000Y-81110000D03*
D11*
X92190000Y-77460000D03*
D12*
X96190000Y-77460000D03*
D10*
X108730000Y-81110000D03*
D12*
%TO.P,SW18,2,2*%
%TO.N,Net-(SW16-Pad2)*%
X102540000Y-74920000D03*
D11*
X106540000Y-74920000D03*
D10*
X107460000Y-71270000D03*
X107460000Y-88730000D03*
%TO.P,SW18,3,3*%
%TO.N,Net-(D13-DOUT)*%
X91270000Y-83650000D03*
%TO.P,SW18,4,4*%
%TO.N,Net-(D18-DOUT)*%
X108730000Y-83650000D03*
%TO.P,SW18,5,5*%
%TO.N,VCC*%
X95080000Y-71270000D03*
X95080000Y-88730000D03*
%TO.P,SW18,6,6*%
%TO.N,GND*%
X104920000Y-71270000D03*
X104920000Y-88730000D03*
%TO.P,SW18,7*%
%TO.N,N/C*%
X92540000Y-71270000D03*
X92540000Y-88730000D03*
%TD*%
D13*
%TO.P,D10,1,VDD*%
%TO.N,VCC*%
X57550000Y-124850000D03*
%TO.P,D10,2,DOUT*%
%TO.N,Net-(D10-DOUT)*%
X57550000Y-128150000D03*
%TO.P,D10,3,VSS*%
%TO.N,GND*%
X62450000Y-128150000D03*
%TO.P,D10,4,DIN*%
%TO.N,Net-(D10-DIN)*%
X62450000Y-124850000D03*
%TD*%
%TO.P,D25,1,VDD*%
%TO.N,VCC*%
X117550000Y-124850000D03*
%TO.P,D25,2,DOUT*%
%TO.N,Net-(D25-DOUT)*%
X117550000Y-128150000D03*
%TO.P,D25,3,VSS*%
%TO.N,GND*%
X122450000Y-128150000D03*
%TO.P,D25,4,DIN*%
%TO.N,Net-(D20-DOUT)*%
X122450000Y-124850000D03*
%TD*%
%TO.P,D3,1,VDD*%
%TO.N,VCC*%
X37550000Y-84850000D03*
%TO.P,D3,2,DOUT*%
%TO.N,Net-(D3-DOUT)*%
X37550000Y-88150000D03*
%TO.P,D3,3,VSS*%
%TO.N,GND*%
X42450000Y-88150000D03*
%TO.P,D3,4,DIN*%
%TO.N,Net-(D2-DOUT)*%
X42450000Y-84850000D03*
%TD*%
D10*
%TO.P,SW16,1,1*%
%TO.N,Net-(SW1-Pad1)*%
X91270000Y-41110000D03*
D11*
X92190000Y-37460000D03*
D12*
X96190000Y-37460000D03*
D10*
X108730000Y-41110000D03*
D12*
%TO.P,SW16,2,2*%
%TO.N,Net-(SW16-Pad2)*%
X102540000Y-34920000D03*
D11*
X106540000Y-34920000D03*
D10*
X107460000Y-31270000D03*
X107460000Y-48730000D03*
%TO.P,SW16,3,3*%
%TO.N,Net-(D11-DOUT)*%
X91270000Y-43650000D03*
%TO.P,SW16,4,4*%
%TO.N,Net-(D16-DOUT)*%
X108730000Y-43650000D03*
%TO.P,SW16,5,5*%
%TO.N,VCC*%
X95080000Y-31270000D03*
X95080000Y-48730000D03*
%TO.P,SW16,6,6*%
%TO.N,GND*%
X104920000Y-31270000D03*
X104920000Y-48730000D03*
%TO.P,SW16,7*%
%TO.N,N/C*%
X92540000Y-31270000D03*
X92540000Y-48730000D03*
%TD*%
D13*
%TO.P,D20,1,VDD*%
%TO.N,VCC*%
X97550000Y-124850000D03*
%TO.P,D20,2,DOUT*%
%TO.N,Net-(D20-DOUT)*%
X97550000Y-128150000D03*
%TO.P,D20,3,VSS*%
%TO.N,GND*%
X102450000Y-128150000D03*
%TO.P,D20,4,DIN*%
%TO.N,Net-(D15-DOUT)*%
X102450000Y-124850000D03*
%TD*%
%TO.P,D11,1,VDD*%
%TO.N,VCC*%
X77550000Y-44850000D03*
%TO.P,D11,2,DOUT*%
%TO.N,Net-(D11-DOUT)*%
X77550000Y-48150000D03*
%TO.P,D11,3,VSS*%
%TO.N,GND*%
X82450000Y-48150000D03*
%TO.P,D11,4,DIN*%
%TO.N,Net-(D11-DIN)*%
X82450000Y-44850000D03*
%TD*%
D10*
%TO.P,SW25,1,1*%
%TO.N,Net-(SW10-Pad1)*%
X111270000Y-121110000D03*
D11*
X112190000Y-117460000D03*
D12*
X116190000Y-117460000D03*
D10*
X128730000Y-121110000D03*
D12*
%TO.P,SW25,2,2*%
%TO.N,Net-(SW21-Pad2)*%
X122540000Y-114920000D03*
D11*
X126540000Y-114920000D03*
D10*
X127460000Y-111270000D03*
X127460000Y-128730000D03*
%TO.P,SW25,3,3*%
%TO.N,Net-(D20-DOUT)*%
X111270000Y-123650000D03*
%TO.P,SW25,4,4*%
%TO.N,Net-(D25-DOUT)*%
X128730000Y-123650000D03*
%TO.P,SW25,5,5*%
%TO.N,VCC*%
X115080000Y-111270000D03*
X115080000Y-128730000D03*
%TO.P,SW25,6,6*%
%TO.N,GND*%
X124920000Y-111270000D03*
X124920000Y-128730000D03*
%TO.P,SW25,7*%
%TO.N,N/C*%
X112540000Y-111270000D03*
X112540000Y-128730000D03*
%TD*%
D13*
%TO.P,D6,1,VDD*%
%TO.N,VCC*%
X57550000Y-44850000D03*
%TO.P,D6,2,DOUT*%
%TO.N,Net-(D11-DIN)*%
X57550000Y-48150000D03*
%TO.P,D6,3,VSS*%
%TO.N,GND*%
X62450000Y-48150000D03*
%TO.P,D6,4,DIN*%
%TO.N,Net-(D1-DOUT)*%
X62450000Y-44850000D03*
%TD*%
%TO.P,D1,1,VDD*%
%TO.N,VCC*%
X37550000Y-44850000D03*
%TO.P,D1,2,DOUT*%
%TO.N,Net-(D1-DOUT)*%
X37550000Y-48150000D03*
%TO.P,D1,3,VSS*%
%TO.N,GND*%
X42450000Y-48150000D03*
%TO.P,D1,4,DIN*%
%TO.N,Net-(D1-DIN)*%
X42450000Y-44850000D03*
%TD*%
%TO.P,D18,1,VDD*%
%TO.N,VCC*%
X97550000Y-84850000D03*
%TO.P,D18,2,DOUT*%
%TO.N,Net-(D18-DOUT)*%
X97550000Y-88150000D03*
%TO.P,D18,3,VSS*%
%TO.N,GND*%
X102450000Y-88150000D03*
%TO.P,D18,4,DIN*%
%TO.N,Net-(D13-DOUT)*%
X102450000Y-84850000D03*
%TD*%
%TO.P,D19,1,VDD*%
%TO.N,VCC*%
X97550000Y-104850000D03*
%TO.P,D19,2,DOUT*%
%TO.N,Net-(D14-DIN)*%
X97550000Y-108150000D03*
%TO.P,D19,3,VSS*%
%TO.N,GND*%
X102450000Y-108150000D03*
%TO.P,D19,4,DIN*%
%TO.N,Net-(D19-DIN)*%
X102450000Y-104850000D03*
%TD*%
%TO.P,D4,1,VDD*%
%TO.N,VCC*%
X37550000Y-104850000D03*
%TO.P,D4,2,DOUT*%
%TO.N,Net-(D4-DOUT)*%
X37550000Y-108150000D03*
%TO.P,D4,3,VSS*%
%TO.N,GND*%
X42450000Y-108150000D03*
%TO.P,D4,4,DIN*%
%TO.N,Net-(D4-DIN)*%
X42450000Y-104850000D03*
%TD*%
%TO.P,D8,1,VDD*%
%TO.N,VCC*%
X57550000Y-84850000D03*
%TO.P,D8,2,DOUT*%
%TO.N,Net-(D13-DIN)*%
X57550000Y-88150000D03*
%TO.P,D8,3,VSS*%
%TO.N,GND*%
X62450000Y-88150000D03*
%TO.P,D8,4,DIN*%
%TO.N,Net-(D3-DOUT)*%
X62450000Y-84850000D03*
%TD*%
%TO.P,D7,1,VDD*%
%TO.N,VCC*%
X57550000Y-64850000D03*
%TO.P,D7,2,DOUT*%
%TO.N,Net-(D2-DIN)*%
X57550000Y-68150000D03*
%TO.P,D7,3,VSS*%
%TO.N,GND*%
X62450000Y-68150000D03*
%TO.P,D7,4,DIN*%
%TO.N,Net-(D12-DOUT)*%
X62450000Y-64850000D03*
%TD*%
%TO.P,D5,1,VDD*%
%TO.N,VCC*%
X37550000Y-124850000D03*
%TO.P,D5,2,DOUT*%
%TO.N,Net-(D10-DIN)*%
X37550000Y-128150000D03*
%TO.P,D5,3,VSS*%
%TO.N,GND*%
X42450000Y-128150000D03*
%TO.P,D5,4,DIN*%
%TO.N,Net-(D4-DOUT)*%
X42450000Y-124850000D03*
%TD*%
%TO.P,D14,1,VDD*%
%TO.N,VCC*%
X77550000Y-104850000D03*
%TO.P,D14,2,DOUT*%
%TO.N,Net-(D14-DOUT)*%
X77550000Y-108150000D03*
%TO.P,D14,3,VSS*%
%TO.N,GND*%
X82450000Y-108150000D03*
%TO.P,D14,4,DIN*%
%TO.N,Net-(D14-DIN)*%
X82450000Y-104850000D03*
%TD*%
D10*
%TO.P,SW4,1,1*%
%TO.N,Net-(SW14-Pad1)*%
X31270000Y-101110000D03*
D11*
X32190000Y-97460000D03*
D12*
X36190000Y-97460000D03*
D10*
X48730000Y-101110000D03*
D12*
%TO.P,SW4,2,2*%
%TO.N,Net-(SW1-Pad2)*%
X42540000Y-94920000D03*
D11*
X46540000Y-94920000D03*
D10*
X47460000Y-91270000D03*
X47460000Y-108730000D03*
%TO.P,SW4,3,3*%
%TO.N,Net-(D4-DOUT)*%
X31270000Y-103650000D03*
%TO.P,SW4,4,4*%
%TO.N,Net-(D4-DIN)*%
X48730000Y-103650000D03*
%TO.P,SW4,5,5*%
%TO.N,VCC*%
X35080000Y-91270000D03*
X35080000Y-108730000D03*
%TO.P,SW4,6,6*%
%TO.N,GND*%
X44920000Y-91270000D03*
X44920000Y-108730000D03*
%TO.P,SW4,7*%
%TO.N,N/C*%
X32540000Y-91270000D03*
X32540000Y-108730000D03*
%TD*%
%TO.P,SW23,1,1*%
%TO.N,Net-(SW13-Pad1)*%
X111270000Y-81110000D03*
D11*
X112190000Y-77460000D03*
D12*
X116190000Y-77460000D03*
D10*
X128730000Y-81110000D03*
D12*
%TO.P,SW23,2,2*%
%TO.N,Net-(SW21-Pad2)*%
X122540000Y-74920000D03*
D11*
X126540000Y-74920000D03*
D10*
X127460000Y-71270000D03*
X127460000Y-88730000D03*
%TO.P,SW23,3,3*%
%TO.N,Net-(D18-DOUT)*%
X111270000Y-83650000D03*
%TO.P,SW23,4,4*%
%TO.N,Net-(D23-DOUT)*%
X128730000Y-83650000D03*
%TO.P,SW23,5,5*%
%TO.N,VCC*%
X115080000Y-71270000D03*
X115080000Y-88730000D03*
%TO.P,SW23,6,6*%
%TO.N,GND*%
X124920000Y-71270000D03*
X124920000Y-88730000D03*
%TO.P,SW23,7*%
%TO.N,N/C*%
X112540000Y-71270000D03*
X112540000Y-88730000D03*
%TD*%
%TO.P,SW12,1,1*%
%TO.N,Net-(SW12-Pad1)*%
X71270000Y-61110000D03*
D11*
X72190000Y-57460000D03*
D12*
X76190000Y-57460000D03*
D10*
X88730000Y-61110000D03*
D12*
%TO.P,SW12,2,2*%
%TO.N,Net-(SW11-Pad2)*%
X82540000Y-54920000D03*
D11*
X86540000Y-54920000D03*
D10*
X87460000Y-51270000D03*
X87460000Y-68730000D03*
%TO.P,SW12,3,3*%
%TO.N,Net-(D12-DOUT)*%
X71270000Y-63650000D03*
%TO.P,SW12,4,4*%
%TO.N,Net-(D12-DIN)*%
X88730000Y-63650000D03*
%TO.P,SW12,5,5*%
%TO.N,VCC*%
X75080000Y-51270000D03*
X75080000Y-68730000D03*
%TO.P,SW12,6,6*%
%TO.N,GND*%
X84920000Y-51270000D03*
X84920000Y-68730000D03*
%TO.P,SW12,7*%
%TO.N,N/C*%
X72540000Y-51270000D03*
X72540000Y-68730000D03*
%TD*%
D13*
%TO.P,D9,1,VDD*%
%TO.N,VCC*%
X57550000Y-104850000D03*
%TO.P,D9,2,DOUT*%
%TO.N,Net-(D4-DIN)*%
X57550000Y-108150000D03*
%TO.P,D9,3,VSS*%
%TO.N,GND*%
X62450000Y-108150000D03*
%TO.P,D9,4,DIN*%
%TO.N,Net-(D14-DOUT)*%
X62450000Y-104850000D03*
%TD*%
%TO.P,D15,1,VDD*%
%TO.N,VCC*%
X77550000Y-124850000D03*
%TO.P,D15,2,DOUT*%
%TO.N,Net-(D15-DOUT)*%
X77550000Y-128150000D03*
%TO.P,D15,3,VSS*%
%TO.N,GND*%
X82450000Y-128150000D03*
%TO.P,D15,4,DIN*%
%TO.N,Net-(D10-DOUT)*%
X82450000Y-124850000D03*
%TD*%
%TO.P,D12,1,VDD*%
%TO.N,VCC*%
X77550000Y-64850000D03*
%TO.P,D12,2,DOUT*%
%TO.N,Net-(D12-DOUT)*%
X77550000Y-68150000D03*
%TO.P,D12,3,VSS*%
%TO.N,GND*%
X82450000Y-68150000D03*
%TO.P,D12,4,DIN*%
%TO.N,Net-(D12-DIN)*%
X82450000Y-64850000D03*
%TD*%
%TO.P,D13,1,VDD*%
%TO.N,VCC*%
X77550000Y-84850000D03*
%TO.P,D13,2,DOUT*%
%TO.N,Net-(D13-DOUT)*%
X77550000Y-88150000D03*
%TO.P,D13,3,VSS*%
%TO.N,GND*%
X82450000Y-88150000D03*
%TO.P,D13,4,DIN*%
%TO.N,Net-(D13-DIN)*%
X82450000Y-84850000D03*
%TD*%
%TO.P,D17,1,VDD*%
%TO.N,VCC*%
X97550000Y-64850000D03*
%TO.P,D17,2,DOUT*%
%TO.N,Net-(D12-DIN)*%
X97550000Y-68150000D03*
%TO.P,D17,3,VSS*%
%TO.N,GND*%
X102450000Y-68150000D03*
%TO.P,D17,4,DIN*%
%TO.N,Net-(D17-DIN)*%
X102450000Y-64850000D03*
%TD*%
%TO.P,D21,1,VDD*%
%TO.N,VCC*%
X117550000Y-44850000D03*
%TO.P,D21,2,DOUT*%
%TO.N,Net-(D21-DOUT)*%
X117550000Y-48150000D03*
%TO.P,D21,3,VSS*%
%TO.N,GND*%
X122450000Y-48150000D03*
%TO.P,D21,4,DIN*%
%TO.N,Net-(D16-DOUT)*%
X122450000Y-44850000D03*
%TD*%
D10*
%TO.P,SW5,1,1*%
%TO.N,Net-(SW10-Pad1)*%
X31270000Y-121110000D03*
D11*
X32190000Y-117460000D03*
D12*
X36190000Y-117460000D03*
D10*
X48730000Y-121110000D03*
D12*
%TO.P,SW5,2,2*%
%TO.N,Net-(SW1-Pad2)*%
X42540000Y-114920000D03*
D11*
X46540000Y-114920000D03*
D10*
X47460000Y-111270000D03*
X47460000Y-128730000D03*
%TO.P,SW5,3,3*%
%TO.N,Net-(D4-DOUT)*%
X31270000Y-123650000D03*
%TO.P,SW5,4,4*%
%TO.N,Net-(D10-DIN)*%
X48730000Y-123650000D03*
%TO.P,SW5,5,5*%
%TO.N,VCC*%
X35080000Y-111270000D03*
X35080000Y-128730000D03*
%TO.P,SW5,6,6*%
%TO.N,GND*%
X44920000Y-111270000D03*
X44920000Y-128730000D03*
%TO.P,SW5,7*%
%TO.N,N/C*%
X32540000Y-111270000D03*
X32540000Y-128730000D03*
%TD*%
%TO.P,SW10,1,1*%
%TO.N,Net-(SW10-Pad1)*%
X51270000Y-121110000D03*
D11*
X52190000Y-117460000D03*
D12*
X56190000Y-117460000D03*
D10*
X68730000Y-121110000D03*
D12*
%TO.P,SW10,2,2*%
%TO.N,Net-(SW10-Pad2)*%
X62540000Y-114920000D03*
D11*
X66540000Y-114920000D03*
D10*
X67460000Y-111270000D03*
X67460000Y-128730000D03*
%TO.P,SW10,3,3*%
%TO.N,Net-(D10-DIN)*%
X51270000Y-123650000D03*
%TO.P,SW10,4,4*%
%TO.N,Net-(D10-DOUT)*%
X68730000Y-123650000D03*
%TO.P,SW10,5,5*%
%TO.N,VCC*%
X55080000Y-111270000D03*
X55080000Y-128730000D03*
%TO.P,SW10,6,6*%
%TO.N,GND*%
X64920000Y-111270000D03*
X64920000Y-128730000D03*
%TO.P,SW10,7*%
%TO.N,N/C*%
X52540000Y-111270000D03*
X52540000Y-128730000D03*
%TD*%
%TO.P,SW15,1,1*%
%TO.N,Net-(SW10-Pad1)*%
X71270000Y-121110000D03*
D11*
X72190000Y-117460000D03*
D12*
X76190000Y-117460000D03*
D10*
X88730000Y-121110000D03*
D12*
%TO.P,SW15,2,2*%
%TO.N,Net-(SW11-Pad2)*%
X82540000Y-114920000D03*
D11*
X86540000Y-114920000D03*
D10*
X87460000Y-111270000D03*
X87460000Y-128730000D03*
%TO.P,SW15,3,3*%
%TO.N,Net-(D10-DOUT)*%
X71270000Y-123650000D03*
%TO.P,SW15,4,4*%
%TO.N,Net-(D15-DOUT)*%
X88730000Y-123650000D03*
%TO.P,SW15,5,5*%
%TO.N,VCC*%
X75080000Y-111270000D03*
X75080000Y-128730000D03*
%TO.P,SW15,6,6*%
%TO.N,GND*%
X84920000Y-111270000D03*
X84920000Y-128730000D03*
%TO.P,SW15,7*%
%TO.N,N/C*%
X72540000Y-111270000D03*
X72540000Y-128730000D03*
%TD*%
D13*
%TO.P,D24,1,VDD*%
%TO.N,VCC*%
X117550000Y-104850000D03*
%TO.P,D24,2,DOUT*%
%TO.N,Net-(D19-DIN)*%
X117550000Y-108150000D03*
%TO.P,D24,3,VSS*%
%TO.N,GND*%
X122450000Y-108150000D03*
%TO.P,D24,4,DIN*%
%TO.N,Net-(D23-DOUT)*%
X122450000Y-104850000D03*
%TD*%
%TO.P,D22,1,VDD*%
%TO.N,VCC*%
X117550000Y-64850000D03*
%TO.P,D22,2,DOUT*%
%TO.N,Net-(D17-DIN)*%
X117550000Y-68150000D03*
%TO.P,D22,3,VSS*%
%TO.N,GND*%
X122450000Y-68150000D03*
%TO.P,D22,4,DIN*%
%TO.N,Net-(D21-DOUT)*%
X122450000Y-64850000D03*
%TD*%
D10*
%TO.P,SW7,1,1*%
%TO.N,Net-(SW12-Pad1)*%
X51270000Y-61110000D03*
D11*
X52190000Y-57460000D03*
D12*
X56190000Y-57460000D03*
D10*
X68730000Y-61110000D03*
D12*
%TO.P,SW7,2,2*%
%TO.N,Net-(SW10-Pad2)*%
X62540000Y-54920000D03*
D11*
X66540000Y-54920000D03*
D10*
X67460000Y-51270000D03*
X67460000Y-68730000D03*
%TO.P,SW7,3,3*%
%TO.N,Net-(D2-DIN)*%
X51270000Y-63650000D03*
%TO.P,SW7,4,4*%
%TO.N,Net-(D12-DOUT)*%
X68730000Y-63650000D03*
%TO.P,SW7,5,5*%
%TO.N,VCC*%
X55080000Y-51270000D03*
X55080000Y-68730000D03*
%TO.P,SW7,6,6*%
%TO.N,GND*%
X64920000Y-51270000D03*
X64920000Y-68730000D03*
%TO.P,SW7,7*%
%TO.N,N/C*%
X52540000Y-51270000D03*
X52540000Y-68730000D03*
%TD*%
%TO.P,SW3,1,1*%
%TO.N,Net-(SW13-Pad1)*%
X31270000Y-81110000D03*
D11*
X32190000Y-77460000D03*
D12*
X36190000Y-77460000D03*
D10*
X48730000Y-81110000D03*
D12*
%TO.P,SW3,2,2*%
%TO.N,Net-(SW1-Pad2)*%
X42540000Y-74920000D03*
D11*
X46540000Y-74920000D03*
D10*
X47460000Y-71270000D03*
X47460000Y-88730000D03*
%TO.P,SW3,3,3*%
%TO.N,Net-(D2-DOUT)*%
X31270000Y-83650000D03*
%TO.P,SW3,4,4*%
%TO.N,Net-(D3-DOUT)*%
X48730000Y-83650000D03*
%TO.P,SW3,5,5*%
%TO.N,VCC*%
X35080000Y-71270000D03*
X35080000Y-88730000D03*
%TO.P,SW3,6,6*%
%TO.N,GND*%
X44920000Y-71270000D03*
X44920000Y-88730000D03*
%TO.P,SW3,7*%
%TO.N,N/C*%
X32540000Y-71270000D03*
X32540000Y-88730000D03*
%TD*%
D13*
%TO.P,D16,1,VDD*%
%TO.N,VCC*%
X97550000Y-44850000D03*
%TO.P,D16,2,DOUT*%
%TO.N,Net-(D16-DOUT)*%
X97550000Y-48150000D03*
%TO.P,D16,3,VSS*%
%TO.N,GND*%
X102450000Y-48150000D03*
%TO.P,D16,4,DIN*%
%TO.N,Net-(D11-DOUT)*%
X102450000Y-44850000D03*
%TD*%
%TO.P,D2,1,VDD*%
%TO.N,VCC*%
X37550000Y-64850000D03*
%TO.P,D2,2,DOUT*%
%TO.N,Net-(D2-DOUT)*%
X37550000Y-68150000D03*
%TO.P,D2,3,VSS*%
%TO.N,GND*%
X42450000Y-68150000D03*
%TO.P,D2,4,DIN*%
%TO.N,Net-(D2-DIN)*%
X42450000Y-64850000D03*
%TD*%
%TO.P,D23,1,VDD*%
%TO.N,VCC*%
X117550000Y-84850000D03*
%TO.P,D23,2,DOUT*%
%TO.N,Net-(D23-DOUT)*%
X117550000Y-88150000D03*
%TO.P,D23,3,VSS*%
%TO.N,GND*%
X122450000Y-88150000D03*
%TO.P,D23,4,DIN*%
%TO.N,Net-(D18-DOUT)*%
X122450000Y-84850000D03*
%TD*%
D10*
%TO.P,SW11,1,1*%
%TO.N,Net-(SW1-Pad1)*%
X71270000Y-41110000D03*
D11*
X72190000Y-37460000D03*
D12*
X76190000Y-37460000D03*
D10*
X88730000Y-41110000D03*
D12*
%TO.P,SW11,2,2*%
%TO.N,Net-(SW11-Pad2)*%
X82540000Y-34920000D03*
D11*
X86540000Y-34920000D03*
D10*
X87460000Y-31270000D03*
X87460000Y-48730000D03*
%TO.P,SW11,3,3*%
%TO.N,Net-(D11-DIN)*%
X71270000Y-43650000D03*
%TO.P,SW11,4,4*%
%TO.N,Net-(D11-DOUT)*%
X88730000Y-43650000D03*
%TO.P,SW11,5,5*%
%TO.N,VCC*%
X75080000Y-31270000D03*
X75080000Y-48730000D03*
%TO.P,SW11,6,6*%
%TO.N,GND*%
X84920000Y-31270000D03*
X84920000Y-48730000D03*
%TO.P,SW11,7*%
%TO.N,N/C*%
X72540000Y-31270000D03*
X72540000Y-48730000D03*
%TD*%
%TO.P,SW20,1,1*%
%TO.N,Net-(SW10-Pad1)*%
X91270000Y-121110000D03*
D11*
X92190000Y-117460000D03*
D12*
X96190000Y-117460000D03*
D10*
X108730000Y-121110000D03*
D12*
%TO.P,SW20,2,2*%
%TO.N,Net-(SW16-Pad2)*%
X102540000Y-114920000D03*
D11*
X106540000Y-114920000D03*
D10*
X107460000Y-111270000D03*
X107460000Y-128730000D03*
%TO.P,SW20,3,3*%
%TO.N,Net-(D15-DOUT)*%
X91270000Y-123650000D03*
%TO.P,SW20,4,4*%
%TO.N,Net-(D20-DOUT)*%
X108730000Y-123650000D03*
%TO.P,SW20,5,5*%
%TO.N,VCC*%
X95080000Y-111270000D03*
X95080000Y-128730000D03*
%TO.P,SW20,6,6*%
%TO.N,GND*%
X104920000Y-111270000D03*
X104920000Y-128730000D03*
%TO.P,SW20,7*%
%TO.N,N/C*%
X92540000Y-111270000D03*
X92540000Y-128730000D03*
%TD*%
%TO.P,SW21,1,1*%
%TO.N,Net-(SW1-Pad1)*%
X111270000Y-41110000D03*
D11*
X112190000Y-37460000D03*
D12*
X116190000Y-37460000D03*
D10*
X128730000Y-41110000D03*
D12*
%TO.P,SW21,2,2*%
%TO.N,Net-(SW21-Pad2)*%
X122540000Y-34920000D03*
D11*
X126540000Y-34920000D03*
D10*
X127460000Y-31270000D03*
X127460000Y-48730000D03*
%TO.P,SW21,3,3*%
%TO.N,Net-(D16-DOUT)*%
X111270000Y-43650000D03*
%TO.P,SW21,4,4*%
%TO.N,Net-(D21-DOUT)*%
X128730000Y-43650000D03*
%TO.P,SW21,5,5*%
%TO.N,VCC*%
X115080000Y-31270000D03*
X115080000Y-48730000D03*
%TO.P,SW21,6,6*%
%TO.N,GND*%
X124920000Y-31270000D03*
X124920000Y-48730000D03*
%TO.P,SW21,7*%
%TO.N,N/C*%
X112540000Y-31270000D03*
X112540000Y-48730000D03*
%TD*%
%TO.P,SW2,1,1*%
%TO.N,Net-(SW12-Pad1)*%
X31270000Y-61110000D03*
D11*
X32190000Y-57460000D03*
D12*
X36190000Y-57460000D03*
D10*
X48730000Y-61110000D03*
D12*
%TO.P,SW2,2,2*%
%TO.N,Net-(SW1-Pad2)*%
X42540000Y-54920000D03*
D11*
X46540000Y-54920000D03*
D10*
X47460000Y-51270000D03*
X47460000Y-68730000D03*
%TO.P,SW2,3,3*%
%TO.N,Net-(D2-DOUT)*%
X31270000Y-63650000D03*
%TO.P,SW2,4,4*%
%TO.N,Net-(D2-DIN)*%
X48730000Y-63650000D03*
%TO.P,SW2,5,5*%
%TO.N,VCC*%
X35080000Y-51270000D03*
X35080000Y-68730000D03*
%TO.P,SW2,6,6*%
%TO.N,GND*%
X44920000Y-51270000D03*
X44920000Y-68730000D03*
%TO.P,SW2,7*%
%TO.N,N/C*%
X32540000Y-51270000D03*
X32540000Y-68730000D03*
%TD*%
%TO.P,SW6,1,1*%
%TO.N,Net-(SW1-Pad1)*%
X51270000Y-41110000D03*
D11*
X52190000Y-37460000D03*
D12*
X56190000Y-37460000D03*
D10*
X68730000Y-41110000D03*
D12*
%TO.P,SW6,2,2*%
%TO.N,Net-(SW10-Pad2)*%
X62540000Y-34920000D03*
D11*
X66540000Y-34920000D03*
D10*
X67460000Y-31270000D03*
X67460000Y-48730000D03*
%TO.P,SW6,3,3*%
%TO.N,Net-(D1-DOUT)*%
X51270000Y-43650000D03*
%TO.P,SW6,4,4*%
%TO.N,Net-(D11-DIN)*%
X68730000Y-43650000D03*
%TO.P,SW6,5,5*%
%TO.N,VCC*%
X55080000Y-31270000D03*
X55080000Y-48730000D03*
%TO.P,SW6,6,6*%
%TO.N,GND*%
X64920000Y-31270000D03*
X64920000Y-48730000D03*
%TO.P,SW6,7*%
%TO.N,N/C*%
X52540000Y-31270000D03*
X52540000Y-48730000D03*
%TD*%
%TO.P,SW9,1,1*%
%TO.N,Net-(SW14-Pad1)*%
X51270000Y-101110000D03*
D11*
X52190000Y-97460000D03*
D12*
X56190000Y-97460000D03*
D10*
X68730000Y-101110000D03*
D12*
%TO.P,SW9,2,2*%
%TO.N,Net-(SW10-Pad2)*%
X62540000Y-94920000D03*
D11*
X66540000Y-94920000D03*
D10*
X67460000Y-91270000D03*
X67460000Y-108730000D03*
%TO.P,SW9,3,3*%
%TO.N,Net-(D4-DIN)*%
X51270000Y-103650000D03*
%TO.P,SW9,4,4*%
%TO.N,Net-(D14-DOUT)*%
X68730000Y-103650000D03*
%TO.P,SW9,5,5*%
%TO.N,VCC*%
X55080000Y-91270000D03*
X55080000Y-108730000D03*
%TO.P,SW9,6,6*%
%TO.N,GND*%
X64920000Y-91270000D03*
X64920000Y-108730000D03*
%TO.P,SW9,7*%
%TO.N,N/C*%
X52540000Y-91270000D03*
X52540000Y-108730000D03*
%TD*%
%TO.P,SW13,1,1*%
%TO.N,Net-(SW13-Pad1)*%
X71270000Y-81110000D03*
D11*
X72190000Y-77460000D03*
D12*
X76190000Y-77460000D03*
D10*
X88730000Y-81110000D03*
D12*
%TO.P,SW13,2,2*%
%TO.N,Net-(SW11-Pad2)*%
X82540000Y-74920000D03*
D11*
X86540000Y-74920000D03*
D10*
X87460000Y-71270000D03*
X87460000Y-88730000D03*
%TO.P,SW13,3,3*%
%TO.N,Net-(D13-DIN)*%
X71270000Y-83650000D03*
%TO.P,SW13,4,4*%
%TO.N,Net-(D13-DOUT)*%
X88730000Y-83650000D03*
%TO.P,SW13,5,5*%
%TO.N,VCC*%
X75080000Y-71270000D03*
X75080000Y-88730000D03*
%TO.P,SW13,6,6*%
%TO.N,GND*%
X84920000Y-71270000D03*
X84920000Y-88730000D03*
%TO.P,SW13,7*%
%TO.N,N/C*%
X72540000Y-71270000D03*
X72540000Y-88730000D03*
%TD*%
%TO.P,SW14,1,1*%
%TO.N,Net-(SW14-Pad1)*%
X71270000Y-101110000D03*
D11*
X72190000Y-97460000D03*
D12*
X76190000Y-97460000D03*
D10*
X88730000Y-101110000D03*
D12*
%TO.P,SW14,2,2*%
%TO.N,Net-(SW11-Pad2)*%
X82540000Y-94920000D03*
D11*
X86540000Y-94920000D03*
D10*
X87460000Y-91270000D03*
X87460000Y-108730000D03*
%TO.P,SW14,3,3*%
%TO.N,Net-(D14-DOUT)*%
X71270000Y-103650000D03*
%TO.P,SW14,4,4*%
%TO.N,Net-(D14-DIN)*%
X88730000Y-103650000D03*
%TO.P,SW14,5,5*%
%TO.N,VCC*%
X75080000Y-91270000D03*
X75080000Y-108730000D03*
%TO.P,SW14,6,6*%
%TO.N,GND*%
X84920000Y-91270000D03*
X84920000Y-108730000D03*
%TO.P,SW14,7*%
%TO.N,N/C*%
X72540000Y-91270000D03*
X72540000Y-108730000D03*
%TD*%
%TO.P,SW19,1,1*%
%TO.N,Net-(SW14-Pad1)*%
X91270000Y-101110000D03*
D11*
X92190000Y-97460000D03*
D12*
X96190000Y-97460000D03*
D10*
X108730000Y-101110000D03*
D12*
%TO.P,SW19,2,2*%
%TO.N,Net-(SW16-Pad2)*%
X102540000Y-94920000D03*
D11*
X106540000Y-94920000D03*
D10*
X107460000Y-91270000D03*
X107460000Y-108730000D03*
%TO.P,SW19,3,3*%
%TO.N,Net-(D14-DIN)*%
X91270000Y-103650000D03*
%TO.P,SW19,4,4*%
%TO.N,Net-(D19-DIN)*%
X108730000Y-103650000D03*
%TO.P,SW19,5,5*%
%TO.N,VCC*%
X95080000Y-91270000D03*
X95080000Y-108730000D03*
%TO.P,SW19,6,6*%
%TO.N,GND*%
X104920000Y-91270000D03*
X104920000Y-108730000D03*
%TO.P,SW19,7*%
%TO.N,N/C*%
X92540000Y-91270000D03*
X92540000Y-108730000D03*
%TD*%
%TO.P,SW24,1,1*%
%TO.N,Net-(SW14-Pad1)*%
X111270000Y-101110000D03*
D11*
X112190000Y-97460000D03*
D12*
X116190000Y-97460000D03*
D10*
X128730000Y-101110000D03*
D12*
%TO.P,SW24,2,2*%
%TO.N,Net-(SW21-Pad2)*%
X122540000Y-94920000D03*
D11*
X126540000Y-94920000D03*
D10*
X127460000Y-91270000D03*
X127460000Y-108730000D03*
%TO.P,SW24,3,3*%
%TO.N,Net-(D19-DIN)*%
X111270000Y-103650000D03*
%TO.P,SW24,4,4*%
%TO.N,Net-(D23-DOUT)*%
X128730000Y-103650000D03*
%TO.P,SW24,5,5*%
%TO.N,VCC*%
X115080000Y-91270000D03*
X115080000Y-108730000D03*
%TO.P,SW24,6,6*%
%TO.N,GND*%
X124920000Y-91270000D03*
X124920000Y-108730000D03*
%TO.P,SW24,7*%
%TO.N,N/C*%
X112540000Y-91270000D03*
X112540000Y-108730000D03*
%TD*%
%TO.P,SW8,1,1*%
%TO.N,Net-(SW13-Pad1)*%
X51270000Y-81110000D03*
D11*
X52190000Y-77460000D03*
D12*
X56190000Y-77460000D03*
D10*
X68730000Y-81110000D03*
D12*
%TO.P,SW8,2,2*%
%TO.N,Net-(SW10-Pad2)*%
X62540000Y-74920000D03*
D11*
X66540000Y-74920000D03*
D10*
X67460000Y-71270000D03*
X67460000Y-88730000D03*
%TO.P,SW8,3,3*%
%TO.N,Net-(D3-DOUT)*%
X51270000Y-83650000D03*
%TO.P,SW8,4,4*%
%TO.N,Net-(D13-DIN)*%
X68730000Y-83650000D03*
%TO.P,SW8,5,5*%
%TO.N,VCC*%
X55080000Y-71270000D03*
X55080000Y-88730000D03*
%TO.P,SW8,6,6*%
%TO.N,GND*%
X64920000Y-71270000D03*
X64920000Y-88730000D03*
%TO.P,SW8,7*%
%TO.N,N/C*%
X52540000Y-71270000D03*
X52540000Y-88730000D03*
%TD*%
D14*
%TO.N,GND*%
X45720000Y-81280000D03*
X45720000Y-101600000D03*
X45500000Y-122500000D03*
X65500000Y-122500000D03*
X85500000Y-122500000D03*
X105500000Y-122000000D03*
X125500000Y-122500000D03*
X125500000Y-102000000D03*
X105500000Y-102500000D03*
X85500000Y-102500000D03*
X65500000Y-102500000D03*
X65500000Y-82500000D03*
X85500000Y-82500000D03*
X105500000Y-82500000D03*
X125500000Y-83000000D03*
X125500000Y-62000000D03*
X105500000Y-62000000D03*
X85500000Y-62000000D03*
X65500000Y-62000000D03*
X45500000Y-62500000D03*
X125500000Y-42500000D03*
X105500000Y-42500000D03*
X85500000Y-42000000D03*
X64000000Y-43180000D03*
X45633957Y-42366043D03*
%TD*%
D15*
%TO.N,VCC*%
X115080000Y-34420000D02*
X115080000Y-31270000D01*
X114500000Y-38914657D02*
X114500000Y-35000000D01*
X113914657Y-39500000D02*
X114500000Y-38914657D01*
X104067100Y-39500000D02*
X113914657Y-39500000D01*
X114500000Y-35000000D02*
X115080000Y-34420000D01*
X99033550Y-34466450D02*
X104067100Y-39500000D01*
X99033550Y-32533550D02*
X99033550Y-34466450D01*
X97770000Y-31270000D02*
X99033550Y-32533550D01*
X95080000Y-31270000D02*
X97770000Y-31270000D01*
%TO.N,GND*%
X125388351Y-42388351D02*
X125500000Y-42500000D01*
X105500000Y-42500000D02*
X105611649Y-42388351D01*
X105611649Y-42388351D02*
X125388351Y-42388351D01*
X105893908Y-122393908D02*
X105500000Y-122000000D01*
X125393908Y-122393908D02*
X105893908Y-122393908D01*
X125500000Y-122500000D02*
X125393908Y-122393908D01*
X85622041Y-122377959D02*
X85500000Y-122500000D01*
X105500000Y-122000000D02*
X105122041Y-122377959D01*
X105122041Y-122377959D02*
X85622041Y-122377959D01*
X65622041Y-122377959D02*
X65500000Y-122500000D01*
X85377959Y-122377959D02*
X65622041Y-122377959D01*
X85500000Y-122500000D02*
X85377959Y-122377959D01*
X45649880Y-122372161D02*
X45622041Y-122400000D01*
X65350120Y-122372161D02*
X45649880Y-122372161D01*
X65377959Y-122400000D02*
X65350120Y-122372161D01*
X46485996Y-102365996D02*
X45720000Y-101600000D01*
X65365996Y-102365996D02*
X46485996Y-102365996D01*
X65500000Y-102500000D02*
X65365996Y-102365996D01*
X85365996Y-102365996D02*
X85500000Y-102500000D01*
X65634004Y-102365996D02*
X85365996Y-102365996D01*
X65500000Y-102500000D02*
X65634004Y-102365996D01*
X105365996Y-102365996D02*
X105500000Y-102500000D01*
X85634004Y-102365996D02*
X105365996Y-102365996D01*
X85500000Y-102500000D02*
X85634004Y-102365996D01*
X125122041Y-102377959D02*
X125500000Y-102000000D01*
X105622041Y-102377959D02*
X125122041Y-102377959D01*
X105500000Y-102500000D02*
X105622041Y-102377959D01*
X105607661Y-82392339D02*
X105500000Y-82500000D01*
X125500000Y-83000000D02*
X124892339Y-82392339D01*
X124892339Y-82392339D02*
X105607661Y-82392339D01*
X85619624Y-82380376D02*
X85500000Y-82500000D01*
X105380376Y-82380376D02*
X85619624Y-82380376D01*
X105500000Y-82500000D02*
X105380376Y-82380376D01*
X85380376Y-82380376D02*
X65619624Y-82380376D01*
X85500000Y-82500000D02*
X85380376Y-82380376D01*
X65619624Y-82380376D02*
X65500000Y-82500000D01*
X46801768Y-82361768D02*
X45720000Y-81280000D01*
X65361768Y-82361768D02*
X46801768Y-82361768D01*
X65500000Y-82500000D02*
X65361768Y-82361768D01*
X65122763Y-62377237D02*
X65500000Y-62000000D01*
X45622763Y-62377237D02*
X65122763Y-62377237D01*
X45500000Y-62500000D02*
X45622763Y-62377237D01*
X65883035Y-62383035D02*
X85116965Y-62383035D01*
X65500000Y-62000000D02*
X65883035Y-62383035D01*
X85116965Y-62383035D02*
X85500000Y-62000000D01*
X105122282Y-62377718D02*
X105500000Y-62000000D01*
X85877718Y-62377718D02*
X105122282Y-62377718D01*
X85500000Y-62000000D02*
X85877718Y-62377718D01*
X125124459Y-62375541D02*
X125500000Y-62000000D01*
X105875541Y-62375541D02*
X125124459Y-62375541D01*
X105500000Y-62000000D02*
X105875541Y-62375541D01*
X105392339Y-42392339D02*
X105500000Y-42500000D01*
X85892339Y-42392339D02*
X105392339Y-42392339D01*
X85500000Y-42000000D02*
X85892339Y-42392339D01*
X66754687Y-42365313D02*
X85134687Y-42365313D01*
X85134687Y-42365313D02*
X85500000Y-42000000D01*
X65940000Y-43180000D02*
X66754687Y-42365313D01*
X64000000Y-43180000D02*
X65940000Y-43180000D01*
X53340000Y-42366043D02*
X45633957Y-42366043D01*
X54153957Y-43180000D02*
X53340000Y-42366043D01*
X64000000Y-43180000D02*
X54153957Y-43180000D01*
%TO.N,VCC*%
X54500000Y-39000000D02*
X54500000Y-35500000D01*
X44000000Y-39500000D02*
X54000000Y-39500000D01*
X54000000Y-39500000D02*
X54500000Y-39000000D01*
X38500000Y-34000000D02*
X44000000Y-39500000D01*
X37810000Y-34000000D02*
X38500000Y-34000000D01*
X55080000Y-34920000D02*
X55080000Y-31270000D01*
X35080000Y-31270000D02*
X37810000Y-34000000D01*
X54500000Y-35500000D02*
X55080000Y-34920000D01*
%TO.N,Net-(D1-DIN)*%
X41250000Y-43650000D02*
X31270000Y-43650000D01*
X42450000Y-44850000D02*
X41250000Y-43650000D01*
%TO.N,Net-(SW1-Pad1)*%
X45610000Y-41110000D02*
X48730000Y-41110000D01*
X43720000Y-43000000D02*
X45610000Y-41110000D01*
X31270000Y-41110000D02*
X33160000Y-43000000D01*
X33160000Y-43000000D02*
X43720000Y-43000000D01*
%TO.N,Net-(D16-DOUT)*%
X99700000Y-46000000D02*
X97550000Y-48150000D01*
X106380000Y-46000000D02*
X99700000Y-46000000D01*
X108730000Y-43650000D02*
X106380000Y-46000000D01*
%TO.N,Net-(SW16-Pad2)*%
X102024548Y-47000000D02*
X100000000Y-49024548D01*
X100000000Y-49024548D02*
X100000000Y-52380000D01*
X105730000Y-47000000D02*
X102024548Y-47000000D01*
X100000000Y-52380000D02*
X102540000Y-54920000D01*
X107460000Y-48730000D02*
X105730000Y-47000000D01*
%TO.N,VCC*%
X115080000Y-55420000D02*
X115080000Y-51270000D01*
X113500000Y-59500000D02*
X114500000Y-58500000D01*
X110530368Y-59500000D02*
X113500000Y-59500000D01*
X114500000Y-56000000D02*
X115080000Y-55420000D01*
X108030368Y-57000000D02*
X110530368Y-59500000D01*
X95080000Y-51270000D02*
X100810000Y-57000000D01*
X100810000Y-57000000D02*
X108030368Y-57000000D01*
X114500000Y-58500000D02*
X114500000Y-56000000D01*
X94500000Y-31850000D02*
X95080000Y-31270000D01*
X94500000Y-38319264D02*
X94500000Y-31850000D01*
X87687100Y-39500000D02*
X93319264Y-39500000D01*
X80869000Y-37059000D02*
X85246100Y-37059000D01*
X78905000Y-35095000D02*
X80869000Y-37059000D01*
X78905000Y-32405000D02*
X78905000Y-35095000D01*
X77770000Y-31270000D02*
X78905000Y-32405000D01*
X85246100Y-37059000D02*
X87687100Y-39500000D01*
X75080000Y-31270000D02*
X77770000Y-31270000D01*
X93319264Y-39500000D02*
X94500000Y-38319264D01*
X58500000Y-32000000D02*
X58500000Y-34059000D01*
X57770000Y-31270000D02*
X58500000Y-32000000D01*
X55080000Y-31270000D02*
X57770000Y-31270000D01*
X58500000Y-34059000D02*
X61500000Y-37059000D01*
%TO.N,Net-(SW1-Pad1)*%
X64720057Y-41110000D02*
X68730000Y-41110000D01*
X57525028Y-42755028D02*
X63075029Y-42755028D01*
X63075029Y-42755028D02*
X64720057Y-41110000D01*
X55880000Y-41110000D02*
X57525028Y-42755028D01*
X51270000Y-41110000D02*
X55880000Y-41110000D01*
%TO.N,GND*%
X45622041Y-122377959D02*
X45500000Y-122500000D01*
X65500000Y-122500000D02*
X65377959Y-122377959D01*
%TO.N,Net-(D1-DOUT)*%
X44000000Y-46000000D02*
X46350000Y-43650000D01*
X46350000Y-43650000D02*
X48730000Y-43650000D01*
X39700000Y-46000000D02*
X44000000Y-46000000D01*
X37550000Y-48150000D02*
X39700000Y-46000000D01*
%TO.N,Net-(D2-DOUT)*%
X34000000Y-80920000D02*
X31270000Y-83650000D01*
X34000000Y-75040722D02*
X34000000Y-80920000D01*
X37550000Y-68150000D02*
X37550000Y-71490722D01*
X37550000Y-71490722D02*
X34000000Y-75040722D01*
%TO.N,VCC*%
X74789000Y-38211000D02*
X74789000Y-31561000D01*
X73739000Y-39261000D02*
X74789000Y-38211000D01*
X70821736Y-39261000D02*
X73739000Y-39261000D01*
X68619736Y-37059000D02*
X70821736Y-39261000D01*
X74789000Y-31561000D02*
X75080000Y-31270000D01*
X61500000Y-37059000D02*
X68619736Y-37059000D01*
%TO.N,Net-(SW21-Pad2)*%
X120000000Y-112380000D02*
X122540000Y-114920000D01*
X120000000Y-108500000D02*
X120000000Y-112380000D01*
X125230000Y-106500000D02*
X122000000Y-106500000D01*
X122000000Y-106500000D02*
X120000000Y-108500000D01*
X127460000Y-108730000D02*
X125230000Y-106500000D01*
%TO.N,Net-(SW16-Pad2)*%
X100500000Y-112880000D02*
X102540000Y-114920000D01*
X102000000Y-106500000D02*
X100500000Y-108000000D01*
X105230000Y-106500000D02*
X102000000Y-106500000D01*
X100500000Y-108000000D02*
X100500000Y-112880000D01*
X107460000Y-108730000D02*
X105230000Y-106500000D01*
%TO.N,Net-(SW11-Pad2)*%
X80500000Y-112880000D02*
X82540000Y-114920000D01*
X82000000Y-106500000D02*
X80500000Y-108000000D01*
X85230000Y-106500000D02*
X82000000Y-106500000D01*
X87460000Y-108730000D02*
X85230000Y-106500000D01*
X80500000Y-108000000D02*
X80500000Y-112880000D01*
X80500000Y-92880000D02*
X82540000Y-94920000D01*
X80500000Y-88500000D02*
X80500000Y-92880000D01*
X81601000Y-87399000D02*
X80500000Y-88500000D01*
X86129000Y-87399000D02*
X81601000Y-87399000D01*
X87460000Y-88730000D02*
X86129000Y-87399000D01*
%TO.N,Net-(SW16-Pad2)*%
X101000000Y-88000000D02*
X101000000Y-93380000D01*
X102000000Y-87000000D02*
X101000000Y-88000000D01*
X105730000Y-87000000D02*
X102000000Y-87000000D01*
X101000000Y-93380000D02*
X102540000Y-94920000D01*
X107460000Y-88730000D02*
X105730000Y-87000000D01*
%TO.N,Net-(SW21-Pad2)*%
X125730000Y-87000000D02*
X121500000Y-87000000D01*
X120500000Y-92880000D02*
X122540000Y-94920000D01*
X127460000Y-88730000D02*
X125730000Y-87000000D01*
X121500000Y-87000000D02*
X120500000Y-88000000D01*
X120500000Y-88000000D02*
X120500000Y-92880000D01*
X120500000Y-72880000D02*
X122540000Y-74920000D01*
X120500000Y-68000000D02*
X120500000Y-72880000D01*
X122000000Y-66500000D02*
X120500000Y-68000000D01*
X127460000Y-68730000D02*
X125230000Y-66500000D01*
X125230000Y-66500000D02*
X122000000Y-66500000D01*
%TO.N,Net-(SW16-Pad2)*%
X100500000Y-72880000D02*
X102540000Y-74920000D01*
X101500000Y-67000000D02*
X100500000Y-68000000D01*
X100500000Y-68000000D02*
X100500000Y-72880000D01*
X107460000Y-68730000D02*
X105730000Y-67000000D01*
X105730000Y-67000000D02*
X101500000Y-67000000D01*
%TO.N,Net-(SW11-Pad2)*%
X80000000Y-68000000D02*
X80000000Y-72380000D01*
X81000000Y-67000000D02*
X80000000Y-68000000D01*
X80000000Y-72380000D02*
X82540000Y-74920000D01*
X85730000Y-67000000D02*
X81000000Y-67000000D01*
X87460000Y-68730000D02*
X85730000Y-67000000D01*
X80500000Y-48524548D02*
X80500000Y-52880000D01*
X81625548Y-47399000D02*
X80500000Y-48524548D01*
X86129000Y-47399000D02*
X81625548Y-47399000D01*
X80500000Y-52880000D02*
X82540000Y-54920000D01*
X87460000Y-48730000D02*
X86129000Y-47399000D01*
%TO.N,Net-(SW21-Pad2)*%
X120000000Y-48000000D02*
X120000000Y-52380000D01*
X125730000Y-47000000D02*
X121000000Y-47000000D01*
X120000000Y-52380000D02*
X122540000Y-54920000D01*
X127460000Y-48730000D02*
X125730000Y-47000000D01*
X121000000Y-47000000D02*
X120000000Y-48000000D01*
%TO.N,VCC*%
X38700000Y-86000000D02*
X37550000Y-84850000D01*
X44000000Y-86000000D02*
X38700000Y-86000000D01*
X44500000Y-85500000D02*
X44000000Y-86000000D01*
X44500000Y-84000000D02*
X44500000Y-85500000D01*
X43500000Y-83000000D02*
X44500000Y-84000000D01*
X34500000Y-76500000D02*
X34500000Y-78500000D01*
X35500000Y-75500000D02*
X34500000Y-76500000D01*
X44771736Y-76321000D02*
X39821000Y-76321000D01*
X47711736Y-79261000D02*
X44771736Y-76321000D01*
X54500000Y-78319264D02*
X53558264Y-79261000D01*
X34500000Y-78500000D02*
X39000000Y-83000000D01*
X39000000Y-75500000D02*
X35500000Y-75500000D01*
X54500000Y-71850000D02*
X54500000Y-78319264D01*
X55080000Y-71270000D02*
X54500000Y-71850000D01*
X53558264Y-79261000D02*
X47711736Y-79261000D01*
X39000000Y-83000000D02*
X43500000Y-83000000D01*
X39821000Y-76321000D02*
X39000000Y-75500000D01*
X37550000Y-124850000D02*
X37550000Y-125499000D01*
X38000000Y-125949000D02*
X44551000Y-125949000D01*
X37550000Y-125499000D02*
X38000000Y-125949000D01*
%TO.N,Net-(D10-DIN)*%
X45880000Y-126500000D02*
X48730000Y-123650000D01*
X39200000Y-126500000D02*
X45880000Y-126500000D01*
X37550000Y-128150000D02*
X39200000Y-126500000D01*
%TO.N,VCC*%
X54789000Y-111561000D02*
X55080000Y-111270000D01*
X53568314Y-119261000D02*
X54789000Y-118040314D01*
X50821736Y-119261000D02*
X53568314Y-119261000D01*
X48619736Y-117059000D02*
X50821736Y-119261000D01*
X39559000Y-117059000D02*
X48619736Y-117059000D01*
X54789000Y-118040314D02*
X54789000Y-111561000D01*
X38000000Y-115500000D02*
X39559000Y-117059000D01*
X35500000Y-115500000D02*
X38000000Y-115500000D01*
X34500000Y-116500000D02*
X35500000Y-115500000D01*
X34500000Y-119500000D02*
X34500000Y-116500000D01*
X38000000Y-123000000D02*
X34500000Y-119500000D01*
X44500000Y-123000000D02*
X38000000Y-123000000D01*
X45000000Y-125500000D02*
X45000000Y-123500000D01*
X44551000Y-125949000D02*
X45000000Y-125500000D01*
X45000000Y-123500000D02*
X44500000Y-123000000D01*
%TO.N,Net-(D3-DOUT)*%
X45880000Y-86500000D02*
X48730000Y-83650000D01*
X39200000Y-86500000D02*
X45880000Y-86500000D01*
X37550000Y-88150000D02*
X39200000Y-86500000D01*
%TO.N,Net-(D4-DOUT)*%
X34099000Y-120821000D02*
X31270000Y-123650000D01*
X34099000Y-115401000D02*
X34099000Y-120821000D01*
X37550000Y-111950000D02*
X34099000Y-115401000D01*
X37550000Y-108150000D02*
X37550000Y-111950000D01*
%TO.N,VCC*%
X73558264Y-119261000D02*
X74500000Y-118319264D01*
X74500000Y-118319264D02*
X74500000Y-111850000D01*
X68281736Y-116721000D02*
X70821736Y-119261000D01*
X70821736Y-119261000D02*
X73558264Y-119261000D01*
X60531000Y-116721000D02*
X68281736Y-116721000D01*
X74500000Y-111850000D02*
X75080000Y-111270000D01*
X55080000Y-111270000D02*
X60531000Y-116721000D01*
X93558264Y-119261000D02*
X94789000Y-118030264D01*
X94789000Y-111561000D02*
X95080000Y-111270000D01*
X88619736Y-117059000D02*
X90821736Y-119261000D01*
X90821736Y-119261000D02*
X93558264Y-119261000D01*
X94789000Y-118030264D02*
X94789000Y-111561000D01*
X80869000Y-117059000D02*
X88619736Y-117059000D01*
X75080000Y-111270000D02*
X80869000Y-117059000D01*
X114789000Y-111561000D02*
X115080000Y-111270000D01*
X110821736Y-119261000D02*
X113558264Y-119261000D01*
X108619736Y-117059000D02*
X110821736Y-119261000D01*
X113558264Y-119261000D02*
X114789000Y-118030264D01*
X114789000Y-118030264D02*
X114789000Y-111561000D01*
X100869000Y-117059000D02*
X108619736Y-117059000D01*
X95080000Y-111270000D02*
X100869000Y-117059000D01*
X114789000Y-98030264D02*
X114789000Y-91561000D01*
X110821736Y-99261000D02*
X113558264Y-99261000D01*
X114789000Y-91561000D02*
X115080000Y-91270000D01*
X108281736Y-96721000D02*
X110821736Y-99261000D01*
X113558264Y-99261000D02*
X114789000Y-98030264D01*
X95080000Y-91270000D02*
X100531000Y-96721000D01*
X100531000Y-96721000D02*
X108281736Y-96721000D01*
X94789000Y-98030264D02*
X94789000Y-91561000D01*
X93558264Y-99261000D02*
X94789000Y-98030264D01*
X90821736Y-99261000D02*
X93558264Y-99261000D01*
X88619736Y-97059000D02*
X90821736Y-99261000D01*
X94789000Y-91561000D02*
X95080000Y-91270000D01*
X80869000Y-97059000D02*
X88619736Y-97059000D01*
X75080000Y-91270000D02*
X80869000Y-97059000D01*
%TO.N,Net-(SW14-Pad1)*%
X105080000Y-97460000D02*
X108730000Y-101110000D01*
X96190000Y-97460000D02*
X105080000Y-97460000D01*
%TO.N,VCC*%
X70821736Y-99261000D02*
X73558264Y-99261000D01*
X74789000Y-98030264D02*
X74789000Y-91561000D01*
X68281736Y-96721000D02*
X70821736Y-99261000D01*
X73558264Y-99261000D02*
X74789000Y-98030264D01*
X60531000Y-96721000D02*
X68281736Y-96721000D01*
X74789000Y-91561000D02*
X75080000Y-91270000D01*
X55080000Y-91270000D02*
X60531000Y-96721000D01*
X54789000Y-98030264D02*
X54789000Y-91561000D01*
X53558264Y-99261000D02*
X54789000Y-98030264D01*
X48281736Y-96721000D02*
X50821736Y-99261000D01*
X50821736Y-99261000D02*
X53558264Y-99261000D01*
X54789000Y-91561000D02*
X55080000Y-91270000D01*
X35080000Y-91270000D02*
X40531000Y-96721000D01*
X40531000Y-96721000D02*
X48281736Y-96721000D01*
X73558264Y-79261000D02*
X74789000Y-78030264D01*
X68619736Y-77059000D02*
X70821736Y-79261000D01*
X74789000Y-78030264D02*
X74789000Y-71561000D01*
X60869000Y-77059000D02*
X68619736Y-77059000D01*
X70821736Y-79261000D02*
X73558264Y-79261000D01*
X55080000Y-71270000D02*
X60869000Y-77059000D01*
X74789000Y-71561000D02*
X75080000Y-71270000D01*
X94789000Y-71561000D02*
X95080000Y-71270000D01*
X93558264Y-79261000D02*
X94789000Y-78030264D01*
X94789000Y-78030264D02*
X94789000Y-71561000D01*
X88619736Y-77059000D02*
X90821736Y-79261000D01*
X80869000Y-77059000D02*
X88619736Y-77059000D01*
X90821736Y-79261000D02*
X93558264Y-79261000D01*
X75080000Y-71270000D02*
X80869000Y-77059000D01*
X114789000Y-71561000D02*
X115080000Y-71270000D01*
X113558264Y-79261000D02*
X114789000Y-78030264D01*
X110821736Y-79261000D02*
X113558264Y-79261000D01*
X114789000Y-78030264D02*
X114789000Y-71561000D01*
X108281736Y-76721000D02*
X110821736Y-79261000D01*
X100531000Y-76721000D02*
X108281736Y-76721000D01*
X95080000Y-71270000D02*
X100531000Y-76721000D01*
X94500000Y-58319264D02*
X94500000Y-51850000D01*
X93558264Y-59261000D02*
X94500000Y-58319264D01*
X94500000Y-51850000D02*
X95080000Y-51270000D01*
X88619736Y-57059000D02*
X90821736Y-59261000D01*
X90821736Y-59261000D02*
X93558264Y-59261000D01*
X80869000Y-57059000D02*
X88619736Y-57059000D01*
X75080000Y-51270000D02*
X80869000Y-57059000D01*
X73568314Y-59261000D02*
X74230000Y-58599314D01*
X74230000Y-58599314D02*
X74230000Y-52120000D01*
X70821736Y-59261000D02*
X73568314Y-59261000D01*
X74230000Y-52120000D02*
X75080000Y-51270000D01*
X60869000Y-57059000D02*
X68619736Y-57059000D01*
X68619736Y-57059000D02*
X70821736Y-59261000D01*
X55080000Y-51270000D02*
X60869000Y-57059000D01*
X54789000Y-58040314D02*
X54789000Y-51561000D01*
X53329314Y-59500000D02*
X54789000Y-58040314D01*
X51060736Y-59500000D02*
X53329314Y-59500000D01*
X48281736Y-56721000D02*
X51060736Y-59500000D01*
X40531000Y-56721000D02*
X48281736Y-56721000D01*
X35080000Y-51270000D02*
X40531000Y-56721000D01*
X54789000Y-51561000D02*
X55080000Y-51270000D01*
%TO.N,Net-(SW1-Pad1)*%
X101460000Y-37460000D02*
X96190000Y-37460000D01*
X105110000Y-41110000D02*
X101460000Y-37460000D01*
X108730000Y-41110000D02*
X105110000Y-41110000D01*
%TO.N,GND*%
X104340000Y-128150000D02*
X104920000Y-128730000D01*
X102450000Y-128150000D02*
X104340000Y-128150000D01*
X104340000Y-108150000D02*
X104920000Y-108730000D01*
X102450000Y-108150000D02*
X104340000Y-108150000D01*
X104340000Y-88150000D02*
X104920000Y-88730000D01*
X102450000Y-88150000D02*
X104340000Y-88150000D01*
X104340000Y-68150000D02*
X104920000Y-68730000D01*
X102450000Y-68150000D02*
X104340000Y-68150000D01*
X102450000Y-48150000D02*
X104340000Y-48150000D01*
X104340000Y-48150000D02*
X104920000Y-48730000D01*
X124340000Y-48150000D02*
X124920000Y-48730000D01*
X122450000Y-48150000D02*
X124340000Y-48150000D01*
X124340000Y-68150000D02*
X124920000Y-68730000D01*
X122450000Y-68150000D02*
X124340000Y-68150000D01*
X124340000Y-88150000D02*
X124920000Y-88730000D01*
X122450000Y-88150000D02*
X124340000Y-88150000D01*
X122450000Y-108150000D02*
X124340000Y-108150000D01*
X124340000Y-108150000D02*
X124920000Y-108730000D01*
X124340000Y-128150000D02*
X124920000Y-128730000D01*
X122450000Y-128150000D02*
X124340000Y-128150000D01*
%TO.N,VCC*%
X115080000Y-125420000D02*
X115650000Y-124850000D01*
X115650000Y-124850000D02*
X117550000Y-124850000D01*
X115080000Y-128730000D02*
X115080000Y-125420000D01*
X115650000Y-104850000D02*
X117550000Y-104850000D01*
X115080000Y-105420000D02*
X115650000Y-104850000D01*
X115080000Y-108730000D02*
X115080000Y-105420000D01*
X115650000Y-84850000D02*
X117550000Y-84850000D01*
X115080000Y-85420000D02*
X115650000Y-84850000D01*
X115080000Y-88730000D02*
X115080000Y-85420000D01*
X115650000Y-64850000D02*
X117550000Y-64850000D01*
X115080000Y-65420000D02*
X115650000Y-64850000D01*
X115080000Y-68730000D02*
X115080000Y-65420000D01*
X115080000Y-45920000D02*
X116150000Y-44850000D01*
X116150000Y-44850000D02*
X117550000Y-44850000D01*
X115080000Y-48730000D02*
X115080000Y-45920000D01*
X95650000Y-44850000D02*
X97550000Y-44850000D01*
X95080000Y-45420000D02*
X95650000Y-44850000D01*
X95080000Y-48730000D02*
X95080000Y-45420000D01*
X95650000Y-64850000D02*
X97550000Y-64850000D01*
X95080000Y-68730000D02*
X95080000Y-65420000D01*
X95080000Y-65420000D02*
X95650000Y-64850000D01*
X95080000Y-85420000D02*
X95650000Y-84850000D01*
X95650000Y-84850000D02*
X97550000Y-84850000D01*
X95080000Y-88730000D02*
X95080000Y-85420000D01*
X95650000Y-104850000D02*
X97550000Y-104850000D01*
X95080000Y-105420000D02*
X95650000Y-104850000D01*
X95080000Y-108730000D02*
X95080000Y-105420000D01*
X95650000Y-124850000D02*
X97550000Y-124850000D01*
X95080000Y-125420000D02*
X95650000Y-124850000D01*
X95080000Y-128730000D02*
X95080000Y-125420000D01*
X75650000Y-124850000D02*
X77550000Y-124850000D01*
X75080000Y-125420000D02*
X75650000Y-124850000D01*
X75080000Y-128730000D02*
X75080000Y-125420000D01*
X75650000Y-104850000D02*
X77550000Y-104850000D01*
X75080000Y-108730000D02*
X75080000Y-105420000D01*
X75080000Y-105420000D02*
X75650000Y-104850000D01*
X75080000Y-85920000D02*
X76150000Y-84850000D01*
X75080000Y-88730000D02*
X75080000Y-85920000D01*
X76150000Y-84850000D02*
X77550000Y-84850000D01*
X75650000Y-64850000D02*
X77550000Y-64850000D01*
X75080000Y-65420000D02*
X75650000Y-64850000D01*
X75080000Y-68730000D02*
X75080000Y-65420000D01*
X76150000Y-44850000D02*
X77550000Y-44850000D01*
X75080000Y-45920000D02*
X76150000Y-44850000D01*
X75080000Y-48730000D02*
X75080000Y-45920000D01*
%TO.N,GND*%
X84340000Y-48150000D02*
X84920000Y-48730000D01*
X82450000Y-48150000D02*
X84340000Y-48150000D01*
X82450000Y-68150000D02*
X84340000Y-68150000D01*
X84340000Y-68150000D02*
X84920000Y-68730000D01*
X84340000Y-88150000D02*
X84920000Y-88730000D01*
X82450000Y-88150000D02*
X84340000Y-88150000D01*
X84340000Y-108150000D02*
X84920000Y-108730000D01*
X82450000Y-108150000D02*
X84340000Y-108150000D01*
X84340000Y-128150000D02*
X84920000Y-128730000D01*
X82450000Y-128150000D02*
X84340000Y-128150000D01*
X64340000Y-88150000D02*
X64920000Y-88730000D01*
X62450000Y-88150000D02*
X64340000Y-88150000D01*
%TO.N,VCC*%
X55650000Y-44850000D02*
X57550000Y-44850000D01*
X55080000Y-45420000D02*
X55650000Y-44850000D01*
X55080000Y-48730000D02*
X55080000Y-45420000D01*
X55080000Y-65420000D02*
X55650000Y-64850000D01*
X55080000Y-68730000D02*
X55080000Y-65420000D01*
X55650000Y-64850000D02*
X57550000Y-64850000D01*
X56650000Y-84850000D02*
X57550000Y-84850000D01*
X55080000Y-86420000D02*
X56650000Y-84850000D01*
X55080000Y-88730000D02*
X55080000Y-86420000D01*
X56150000Y-104850000D02*
X57550000Y-104850000D01*
X55080000Y-108730000D02*
X55080000Y-105920000D01*
X55080000Y-105920000D02*
X56150000Y-104850000D01*
X56150000Y-124850000D02*
X57550000Y-124850000D01*
X55080000Y-125920000D02*
X56150000Y-124850000D01*
X55080000Y-128730000D02*
X55080000Y-125920000D01*
X35080000Y-125580000D02*
X35080000Y-128730000D01*
X37550000Y-124850000D02*
X35810000Y-124850000D01*
X35810000Y-124850000D02*
X35080000Y-125580000D01*
%TO.N,GND*%
X64340000Y-128150000D02*
X64920000Y-128730000D01*
X62450000Y-128150000D02*
X64340000Y-128150000D01*
X64340000Y-108150000D02*
X64920000Y-108730000D01*
X62450000Y-108150000D02*
X64340000Y-108150000D01*
%TO.N,Net-(SW10-Pad2)*%
X60500000Y-107500000D02*
X60500000Y-112880000D01*
X60500000Y-112880000D02*
X62540000Y-114920000D01*
X61000000Y-107000000D02*
X60500000Y-107500000D01*
X65730000Y-107000000D02*
X61000000Y-107000000D01*
X67460000Y-108730000D02*
X65730000Y-107000000D01*
X61000000Y-87500000D02*
X61000000Y-93380000D01*
X61500000Y-87000000D02*
X61000000Y-87500000D01*
X61000000Y-93380000D02*
X62540000Y-94920000D01*
X65730000Y-87000000D02*
X61500000Y-87000000D01*
X67460000Y-88730000D02*
X65730000Y-87000000D01*
%TO.N,GND*%
X64340000Y-68150000D02*
X64920000Y-68730000D01*
X62450000Y-68150000D02*
X64340000Y-68150000D01*
%TO.N,Net-(SW10-Pad2)*%
X60500000Y-72880000D02*
X62540000Y-74920000D01*
X60500000Y-67500000D02*
X60500000Y-72880000D01*
X61500000Y-66500000D02*
X60500000Y-67500000D01*
X65230000Y-66500000D02*
X61500000Y-66500000D01*
X67460000Y-68730000D02*
X65230000Y-66500000D01*
X60500000Y-48000000D02*
X60500000Y-52880000D01*
X61101000Y-47399000D02*
X60500000Y-48000000D01*
X66129000Y-47399000D02*
X61101000Y-47399000D01*
X67460000Y-48730000D02*
X66129000Y-47399000D01*
X60500000Y-52880000D02*
X62540000Y-54920000D01*
%TO.N,GND*%
X64340000Y-48150000D02*
X64920000Y-48730000D01*
X62450000Y-48150000D02*
X64340000Y-48150000D01*
%TO.N,VCC*%
X35080000Y-106190000D02*
X35385000Y-105885000D01*
X35080000Y-108730000D02*
X35080000Y-106190000D01*
X35385000Y-105885000D02*
X36420000Y-104850000D01*
%TO.N,Net-(SW1-Pad2)*%
X40000000Y-112380000D02*
X42540000Y-114920000D01*
X40000000Y-107500000D02*
X40000000Y-112380000D01*
X45230000Y-106500000D02*
X41000000Y-106500000D01*
X41000000Y-106500000D02*
X40000000Y-107500000D01*
X47460000Y-108730000D02*
X45230000Y-106500000D01*
X40000000Y-88000000D02*
X40000000Y-92380000D01*
X41000000Y-87000000D02*
X40000000Y-88000000D01*
X40000000Y-92380000D02*
X42540000Y-94920000D01*
X45730000Y-87000000D02*
X41000000Y-87000000D01*
X47460000Y-88730000D02*
X45730000Y-87000000D01*
%TO.N,GND*%
X44340000Y-88150000D02*
X44920000Y-88730000D01*
X42450000Y-88150000D02*
X44340000Y-88150000D01*
X44340000Y-108150000D02*
X44920000Y-108730000D01*
X42450000Y-108150000D02*
X44340000Y-108150000D01*
X44340000Y-128150000D02*
X44920000Y-128730000D01*
X42450000Y-128150000D02*
X44340000Y-128150000D01*
%TO.N,Net-(SW1-Pad2)*%
X41000000Y-67000000D02*
X40000000Y-68000000D01*
X40000000Y-68000000D02*
X40000000Y-72380000D01*
X45730000Y-67000000D02*
X41000000Y-67000000D01*
X40000000Y-72380000D02*
X42540000Y-74920000D01*
X47460000Y-68730000D02*
X45730000Y-67000000D01*
%TO.N,GND*%
X44340000Y-68150000D02*
X44920000Y-68730000D01*
X42450000Y-68150000D02*
X44340000Y-68150000D01*
X44340000Y-48150000D02*
X44920000Y-48730000D01*
X42450000Y-48150000D02*
X44340000Y-48150000D01*
%TO.N,Net-(SW1-Pad2)*%
X41500000Y-47000000D02*
X40500000Y-48000000D01*
X40500000Y-52880000D02*
X42540000Y-54920000D01*
X40500000Y-48000000D02*
X40500000Y-52880000D01*
X45730000Y-47000000D02*
X41500000Y-47000000D01*
X47460000Y-48730000D02*
X45730000Y-47000000D01*
%TO.N,VCC*%
X36150000Y-44850000D02*
X37550000Y-44850000D01*
X35080000Y-45920000D02*
X36150000Y-44850000D01*
X35080000Y-48730000D02*
X35080000Y-45920000D01*
X35080000Y-65920000D02*
X36150000Y-64850000D01*
X36150000Y-64850000D02*
X37550000Y-64850000D01*
X35080000Y-68730000D02*
X35080000Y-65920000D01*
%TO.N,Net-(D23-DOUT)*%
X127530000Y-104850000D02*
X122450000Y-104850000D01*
X128730000Y-103650000D02*
X127530000Y-104850000D01*
X125880000Y-86500000D02*
X128730000Y-83650000D01*
X117550000Y-88150000D02*
X119200000Y-86500000D01*
X119200000Y-86500000D02*
X125880000Y-86500000D01*
%TO.N,Net-(D19-DIN)*%
X119966450Y-105733550D02*
X117550000Y-108150000D01*
X119966450Y-104533550D02*
X119966450Y-105733550D01*
X119082900Y-103650000D02*
X119966450Y-104533550D01*
X111270000Y-103650000D02*
X119082900Y-103650000D01*
%TO.N,Net-(D14-DIN)*%
X100000000Y-105700000D02*
X97550000Y-108150000D01*
X99650000Y-103650000D02*
X100000000Y-104000000D01*
X100000000Y-104000000D02*
X100000000Y-105700000D01*
X91270000Y-103650000D02*
X99650000Y-103650000D01*
%TO.N,Net-(D14-DOUT)*%
X80000000Y-105700000D02*
X77550000Y-108150000D01*
X79650000Y-103650000D02*
X80000000Y-104000000D01*
X80000000Y-104000000D02*
X80000000Y-105700000D01*
X71270000Y-103650000D02*
X79650000Y-103650000D01*
%TO.N,Net-(D4-DIN)*%
X60000000Y-105700000D02*
X57550000Y-108150000D01*
X59650000Y-103650000D02*
X60000000Y-104000000D01*
X60000000Y-104000000D02*
X60000000Y-105700000D01*
X51270000Y-103650000D02*
X59650000Y-103650000D01*
%TO.N,VCC*%
X36420000Y-104850000D02*
X37550000Y-104850000D01*
%TO.N,Net-(D4-DOUT)*%
X40000000Y-105700000D02*
X37550000Y-108150000D01*
X40000000Y-104000000D02*
X40000000Y-105700000D01*
X39650000Y-103650000D02*
X40000000Y-104000000D01*
X31270000Y-103650000D02*
X39650000Y-103650000D01*
%TO.N,Net-(D17-DIN)*%
X120000000Y-65700000D02*
X117550000Y-68150000D01*
X120000000Y-64000000D02*
X120000000Y-65700000D01*
X119650000Y-63650000D02*
X120000000Y-64000000D01*
X111270000Y-63650000D02*
X119650000Y-63650000D01*
%TO.N,Net-(D12-DIN)*%
X100000000Y-65700000D02*
X97550000Y-68150000D01*
X100000000Y-64000000D02*
X100000000Y-65700000D01*
X99650000Y-63650000D02*
X100000000Y-64000000D01*
X91270000Y-63650000D02*
X99650000Y-63650000D01*
%TO.N,Net-(D12-DOUT)*%
X80000000Y-64000000D02*
X80000000Y-65700000D01*
X80000000Y-65700000D02*
X77550000Y-68150000D01*
X79650000Y-63650000D02*
X80000000Y-64000000D01*
X71270000Y-63650000D02*
X79650000Y-63650000D01*
%TO.N,Net-(D2-DIN)*%
X60000000Y-65700000D02*
X57550000Y-68150000D01*
X60000000Y-64000000D02*
X60000000Y-65700000D01*
X59650000Y-63650000D02*
X60000000Y-64000000D01*
X51270000Y-63650000D02*
X59650000Y-63650000D01*
X47530000Y-64850000D02*
X48730000Y-63650000D01*
X42450000Y-64850000D02*
X47530000Y-64850000D01*
%TO.N,Net-(D2-DOUT)*%
X39350000Y-63650000D02*
X31270000Y-63650000D01*
X40000000Y-64300000D02*
X39350000Y-63650000D01*
X37550000Y-68150000D02*
X40000000Y-65700000D01*
X40000000Y-65700000D02*
X40000000Y-64300000D01*
%TO.N,VCC*%
X35080000Y-68730000D02*
X35350000Y-69000000D01*
X115080000Y-48730000D02*
X115251000Y-48901000D01*
X95080000Y-48730000D02*
X95251000Y-48901000D01*
X75080000Y-48730000D02*
X75251000Y-48901000D01*
X55080000Y-48730000D02*
X55251000Y-48901000D01*
X35080000Y-48730000D02*
X35251000Y-48901000D01*
%TO.N,Net-(D25-DOUT)*%
X125880000Y-126500000D02*
X128730000Y-123650000D01*
X119200000Y-126500000D02*
X125880000Y-126500000D01*
X117550000Y-128150000D02*
X119200000Y-126500000D01*
%TO.N,Net-(D20-DOUT)*%
X121250000Y-123650000D02*
X122450000Y-124850000D01*
X111270000Y-123650000D02*
X121250000Y-123650000D01*
X105880000Y-126500000D02*
X108730000Y-123650000D01*
X104000000Y-126500000D02*
X105880000Y-126500000D01*
%TO.N,Net-(D15-DOUT)*%
X101250000Y-123650000D02*
X91270000Y-123650000D01*
X102450000Y-124850000D02*
X101250000Y-123650000D01*
X85880000Y-126500000D02*
X88730000Y-123650000D01*
X84500000Y-126500000D02*
X85880000Y-126500000D01*
%TO.N,Net-(D10-DOUT)*%
X81250000Y-123650000D02*
X82450000Y-124850000D01*
X71270000Y-123650000D02*
X81250000Y-123650000D01*
X65880000Y-126500000D02*
X68730000Y-123650000D01*
X64500000Y-126500000D02*
X65880000Y-126500000D01*
%TO.N,Net-(D10-DIN)*%
X61250000Y-123650000D02*
X62450000Y-124850000D01*
X51270000Y-123650000D02*
X61250000Y-123650000D01*
%TO.N,Net-(D4-DOUT)*%
X41250000Y-123650000D02*
X31270000Y-123650000D01*
X42450000Y-124850000D02*
X41250000Y-123650000D01*
%TO.N,Net-(D4-DIN)*%
X47530000Y-104850000D02*
X48730000Y-103650000D01*
X42450000Y-104850000D02*
X47530000Y-104850000D01*
%TO.N,Net-(D14-DOUT)*%
X67530000Y-104850000D02*
X68730000Y-103650000D01*
X62450000Y-104850000D02*
X67530000Y-104850000D01*
%TO.N,Net-(D14-DIN)*%
X87530000Y-104850000D02*
X82450000Y-104850000D01*
X88730000Y-103650000D02*
X87530000Y-104850000D01*
%TO.N,Net-(D19-DIN)*%
X107530000Y-104850000D02*
X108730000Y-103650000D01*
X102450000Y-104850000D02*
X107530000Y-104850000D01*
%TO.N,Net-(D18-DOUT)*%
X101012274Y-86500000D02*
X105880000Y-86500000D01*
X99362274Y-88150000D02*
X101012274Y-86500000D01*
X97550000Y-88150000D02*
X99362274Y-88150000D01*
X105880000Y-86500000D02*
X108730000Y-83650000D01*
X121250000Y-83650000D02*
X111270000Y-83650000D01*
X122450000Y-84850000D02*
X121250000Y-83650000D01*
%TO.N,Net-(D13-DOUT)*%
X81000000Y-86500000D02*
X85880000Y-86500000D01*
X79350000Y-88150000D02*
X81000000Y-86500000D01*
X77550000Y-88150000D02*
X79350000Y-88150000D01*
X85880000Y-86500000D02*
X88730000Y-83650000D01*
X101250000Y-83650000D02*
X91270000Y-83650000D01*
X102450000Y-84850000D02*
X101250000Y-83650000D01*
%TO.N,Net-(D13-DIN)*%
X81250000Y-83650000D02*
X82450000Y-84850000D01*
X71270000Y-83650000D02*
X81250000Y-83650000D01*
X65880000Y-86500000D02*
X64000000Y-86500000D01*
X68730000Y-83650000D02*
X65880000Y-86500000D01*
X64000000Y-86500000D02*
X64101000Y-86500000D01*
%TO.N,Net-(D3-DOUT)*%
X61250000Y-83650000D02*
X51270000Y-83650000D01*
X62450000Y-84850000D02*
X61250000Y-83650000D01*
%TO.N,Net-(D2-DOUT)*%
X31270000Y-83650000D02*
X39150000Y-83650000D01*
X39150000Y-83650000D02*
X39500000Y-84000000D01*
X39500000Y-84000000D02*
X40350000Y-84850000D01*
%TO.N,Net-(D12-DOUT)*%
X67530000Y-64850000D02*
X62450000Y-64850000D01*
X68730000Y-63650000D02*
X67530000Y-64850000D01*
%TO.N,Net-(D12-DIN)*%
X87530000Y-64850000D02*
X88730000Y-63650000D01*
X82450000Y-64850000D02*
X87530000Y-64850000D01*
%TO.N,Net-(D17-DIN)*%
X107530000Y-64850000D02*
X102450000Y-64850000D01*
X108730000Y-63650000D02*
X107530000Y-64850000D01*
%TO.N,Net-(D21-DOUT)*%
X120500000Y-46500000D02*
X125880000Y-46500000D01*
X118850000Y-48150000D02*
X120500000Y-46500000D01*
X117550000Y-48150000D02*
X118850000Y-48150000D01*
X125880000Y-46500000D02*
X128730000Y-43650000D01*
X127530000Y-64850000D02*
X128730000Y-63650000D01*
X122450000Y-64850000D02*
X127530000Y-64850000D01*
%TO.N,Net-(D16-DOUT)*%
X121250000Y-43650000D02*
X122450000Y-44850000D01*
X111270000Y-43650000D02*
X121250000Y-43650000D01*
%TO.N,Net-(D11-DOUT)*%
X101250000Y-43650000D02*
X102450000Y-44850000D01*
X91270000Y-43650000D02*
X101250000Y-43650000D01*
X86055000Y-46325000D02*
X88730000Y-43650000D01*
X81325000Y-46325000D02*
X86055000Y-46325000D01*
%TO.N,Net-(D11-DIN)*%
X81250000Y-43650000D02*
X82450000Y-44850000D01*
X71270000Y-43650000D02*
X81250000Y-43650000D01*
X59200000Y-46500000D02*
X65880000Y-46500000D01*
X57550000Y-48150000D02*
X59200000Y-46500000D01*
X65880000Y-46500000D02*
X68730000Y-43650000D01*
%TO.N,Net-(D1-DOUT)*%
X61250000Y-43650000D02*
X62450000Y-44850000D01*
X51270000Y-43650000D02*
X61250000Y-43650000D01*
%TO.N,Net-(D2-DOUT)*%
X40350000Y-84850000D02*
X42450000Y-84850000D01*
%TO.N,Net-(D20-DOUT)*%
X97550000Y-128150000D02*
X99717100Y-128150000D01*
X99717100Y-128150000D02*
X101367100Y-126500000D01*
X101367100Y-126500000D02*
X104000000Y-126500000D01*
%TO.N,Net-(SW14-Pad1)*%
X48730000Y-101110000D02*
X51270000Y-101110000D01*
%TO.N,Net-(SW10-Pad1)*%
X51270000Y-121110000D02*
X48730000Y-121110000D01*
X68730000Y-121110000D02*
X71270000Y-121110000D01*
%TO.N,Net-(SW14-Pad1)*%
X71270000Y-101110000D02*
X68730000Y-101110000D01*
X91270000Y-101110000D02*
X88730000Y-101110000D01*
%TO.N,Net-(SW10-Pad1)*%
X88730000Y-121110000D02*
X91270000Y-121110000D01*
X108730000Y-121110000D02*
X111270000Y-121110000D01*
%TO.N,Net-(SW14-Pad1)*%
X108730000Y-101110000D02*
X111270000Y-101110000D01*
%TO.N,Net-(SW13-Pad1)*%
X108730000Y-81110000D02*
X111270000Y-81110000D01*
X88730000Y-81110000D02*
X91270000Y-81110000D01*
X68730000Y-81110000D02*
X71270000Y-81110000D01*
X48730000Y-81110000D02*
X51270000Y-81110000D01*
%TO.N,Net-(SW12-Pad1)*%
X51270000Y-61110000D02*
X48730000Y-61110000D01*
X71270000Y-61110000D02*
X68730000Y-61110000D01*
X91270000Y-61110000D02*
X88730000Y-61110000D01*
X111270000Y-61110000D02*
X108730000Y-61110000D01*
%TO.N,Net-(SW1-Pad1)*%
X108730000Y-41110000D02*
X111270000Y-41110000D01*
X88730000Y-41110000D02*
X91270000Y-41110000D01*
X68730000Y-41110000D02*
X71270000Y-41110000D01*
%TO.N,Net-(SW10-Pad1)*%
X125080000Y-117460000D02*
X124500000Y-117460000D01*
X128730000Y-121110000D02*
X125080000Y-117460000D01*
%TO.N,Net-(SW1-Pad1)*%
X85080000Y-37460000D02*
X85000000Y-37460000D01*
X88730000Y-41110000D02*
X85080000Y-37460000D01*
X125080000Y-37460000D02*
X122000000Y-37460000D01*
X128730000Y-41110000D02*
X125080000Y-37460000D01*
%TO.N,Net-(SW12-Pad1)*%
X125080000Y-57460000D02*
X124500000Y-57460000D01*
X128730000Y-61110000D02*
X125080000Y-57460000D01*
X105080000Y-57460000D02*
X103000000Y-57460000D01*
X108730000Y-61110000D02*
X105080000Y-57460000D01*
X85080000Y-57460000D02*
X83500000Y-57460000D01*
X88730000Y-61110000D02*
X85080000Y-57460000D01*
X76190000Y-57460000D02*
X83500000Y-57460000D01*
X68730000Y-61110000D02*
X65080000Y-57460000D01*
X65080000Y-57460000D02*
X65000000Y-57460000D01*
X45080000Y-57460000D02*
X45000000Y-57460000D01*
X48730000Y-61110000D02*
X45080000Y-57460000D01*
%TO.N,Net-(SW13-Pad1)*%
X45080000Y-77460000D02*
X44500000Y-77460000D01*
X48730000Y-81110000D02*
X45080000Y-77460000D01*
X36190000Y-77460000D02*
X44500000Y-77460000D01*
X85080000Y-77460000D02*
X84500000Y-77460000D01*
X88730000Y-81110000D02*
X85080000Y-77460000D01*
X76190000Y-77460000D02*
X84500000Y-77460000D01*
X105080000Y-77460000D02*
X105000000Y-77460000D01*
X108730000Y-81110000D02*
X105080000Y-77460000D01*
X128730000Y-81110000D02*
X125080000Y-77460000D01*
X125080000Y-77460000D02*
X123500000Y-77460000D01*
%TO.N,Net-(SW14-Pad1)*%
X125080000Y-97460000D02*
X124000000Y-97460000D01*
X128730000Y-101110000D02*
X125080000Y-97460000D01*
X85080000Y-97460000D02*
X85000000Y-97460000D01*
X88730000Y-101110000D02*
X85080000Y-97460000D01*
X68730000Y-101110000D02*
X65080000Y-97460000D01*
X65080000Y-97460000D02*
X64000000Y-97460000D01*
X45080000Y-97460000D02*
X43500000Y-97460000D01*
X48730000Y-101110000D02*
X45080000Y-97460000D01*
%TO.N,Net-(SW10-Pad1)*%
X45080000Y-117460000D02*
X44000000Y-117460000D01*
X48730000Y-121110000D02*
X45080000Y-117460000D01*
X44000000Y-117460000D02*
X36190000Y-117460000D01*
X65080000Y-117460000D02*
X63000000Y-117460000D01*
X68730000Y-121110000D02*
X65080000Y-117460000D01*
X63000000Y-117460000D02*
X56190000Y-117460000D01*
X85080000Y-117460000D02*
X84000000Y-117460000D01*
X88730000Y-121110000D02*
X85080000Y-117460000D01*
X84000000Y-117460000D02*
X76190000Y-117460000D01*
X105080000Y-117460000D02*
X104500000Y-117460000D01*
X108730000Y-121110000D02*
X105080000Y-117460000D01*
X104500000Y-117460000D02*
X96190000Y-117460000D01*
%TO.N,Net-(SW1-Pad2)*%
X42540000Y-34920000D02*
X46540000Y-34920000D01*
%TO.N,Net-(D13-DIN)*%
X60985537Y-86500000D02*
X64000000Y-86500000D01*
X59335537Y-88150000D02*
X60985537Y-86500000D01*
X57550000Y-88150000D02*
X59335537Y-88150000D01*
%TO.N,Net-(SW13-Pad1)*%
X65080000Y-77460000D02*
X64500000Y-77460000D01*
X68730000Y-81110000D02*
X65080000Y-77460000D01*
%TO.N,Net-(D15-DOUT)*%
X81262274Y-126500000D02*
X84500000Y-126500000D01*
X79612274Y-128150000D02*
X81262274Y-126500000D01*
X77550000Y-128150000D02*
X79612274Y-128150000D01*
%TO.N,Net-(D10-DOUT)*%
X59500000Y-128150000D02*
X61150000Y-126500000D01*
X61150000Y-126500000D02*
X64500000Y-126500000D01*
X57550000Y-128150000D02*
X59500000Y-128150000D01*
%TO.N,Net-(D12-DOUT)*%
X62450000Y-64850000D02*
X65150000Y-64850000D01*
%TO.N,Net-(D11-DOUT)*%
X79500000Y-48150000D02*
X81325000Y-46325000D01*
X77550000Y-48150000D02*
X79500000Y-48150000D01*
%TO.N,Net-(SW1-Pad1)*%
X76190000Y-37460000D02*
X85000000Y-37460000D01*
X116190000Y-37460000D02*
X122000000Y-37460000D01*
%TO.N,Net-(SW12-Pad1)*%
X31270000Y-58380000D02*
X32190000Y-57460000D01*
X116190000Y-57460000D02*
X124500000Y-57460000D01*
X56190000Y-57460000D02*
X65000000Y-57460000D01*
X96190000Y-57460000D02*
X103000000Y-57460000D01*
X36190000Y-57460000D02*
X45000000Y-57460000D01*
%TO.N,Net-(SW13-Pad1)*%
X116190000Y-77460000D02*
X123500000Y-77460000D01*
X31270000Y-78380000D02*
X32190000Y-77460000D01*
X56190000Y-77460000D02*
X64500000Y-77460000D01*
X96190000Y-77460000D02*
X105000000Y-77460000D01*
%TO.N,Net-(SW14-Pad1)*%
X116190000Y-97460000D02*
X124000000Y-97460000D01*
X36190000Y-97460000D02*
X43500000Y-97460000D01*
X76190000Y-97460000D02*
X85000000Y-97460000D01*
X31270000Y-98380000D02*
X32190000Y-97460000D01*
X56190000Y-97460000D02*
X64000000Y-97460000D01*
%TO.N,Net-(SW10-Pad1)*%
X31270000Y-118380000D02*
X32190000Y-117460000D01*
X116190000Y-117460000D02*
X124500000Y-117460000D01*
%TD*%
M02*
