M48
; DRILL file {KiCad 9.0.0} date 2025-05-01T22:13:06+0800
; FORMAT={-:-/ absolute / metric / decimal}
; #@! TF.CreationDate,2025-05-01T22:13:06+08:00
; #@! TF.GenerationSoftware,Kicad,Pcbnew,9.0.0
; #@! TF.FileFunction,NonPlated,1,2,NPTH
FMAT,2
METRIC
; #@! TA.AperFunction,NonPlated,NPTH,ComponentDrill
T1C4.000
%
G90
G05
T1
X40.0Y-40.0
X40.0Y-60.0
X40.0Y-80.0
X40.0Y-100.0
X40.0Y-120.0
X60.0Y-40.0
X60.0Y-60.0
X60.0Y-80.0
X60.0Y-100.0
X60.0Y-120.0
X80.0Y-40.0
X80.0Y-60.0
X80.0Y-80.0
X80.0Y-100.0
X80.0Y-120.0
X100.0Y-40.0
X100.0Y-60.0
X100.0Y-80.0
X100.0Y-100.0
X100.0Y-120.0
X120.0Y-40.0
X120.0Y-60.0
X120.0Y-80.0
X120.0Y-100.0
X120.0Y-120.0
M30
