%TF.GenerationSoftware,KiCad,Pcbnew,9.0.0*%
%TF.CreationDate,2025-05-01T22:13:03+08:00*%
%TF.ProjectId,kbd5x5,6b626435-7835-42e6-9b69-6361645f7063,rev?*%
%TF.SameCoordinates,Original*%
%TF.FileFunction,Profile,NP*%
%FSLAX46Y46*%
G04 Gerber Fmt 4.6, Leading zero omitted, Abs format (unit mm)*
G04 Created by KiCad (PCBNEW 9.0.0) date 2025-05-01 22:13:03*
%MOMM*%
%LPD*%
G01*
G04 APERTURE LIST*
%TA.AperFunction,Profile*%
%ADD10C,0.050000*%
%TD*%
G04 APERTURE END LIST*
D10*
X89800000Y-124000000D02*
X90200000Y-124000000D01*
X90200000Y-128000000D01*
X89800000Y-128000000D01*
X89800000Y-124000000D01*
X109800000Y-124000000D02*
X110200000Y-124000000D01*
X110200000Y-128000000D01*
X109800000Y-128000000D01*
X109800000Y-124000000D01*
X49800000Y-124000000D02*
X50200000Y-124000000D01*
X50200000Y-128000000D01*
X49800000Y-128000000D01*
X49800000Y-124000000D01*
X69800000Y-124000000D02*
X70200000Y-124000000D01*
X70200000Y-128000000D01*
X69800000Y-128000000D01*
X69800000Y-124000000D01*
X109800000Y-32000000D02*
X110200000Y-32000000D01*
X110200000Y-36000000D01*
X109800000Y-36000000D01*
X109800000Y-32000000D01*
X89800000Y-32000000D02*
X90200000Y-32000000D01*
X90200000Y-36000000D01*
X89800000Y-36000000D01*
X89800000Y-32000000D01*
X69800000Y-32000000D02*
X70200000Y-32000000D01*
X70200000Y-36000000D01*
X69800000Y-36000000D01*
X69800000Y-32000000D01*
X49800000Y-32000000D02*
X50200000Y-32000000D01*
X50200000Y-36000000D01*
X49800000Y-36000000D01*
X49800000Y-32000000D01*
X124000000Y-89800000D02*
X128000000Y-89800000D01*
X128000000Y-90200000D01*
X124000000Y-90200000D01*
X124000000Y-89800000D01*
X124000000Y-109800000D02*
X128000000Y-109800000D01*
X128000000Y-110200000D01*
X124000000Y-110200000D01*
X124000000Y-109800000D01*
X124000000Y-49800000D02*
X128000000Y-49800000D01*
X128000000Y-50200000D01*
X124000000Y-50200000D01*
X124000000Y-49800000D01*
X124000000Y-69800000D02*
X128000000Y-69800000D01*
X128000000Y-70200000D01*
X124000000Y-70200000D01*
X124000000Y-69800000D01*
X49800000Y-104000000D02*
X50200000Y-104000000D01*
X50200000Y-108000000D01*
X49800000Y-108000000D01*
X49800000Y-104000000D01*
X49800000Y-112000000D02*
X50200000Y-112000000D01*
X50200000Y-116000000D01*
X49800000Y-116000000D01*
X49800000Y-112000000D01*
X44000000Y-109800000D02*
X48000000Y-109800000D01*
X48000000Y-110200000D01*
X44000000Y-110200000D01*
X44000000Y-109800000D01*
X69800000Y-104000000D02*
X70200000Y-104000000D01*
X70200000Y-108000000D01*
X69800000Y-108000000D01*
X69800000Y-104000000D01*
X69800000Y-112000000D02*
X70200000Y-112000000D01*
X70200000Y-116000000D01*
X69800000Y-116000000D01*
X69800000Y-112000000D01*
X64000000Y-109800000D02*
X68000000Y-109800000D01*
X68000000Y-110200000D01*
X64000000Y-110200000D01*
X64000000Y-109800000D01*
X89800000Y-104000000D02*
X90200000Y-104000000D01*
X90200000Y-108000000D01*
X89800000Y-108000000D01*
X89800000Y-104000000D01*
X89800000Y-112000000D02*
X90200000Y-112000000D01*
X90200000Y-116000000D01*
X89800000Y-116000000D01*
X89800000Y-112000000D01*
X84000000Y-109800000D02*
X88000000Y-109800000D01*
X88000000Y-110200000D01*
X84000000Y-110200000D01*
X84000000Y-109800000D01*
X109800000Y-104000000D02*
X110200000Y-104000000D01*
X110200000Y-108000000D01*
X109800000Y-108000000D01*
X109800000Y-104000000D01*
X109800000Y-112000000D02*
X110200000Y-112000000D01*
X110200000Y-116000000D01*
X109800000Y-116000000D01*
X109800000Y-112000000D01*
X104000000Y-109800000D02*
X108000000Y-109800000D01*
X108000000Y-110200000D01*
X104000000Y-110200000D01*
X104000000Y-109800000D01*
X109800000Y-84000000D02*
X110200000Y-84000000D01*
X110200000Y-88000000D01*
X109800000Y-88000000D01*
X109800000Y-84000000D01*
X109800000Y-92000000D02*
X110200000Y-92000000D01*
X110200000Y-96000000D01*
X109800000Y-96000000D01*
X109800000Y-92000000D01*
X104000000Y-89800000D02*
X108000000Y-89800000D01*
X108000000Y-90200000D01*
X104000000Y-90200000D01*
X104000000Y-89800000D01*
X89800000Y-84000000D02*
X90200000Y-84000000D01*
X90200000Y-88000000D01*
X89800000Y-88000000D01*
X89800000Y-84000000D01*
X89800000Y-92000000D02*
X90200000Y-92000000D01*
X90200000Y-96000000D01*
X89800000Y-96000000D01*
X89800000Y-92000000D01*
X84000000Y-89800000D02*
X88000000Y-89800000D01*
X88000000Y-90200000D01*
X84000000Y-90200000D01*
X84000000Y-89800000D01*
X69800000Y-84000000D02*
X70200000Y-84000000D01*
X70200000Y-88000000D01*
X69800000Y-88000000D01*
X69800000Y-84000000D01*
X69800000Y-92000000D02*
X70200000Y-92000000D01*
X70200000Y-96000000D01*
X69800000Y-96000000D01*
X69800000Y-92000000D01*
X64000000Y-89800000D02*
X68000000Y-89800000D01*
X68000000Y-90200000D01*
X64000000Y-90200000D01*
X64000000Y-89800000D01*
X49800000Y-84000000D02*
X50200000Y-84000000D01*
X50200000Y-88000000D01*
X49800000Y-88000000D01*
X49800000Y-84000000D01*
X49800000Y-92000000D02*
X50200000Y-92000000D01*
X50200000Y-96000000D01*
X49800000Y-96000000D01*
X49800000Y-92000000D01*
X44000000Y-89800000D02*
X48000000Y-89800000D01*
X48000000Y-90200000D01*
X44000000Y-90200000D01*
X44000000Y-89800000D01*
X69800000Y-64000000D02*
X70200000Y-64000000D01*
X70200000Y-68000000D01*
X69800000Y-68000000D01*
X69800000Y-64000000D01*
X69800000Y-72000000D02*
X70200000Y-72000000D01*
X70200000Y-76000000D01*
X69800000Y-76000000D01*
X69800000Y-72000000D01*
X64000000Y-69800000D02*
X68000000Y-69800000D01*
X68000000Y-70200000D01*
X64000000Y-70200000D01*
X64000000Y-69800000D01*
X89800000Y-64000000D02*
X90200000Y-64000000D01*
X90200000Y-68000000D01*
X89800000Y-68000000D01*
X89800000Y-64000000D01*
X89800000Y-72000000D02*
X90200000Y-72000000D01*
X90200000Y-76000000D01*
X89800000Y-76000000D01*
X89800000Y-72000000D01*
X84000000Y-69800000D02*
X88000000Y-69800000D01*
X88000000Y-70200000D01*
X84000000Y-70200000D01*
X84000000Y-69800000D01*
X109800000Y-64000000D02*
X110200000Y-64000000D01*
X110200000Y-68000000D01*
X109800000Y-68000000D01*
X109800000Y-64000000D01*
X109800000Y-72000000D02*
X110200000Y-72000000D01*
X110200000Y-76000000D01*
X109800000Y-76000000D01*
X109800000Y-72000000D01*
X104000000Y-69800000D02*
X108000000Y-69800000D01*
X108000000Y-70200000D01*
X104000000Y-70200000D01*
X104000000Y-69800000D01*
X109800000Y-44000000D02*
X110200000Y-44000000D01*
X110200000Y-48000000D01*
X109800000Y-48000000D01*
X109800000Y-44000000D01*
X109800000Y-52000000D02*
X110200000Y-52000000D01*
X110200000Y-56000000D01*
X109800000Y-56000000D01*
X109800000Y-52000000D01*
X104000000Y-49800000D02*
X108000000Y-49800000D01*
X108000000Y-50200000D01*
X104000000Y-50200000D01*
X104000000Y-49800000D01*
X89800000Y-44000000D02*
X90200000Y-44000000D01*
X90200000Y-48000000D01*
X89800000Y-48000000D01*
X89800000Y-44000000D01*
X89800000Y-52000000D02*
X90200000Y-52000000D01*
X90200000Y-56000000D01*
X89800000Y-56000000D01*
X89800000Y-52000000D01*
X84000000Y-49800000D02*
X88000000Y-49800000D01*
X88000000Y-50200000D01*
X84000000Y-50200000D01*
X84000000Y-49800000D01*
X69800000Y-44000000D02*
X70200000Y-44000000D01*
X70200000Y-48000000D01*
X69800000Y-48000000D01*
X69800000Y-44000000D01*
X69800000Y-52000000D02*
X70200000Y-52000000D01*
X70200000Y-56000000D01*
X69800000Y-56000000D01*
X69800000Y-52000000D01*
X64000000Y-49800000D02*
X68000000Y-49800000D01*
X68000000Y-50200000D01*
X64000000Y-50200000D01*
X64000000Y-49800000D01*
X49800000Y-44000000D02*
X50200000Y-44000000D01*
X50200000Y-48000000D01*
X49800000Y-48000000D01*
X49800000Y-44000000D01*
X49800000Y-52000000D02*
X50200000Y-52000000D01*
X50200000Y-56000000D01*
X49800000Y-56000000D01*
X49800000Y-52000000D01*
X44000000Y-49800000D02*
X48000000Y-49800000D01*
X48000000Y-50200000D01*
X44000000Y-50200000D01*
X44000000Y-49800000D01*
X49800000Y-64000000D02*
X50200000Y-64000000D01*
X50200000Y-68000000D01*
X49800000Y-68000000D01*
X49800000Y-64000000D01*
X49800000Y-72000000D02*
X50200000Y-72000000D01*
X50200000Y-76000000D01*
X49800000Y-76000000D01*
X49800000Y-72000000D01*
X44000000Y-69800000D02*
X48000000Y-69800000D01*
X48000000Y-70200000D01*
X44000000Y-70200000D01*
X44000000Y-69800000D01*
X32000000Y-109800000D02*
X36000000Y-109800000D01*
X36000000Y-110200000D01*
X32000000Y-110200000D01*
X32000000Y-109800000D01*
X32000000Y-89800000D02*
X36000000Y-89800000D01*
X36000000Y-90200000D01*
X32000000Y-90200000D01*
X32000000Y-89800000D01*
X32000000Y-49800000D02*
X36000000Y-49800000D01*
X36000000Y-50200000D01*
X32000000Y-50200000D01*
X32000000Y-49800000D01*
X32000000Y-69800000D02*
X36000000Y-69800000D01*
X36000000Y-70200000D01*
X32000000Y-70200000D01*
X32000000Y-69800000D01*
X52000000Y-109800000D02*
X56000000Y-109800000D01*
X56000000Y-110200000D01*
X52000000Y-110200000D01*
X52000000Y-109800000D01*
X52000000Y-89800000D02*
X56000000Y-89800000D01*
X56000000Y-90200000D01*
X52000000Y-90200000D01*
X52000000Y-89800000D01*
X52000000Y-49800000D02*
X56000000Y-49800000D01*
X56000000Y-50200000D01*
X52000000Y-50200000D01*
X52000000Y-49800000D01*
X52000000Y-69800000D02*
X56000000Y-69800000D01*
X56000000Y-70200000D01*
X52000000Y-70200000D01*
X52000000Y-69800000D01*
X72000000Y-109800000D02*
X76000000Y-109800000D01*
X76000000Y-110200000D01*
X72000000Y-110200000D01*
X72000000Y-109800000D01*
X72000000Y-89800000D02*
X76000000Y-89800000D01*
X76000000Y-90200000D01*
X72000000Y-90200000D01*
X72000000Y-89800000D01*
X72000000Y-49800000D02*
X76000000Y-49800000D01*
X76000000Y-50200000D01*
X72000000Y-50200000D01*
X72000000Y-49800000D01*
X72000000Y-69800000D02*
X76000000Y-69800000D01*
X76000000Y-70200000D01*
X72000000Y-70200000D01*
X72000000Y-69800000D01*
X92000000Y-109800000D02*
X96000000Y-109800000D01*
X96000000Y-110200000D01*
X92000000Y-110200000D01*
X92000000Y-109800000D01*
X92000000Y-89800000D02*
X96000000Y-89800000D01*
X96000000Y-90200000D01*
X92000000Y-90200000D01*
X92000000Y-89800000D01*
X92000000Y-49800000D02*
X96000000Y-49800000D01*
X96000000Y-50200000D01*
X92000000Y-50200000D01*
X92000000Y-49800000D01*
X92000000Y-69800000D02*
X96000000Y-69800000D01*
X96000000Y-70200000D01*
X92000000Y-70200000D01*
X92000000Y-69800000D01*
X112000000Y-89800000D02*
X116000000Y-89800000D01*
X116000000Y-90200000D01*
X112000000Y-90200000D01*
X112000000Y-89800000D01*
X112000000Y-109800000D02*
X116000000Y-109800000D01*
X116000000Y-110200000D01*
X112000000Y-110200000D01*
X112000000Y-109800000D01*
X112000000Y-69800000D02*
X116000000Y-69800000D01*
X116000000Y-70200000D01*
X112000000Y-70200000D01*
X112000000Y-69800000D01*
X112000000Y-49800000D02*
X116000000Y-49800000D01*
X116000000Y-50200000D01*
X112000000Y-50200000D01*
X112000000Y-49800000D01*
X51500000Y-90000000D02*
G75*
G02*
X48500000Y-90000000I-1500000J0D01*
G01*
X48500000Y-90000000D02*
G75*
G02*
X51500000Y-90000000I1500000J0D01*
G01*
X30000000Y-130000000D02*
X130000000Y-130000000D01*
X111500000Y-90000000D02*
G75*
G02*
X108500000Y-90000000I-1500000J0D01*
G01*
X108500000Y-90000000D02*
G75*
G02*
X111500000Y-90000000I1500000J0D01*
G01*
X51500000Y-70000000D02*
G75*
G02*
X48500000Y-70000000I-1500000J0D01*
G01*
X48500000Y-70000000D02*
G75*
G02*
X51500000Y-70000000I1500000J0D01*
G01*
X111500000Y-110000000D02*
G75*
G02*
X108500000Y-110000000I-1500000J0D01*
G01*
X108500000Y-110000000D02*
G75*
G02*
X111500000Y-110000000I1500000J0D01*
G01*
X130000000Y-130000000D02*
X130000000Y-30000000D01*
X71500000Y-70000000D02*
G75*
G02*
X68500000Y-70000000I-1500000J0D01*
G01*
X68500000Y-70000000D02*
G75*
G02*
X71500000Y-70000000I1500000J0D01*
G01*
X111500000Y-50000000D02*
G75*
G02*
X108500000Y-50000000I-1500000J0D01*
G01*
X108500000Y-50000000D02*
G75*
G02*
X111500000Y-50000000I1500000J0D01*
G01*
X71500000Y-50000000D02*
G75*
G02*
X68500000Y-50000000I-1500000J0D01*
G01*
X68500000Y-50000000D02*
G75*
G02*
X71500000Y-50000000I1500000J0D01*
G01*
X130000000Y-30000000D02*
X30000000Y-30000000D01*
X91500000Y-70000000D02*
G75*
G02*
X88500000Y-70000000I-1500000J0D01*
G01*
X88500000Y-70000000D02*
G75*
G02*
X91500000Y-70000000I1500000J0D01*
G01*
X91500000Y-110000000D02*
G75*
G02*
X88500000Y-110000000I-1500000J0D01*
G01*
X88500000Y-110000000D02*
G75*
G02*
X91500000Y-110000000I1500000J0D01*
G01*
X51500000Y-110000000D02*
G75*
G02*
X48500000Y-110000000I-1500000J0D01*
G01*
X48500000Y-110000000D02*
G75*
G02*
X51500000Y-110000000I1500000J0D01*
G01*
X71500000Y-90000000D02*
G75*
G02*
X68500000Y-90000000I-1500000J0D01*
G01*
X68500000Y-90000000D02*
G75*
G02*
X71500000Y-90000000I1500000J0D01*
G01*
X91500000Y-90000000D02*
G75*
G02*
X88500000Y-90000000I-1500000J0D01*
G01*
X88500000Y-90000000D02*
G75*
G02*
X91500000Y-90000000I1500000J0D01*
G01*
X71500000Y-110000000D02*
G75*
G02*
X68500000Y-110000000I-1500000J0D01*
G01*
X68500000Y-110000000D02*
G75*
G02*
X71500000Y-110000000I1500000J0D01*
G01*
X91500000Y-50000000D02*
G75*
G02*
X88500000Y-50000000I-1500000J0D01*
G01*
X88500000Y-50000000D02*
G75*
G02*
X91500000Y-50000000I1500000J0D01*
G01*
X30000000Y-30000000D02*
X30000000Y-130000000D01*
X51500000Y-50000000D02*
G75*
G02*
X48500000Y-50000000I-1500000J0D01*
G01*
X48500000Y-50000000D02*
G75*
G02*
X51500000Y-50000000I1500000J0D01*
G01*
X111500000Y-70000000D02*
G75*
G02*
X108500000Y-70000000I-1500000J0D01*
G01*
X108500000Y-70000000D02*
G75*
G02*
X111500000Y-70000000I1500000J0D01*
G01*
M02*
