%TF.GenerationSoftware,KiCad,Pcbnew,9.0.0*%
%TF.CreationDate,2025-05-01T22:13:03+08:00*%
%TF.ProjectId,kbd5x5,6b626435-7835-42e6-9b69-6361645f7063,rev?*%
%TF.SameCoordinates,Original*%
%TF.FileFunction,Copper,L2,Bot*%
%TF.FilePolarity,Positive*%
%FSLAX46Y46*%
G04 Gerber Fmt 4.6, Leading zero omitted, Abs format (unit mm)*
G04 Created by KiCad (PCBNEW 9.0.0) date 2025-05-01 22:13:03*
%MOMM*%
%LPD*%
G01*
G04 APERTURE LIST*
G04 Aperture macros list*
%AMRoundRect*
0 Rectangle with rounded corners*
0 $1 Rounding radius*
0 $2 $3 $4 $5 $6 $7 $8 $9 X,Y pos of 4 corners*
0 Add a 4 corners polygon primitive as box body*
4,1,4,$2,$3,$4,$5,$6,$7,$8,$9,$2,$3,0*
0 Add four circle primitives for the rounded corners*
1,1,$1+$1,$2,$3*
1,1,$1+$1,$4,$5*
1,1,$1+$1,$6,$7*
1,1,$1+$1,$8,$9*
0 Add four rect primitives between the rounded corners*
20,1,$1+$1,$2,$3,$4,$5,0*
20,1,$1+$1,$4,$5,$6,$7,0*
20,1,$1+$1,$6,$7,$8,$9,0*
20,1,$1+$1,$8,$9,$2,$3,0*%
G04 Aperture macros list end*
%TA.AperFunction,ComponentPad*%
%ADD10C,1.700000*%
%TD*%
%TA.AperFunction,ComponentPad*%
%ADD11RoundRect,0.450000X-1.050000X-1.050000X1.050000X-1.050000X1.050000X1.050000X-1.050000X1.050000X0*%
%TD*%
%TA.AperFunction,ComponentPad*%
%ADD12C,2.200000*%
%TD*%
%TA.AperFunction,ViaPad*%
%ADD13C,0.600000*%
%TD*%
%TA.AperFunction,Conductor*%
%ADD14C,0.200000*%
%TD*%
G04 APERTURE END LIST*
D10*
%TO.P,SW1,1,1*%
%TO.N,Net-(SW1-Pad1)*%
X31270000Y-41110000D03*
D11*
X32190000Y-37460000D03*
D12*
X36190000Y-37460000D03*
D10*
X48730000Y-41110000D03*
D12*
%TO.P,SW1,2,2*%
%TO.N,Net-(SW1-Pad2)*%
X42540000Y-34920000D03*
D11*
X46540000Y-34920000D03*
D10*
X47460000Y-31270000D03*
X47460000Y-48730000D03*
%TO.P,SW1,3,3*%
%TO.N,Net-(D1-DIN)*%
X31270000Y-43650000D03*
%TO.P,SW1,4,4*%
%TO.N,Net-(D1-DOUT)*%
X48730000Y-43650000D03*
%TO.P,SW1,5,5*%
%TO.N,VCC*%
X35080000Y-31270000D03*
X35080000Y-48730000D03*
%TO.P,SW1,6,6*%
%TO.N,GND*%
X44920000Y-31270000D03*
X44920000Y-48730000D03*
%TO.P,SW1,7*%
%TO.N,N/C*%
X32540000Y-31270000D03*
X32540000Y-48730000D03*
%TD*%
%TO.P,SW22,1,1*%
%TO.N,Net-(SW12-Pad1)*%
X111270000Y-61110000D03*
D11*
X112190000Y-57460000D03*
D12*
X116190000Y-57460000D03*
D10*
X128730000Y-61110000D03*
D12*
%TO.P,SW22,2,2*%
%TO.N,Net-(SW21-Pad2)*%
X122540000Y-54920000D03*
D11*
X126540000Y-54920000D03*
D10*
X127460000Y-51270000D03*
X127460000Y-68730000D03*
%TO.P,SW22,3,3*%
%TO.N,Net-(D17-DIN)*%
X111270000Y-63650000D03*
%TO.P,SW22,4,4*%
%TO.N,Net-(D21-DOUT)*%
X128730000Y-63650000D03*
%TO.P,SW22,5,5*%
%TO.N,VCC*%
X115080000Y-51270000D03*
X115080000Y-68730000D03*
%TO.P,SW22,6,6*%
%TO.N,GND*%
X124920000Y-51270000D03*
X124920000Y-68730000D03*
%TO.P,SW22,7*%
%TO.N,N/C*%
X112540000Y-51270000D03*
X112540000Y-68730000D03*
%TD*%
%TO.P,SW17,1,1*%
%TO.N,Net-(SW12-Pad1)*%
X91270000Y-61110000D03*
D11*
X92190000Y-57460000D03*
D12*
X96190000Y-57460000D03*
D10*
X108730000Y-61110000D03*
D12*
%TO.P,SW17,2,2*%
%TO.N,Net-(SW16-Pad2)*%
X102540000Y-54920000D03*
D11*
X106540000Y-54920000D03*
D10*
X107460000Y-51270000D03*
X107460000Y-68730000D03*
%TO.P,SW17,3,3*%
%TO.N,Net-(D12-DIN)*%
X91270000Y-63650000D03*
%TO.P,SW17,4,4*%
%TO.N,Net-(D17-DIN)*%
X108730000Y-63650000D03*
%TO.P,SW17,5,5*%
%TO.N,VCC*%
X95080000Y-51270000D03*
X95080000Y-68730000D03*
%TO.P,SW17,6,6*%
%TO.N,GND*%
X104920000Y-51270000D03*
X104920000Y-68730000D03*
%TO.P,SW17,7*%
%TO.N,N/C*%
X92540000Y-51270000D03*
X92540000Y-68730000D03*
%TD*%
%TO.P,SW18,1,1*%
%TO.N,Net-(SW13-Pad1)*%
X91270000Y-81110000D03*
D11*
X92190000Y-77460000D03*
D12*
X96190000Y-77460000D03*
D10*
X108730000Y-81110000D03*
D12*
%TO.P,SW18,2,2*%
%TO.N,Net-(SW16-Pad2)*%
X102540000Y-74920000D03*
D11*
X106540000Y-74920000D03*
D10*
X107460000Y-71270000D03*
X107460000Y-88730000D03*
%TO.P,SW18,3,3*%
%TO.N,Net-(D13-DOUT)*%
X91270000Y-83650000D03*
%TO.P,SW18,4,4*%
%TO.N,Net-(D18-DOUT)*%
X108730000Y-83650000D03*
%TO.P,SW18,5,5*%
%TO.N,VCC*%
X95080000Y-71270000D03*
X95080000Y-88730000D03*
%TO.P,SW18,6,6*%
%TO.N,GND*%
X104920000Y-71270000D03*
X104920000Y-88730000D03*
%TO.P,SW18,7*%
%TO.N,N/C*%
X92540000Y-71270000D03*
X92540000Y-88730000D03*
%TD*%
%TO.P,SW16,1,1*%
%TO.N,Net-(SW1-Pad1)*%
X91270000Y-41110000D03*
D11*
X92190000Y-37460000D03*
D12*
X96190000Y-37460000D03*
D10*
X108730000Y-41110000D03*
D12*
%TO.P,SW16,2,2*%
%TO.N,Net-(SW16-Pad2)*%
X102540000Y-34920000D03*
D11*
X106540000Y-34920000D03*
D10*
X107460000Y-31270000D03*
X107460000Y-48730000D03*
%TO.P,SW16,3,3*%
%TO.N,Net-(D11-DOUT)*%
X91270000Y-43650000D03*
%TO.P,SW16,4,4*%
%TO.N,Net-(D16-DOUT)*%
X108730000Y-43650000D03*
%TO.P,SW16,5,5*%
%TO.N,VCC*%
X95080000Y-31270000D03*
X95080000Y-48730000D03*
%TO.P,SW16,6,6*%
%TO.N,GND*%
X104920000Y-31270000D03*
X104920000Y-48730000D03*
%TO.P,SW16,7*%
%TO.N,N/C*%
X92540000Y-31270000D03*
X92540000Y-48730000D03*
%TD*%
%TO.P,SW25,1,1*%
%TO.N,Net-(SW10-Pad1)*%
X111270000Y-121110000D03*
D11*
X112190000Y-117460000D03*
D12*
X116190000Y-117460000D03*
D10*
X128730000Y-121110000D03*
D12*
%TO.P,SW25,2,2*%
%TO.N,Net-(SW21-Pad2)*%
X122540000Y-114920000D03*
D11*
X126540000Y-114920000D03*
D10*
X127460000Y-111270000D03*
X127460000Y-128730000D03*
%TO.P,SW25,3,3*%
%TO.N,Net-(D20-DOUT)*%
X111270000Y-123650000D03*
%TO.P,SW25,4,4*%
%TO.N,Net-(D25-DOUT)*%
X128730000Y-123650000D03*
%TO.P,SW25,5,5*%
%TO.N,VCC*%
X115080000Y-111270000D03*
X115080000Y-128730000D03*
%TO.P,SW25,6,6*%
%TO.N,GND*%
X124920000Y-111270000D03*
X124920000Y-128730000D03*
%TO.P,SW25,7*%
%TO.N,N/C*%
X112540000Y-111270000D03*
X112540000Y-128730000D03*
%TD*%
%TO.P,SW4,1,1*%
%TO.N,Net-(SW14-Pad1)*%
X31270000Y-101110000D03*
D11*
X32190000Y-97460000D03*
D12*
X36190000Y-97460000D03*
D10*
X48730000Y-101110000D03*
D12*
%TO.P,SW4,2,2*%
%TO.N,Net-(SW1-Pad2)*%
X42540000Y-94920000D03*
D11*
X46540000Y-94920000D03*
D10*
X47460000Y-91270000D03*
X47460000Y-108730000D03*
%TO.P,SW4,3,3*%
%TO.N,Net-(D4-DOUT)*%
X31270000Y-103650000D03*
%TO.P,SW4,4,4*%
%TO.N,Net-(D4-DIN)*%
X48730000Y-103650000D03*
%TO.P,SW4,5,5*%
%TO.N,VCC*%
X35080000Y-91270000D03*
X35080000Y-108730000D03*
%TO.P,SW4,6,6*%
%TO.N,GND*%
X44920000Y-91270000D03*
X44920000Y-108730000D03*
%TO.P,SW4,7*%
%TO.N,N/C*%
X32540000Y-91270000D03*
X32540000Y-108730000D03*
%TD*%
%TO.P,SW23,1,1*%
%TO.N,Net-(SW13-Pad1)*%
X111270000Y-81110000D03*
D11*
X112190000Y-77460000D03*
D12*
X116190000Y-77460000D03*
D10*
X128730000Y-81110000D03*
D12*
%TO.P,SW23,2,2*%
%TO.N,Net-(SW21-Pad2)*%
X122540000Y-74920000D03*
D11*
X126540000Y-74920000D03*
D10*
X127460000Y-71270000D03*
X127460000Y-88730000D03*
%TO.P,SW23,3,3*%
%TO.N,Net-(D18-DOUT)*%
X111270000Y-83650000D03*
%TO.P,SW23,4,4*%
%TO.N,Net-(D23-DOUT)*%
X128730000Y-83650000D03*
%TO.P,SW23,5,5*%
%TO.N,VCC*%
X115080000Y-71270000D03*
X115080000Y-88730000D03*
%TO.P,SW23,6,6*%
%TO.N,GND*%
X124920000Y-71270000D03*
X124920000Y-88730000D03*
%TO.P,SW23,7*%
%TO.N,N/C*%
X112540000Y-71270000D03*
X112540000Y-88730000D03*
%TD*%
%TO.P,SW12,1,1*%
%TO.N,Net-(SW12-Pad1)*%
X71270000Y-61110000D03*
D11*
X72190000Y-57460000D03*
D12*
X76190000Y-57460000D03*
D10*
X88730000Y-61110000D03*
D12*
%TO.P,SW12,2,2*%
%TO.N,Net-(SW11-Pad2)*%
X82540000Y-54920000D03*
D11*
X86540000Y-54920000D03*
D10*
X87460000Y-51270000D03*
X87460000Y-68730000D03*
%TO.P,SW12,3,3*%
%TO.N,Net-(D12-DOUT)*%
X71270000Y-63650000D03*
%TO.P,SW12,4,4*%
%TO.N,Net-(D12-DIN)*%
X88730000Y-63650000D03*
%TO.P,SW12,5,5*%
%TO.N,VCC*%
X75080000Y-51270000D03*
X75080000Y-68730000D03*
%TO.P,SW12,6,6*%
%TO.N,GND*%
X84920000Y-51270000D03*
X84920000Y-68730000D03*
%TO.P,SW12,7*%
%TO.N,N/C*%
X72540000Y-51270000D03*
X72540000Y-68730000D03*
%TD*%
%TO.P,SW5,1,1*%
%TO.N,Net-(SW10-Pad1)*%
X31270000Y-121110000D03*
D11*
X32190000Y-117460000D03*
D12*
X36190000Y-117460000D03*
D10*
X48730000Y-121110000D03*
D12*
%TO.P,SW5,2,2*%
%TO.N,Net-(SW1-Pad2)*%
X42540000Y-114920000D03*
D11*
X46540000Y-114920000D03*
D10*
X47460000Y-111270000D03*
X47460000Y-128730000D03*
%TO.P,SW5,3,3*%
%TO.N,Net-(D4-DOUT)*%
X31270000Y-123650000D03*
%TO.P,SW5,4,4*%
%TO.N,Net-(D10-DIN)*%
X48730000Y-123650000D03*
%TO.P,SW5,5,5*%
%TO.N,VCC*%
X35080000Y-111270000D03*
X35080000Y-128730000D03*
%TO.P,SW5,6,6*%
%TO.N,GND*%
X44920000Y-111270000D03*
X44920000Y-128730000D03*
%TO.P,SW5,7*%
%TO.N,N/C*%
X32540000Y-111270000D03*
X32540000Y-128730000D03*
%TD*%
%TO.P,SW10,1,1*%
%TO.N,Net-(SW10-Pad1)*%
X51270000Y-121110000D03*
D11*
X52190000Y-117460000D03*
D12*
X56190000Y-117460000D03*
D10*
X68730000Y-121110000D03*
D12*
%TO.P,SW10,2,2*%
%TO.N,Net-(SW10-Pad2)*%
X62540000Y-114920000D03*
D11*
X66540000Y-114920000D03*
D10*
X67460000Y-111270000D03*
X67460000Y-128730000D03*
%TO.P,SW10,3,3*%
%TO.N,Net-(D10-DIN)*%
X51270000Y-123650000D03*
%TO.P,SW10,4,4*%
%TO.N,Net-(D10-DOUT)*%
X68730000Y-123650000D03*
%TO.P,SW10,5,5*%
%TO.N,VCC*%
X55080000Y-111270000D03*
X55080000Y-128730000D03*
%TO.P,SW10,6,6*%
%TO.N,GND*%
X64920000Y-111270000D03*
X64920000Y-128730000D03*
%TO.P,SW10,7*%
%TO.N,N/C*%
X52540000Y-111270000D03*
X52540000Y-128730000D03*
%TD*%
%TO.P,SW15,1,1*%
%TO.N,Net-(SW10-Pad1)*%
X71270000Y-121110000D03*
D11*
X72190000Y-117460000D03*
D12*
X76190000Y-117460000D03*
D10*
X88730000Y-121110000D03*
D12*
%TO.P,SW15,2,2*%
%TO.N,Net-(SW11-Pad2)*%
X82540000Y-114920000D03*
D11*
X86540000Y-114920000D03*
D10*
X87460000Y-111270000D03*
X87460000Y-128730000D03*
%TO.P,SW15,3,3*%
%TO.N,Net-(D10-DOUT)*%
X71270000Y-123650000D03*
%TO.P,SW15,4,4*%
%TO.N,Net-(D15-DOUT)*%
X88730000Y-123650000D03*
%TO.P,SW15,5,5*%
%TO.N,VCC*%
X75080000Y-111270000D03*
X75080000Y-128730000D03*
%TO.P,SW15,6,6*%
%TO.N,GND*%
X84920000Y-111270000D03*
X84920000Y-128730000D03*
%TO.P,SW15,7*%
%TO.N,N/C*%
X72540000Y-111270000D03*
X72540000Y-128730000D03*
%TD*%
%TO.P,SW7,1,1*%
%TO.N,Net-(SW12-Pad1)*%
X51270000Y-61110000D03*
D11*
X52190000Y-57460000D03*
D12*
X56190000Y-57460000D03*
D10*
X68730000Y-61110000D03*
D12*
%TO.P,SW7,2,2*%
%TO.N,Net-(SW10-Pad2)*%
X62540000Y-54920000D03*
D11*
X66540000Y-54920000D03*
D10*
X67460000Y-51270000D03*
X67460000Y-68730000D03*
%TO.P,SW7,3,3*%
%TO.N,Net-(D2-DIN)*%
X51270000Y-63650000D03*
%TO.P,SW7,4,4*%
%TO.N,Net-(D12-DOUT)*%
X68730000Y-63650000D03*
%TO.P,SW7,5,5*%
%TO.N,VCC*%
X55080000Y-51270000D03*
X55080000Y-68730000D03*
%TO.P,SW7,6,6*%
%TO.N,GND*%
X64920000Y-51270000D03*
X64920000Y-68730000D03*
%TO.P,SW7,7*%
%TO.N,N/C*%
X52540000Y-51270000D03*
X52540000Y-68730000D03*
%TD*%
%TO.P,SW3,1,1*%
%TO.N,Net-(SW13-Pad1)*%
X31270000Y-81110000D03*
D11*
X32190000Y-77460000D03*
D12*
X36190000Y-77460000D03*
D10*
X48730000Y-81110000D03*
D12*
%TO.P,SW3,2,2*%
%TO.N,Net-(SW1-Pad2)*%
X42540000Y-74920000D03*
D11*
X46540000Y-74920000D03*
D10*
X47460000Y-71270000D03*
X47460000Y-88730000D03*
%TO.P,SW3,3,3*%
%TO.N,Net-(D2-DOUT)*%
X31270000Y-83650000D03*
%TO.P,SW3,4,4*%
%TO.N,Net-(D3-DOUT)*%
X48730000Y-83650000D03*
%TO.P,SW3,5,5*%
%TO.N,VCC*%
X35080000Y-71270000D03*
X35080000Y-88730000D03*
%TO.P,SW3,6,6*%
%TO.N,GND*%
X44920000Y-71270000D03*
X44920000Y-88730000D03*
%TO.P,SW3,7*%
%TO.N,N/C*%
X32540000Y-71270000D03*
X32540000Y-88730000D03*
%TD*%
%TO.P,SW11,1,1*%
%TO.N,Net-(SW1-Pad1)*%
X71270000Y-41110000D03*
D11*
X72190000Y-37460000D03*
D12*
X76190000Y-37460000D03*
D10*
X88730000Y-41110000D03*
D12*
%TO.P,SW11,2,2*%
%TO.N,Net-(SW11-Pad2)*%
X82540000Y-34920000D03*
D11*
X86540000Y-34920000D03*
D10*
X87460000Y-31270000D03*
X87460000Y-48730000D03*
%TO.P,SW11,3,3*%
%TO.N,Net-(D11-DIN)*%
X71270000Y-43650000D03*
%TO.P,SW11,4,4*%
%TO.N,Net-(D11-DOUT)*%
X88730000Y-43650000D03*
%TO.P,SW11,5,5*%
%TO.N,VCC*%
X75080000Y-31270000D03*
X75080000Y-48730000D03*
%TO.P,SW11,6,6*%
%TO.N,GND*%
X84920000Y-31270000D03*
X84920000Y-48730000D03*
%TO.P,SW11,7*%
%TO.N,N/C*%
X72540000Y-31270000D03*
X72540000Y-48730000D03*
%TD*%
%TO.P,SW20,1,1*%
%TO.N,Net-(SW10-Pad1)*%
X91270000Y-121110000D03*
D11*
X92190000Y-117460000D03*
D12*
X96190000Y-117460000D03*
D10*
X108730000Y-121110000D03*
D12*
%TO.P,SW20,2,2*%
%TO.N,Net-(SW16-Pad2)*%
X102540000Y-114920000D03*
D11*
X106540000Y-114920000D03*
D10*
X107460000Y-111270000D03*
X107460000Y-128730000D03*
%TO.P,SW20,3,3*%
%TO.N,Net-(D15-DOUT)*%
X91270000Y-123650000D03*
%TO.P,SW20,4,4*%
%TO.N,Net-(D20-DOUT)*%
X108730000Y-123650000D03*
%TO.P,SW20,5,5*%
%TO.N,VCC*%
X95080000Y-111270000D03*
X95080000Y-128730000D03*
%TO.P,SW20,6,6*%
%TO.N,GND*%
X104920000Y-111270000D03*
X104920000Y-128730000D03*
%TO.P,SW20,7*%
%TO.N,N/C*%
X92540000Y-111270000D03*
X92540000Y-128730000D03*
%TD*%
%TO.P,SW21,1,1*%
%TO.N,Net-(SW1-Pad1)*%
X111270000Y-41110000D03*
D11*
X112190000Y-37460000D03*
D12*
X116190000Y-37460000D03*
D10*
X128730000Y-41110000D03*
D12*
%TO.P,SW21,2,2*%
%TO.N,Net-(SW21-Pad2)*%
X122540000Y-34920000D03*
D11*
X126540000Y-34920000D03*
D10*
X127460000Y-31270000D03*
X127460000Y-48730000D03*
%TO.P,SW21,3,3*%
%TO.N,Net-(D16-DOUT)*%
X111270000Y-43650000D03*
%TO.P,SW21,4,4*%
%TO.N,Net-(D21-DOUT)*%
X128730000Y-43650000D03*
%TO.P,SW21,5,5*%
%TO.N,VCC*%
X115080000Y-31270000D03*
X115080000Y-48730000D03*
%TO.P,SW21,6,6*%
%TO.N,GND*%
X124920000Y-31270000D03*
X124920000Y-48730000D03*
%TO.P,SW21,7*%
%TO.N,N/C*%
X112540000Y-31270000D03*
X112540000Y-48730000D03*
%TD*%
%TO.P,SW2,1,1*%
%TO.N,Net-(SW12-Pad1)*%
X31270000Y-61110000D03*
D11*
X32190000Y-57460000D03*
D12*
X36190000Y-57460000D03*
D10*
X48730000Y-61110000D03*
D12*
%TO.P,SW2,2,2*%
%TO.N,Net-(SW1-Pad2)*%
X42540000Y-54920000D03*
D11*
X46540000Y-54920000D03*
D10*
X47460000Y-51270000D03*
X47460000Y-68730000D03*
%TO.P,SW2,3,3*%
%TO.N,Net-(D2-DOUT)*%
X31270000Y-63650000D03*
%TO.P,SW2,4,4*%
%TO.N,Net-(D2-DIN)*%
X48730000Y-63650000D03*
%TO.P,SW2,5,5*%
%TO.N,VCC*%
X35080000Y-51270000D03*
X35080000Y-68730000D03*
%TO.P,SW2,6,6*%
%TO.N,GND*%
X44920000Y-51270000D03*
X44920000Y-68730000D03*
%TO.P,SW2,7*%
%TO.N,N/C*%
X32540000Y-51270000D03*
X32540000Y-68730000D03*
%TD*%
%TO.P,SW6,1,1*%
%TO.N,Net-(SW1-Pad1)*%
X51270000Y-41110000D03*
D11*
X52190000Y-37460000D03*
D12*
X56190000Y-37460000D03*
D10*
X68730000Y-41110000D03*
D12*
%TO.P,SW6,2,2*%
%TO.N,Net-(SW10-Pad2)*%
X62540000Y-34920000D03*
D11*
X66540000Y-34920000D03*
D10*
X67460000Y-31270000D03*
X67460000Y-48730000D03*
%TO.P,SW6,3,3*%
%TO.N,Net-(D1-DOUT)*%
X51270000Y-43650000D03*
%TO.P,SW6,4,4*%
%TO.N,Net-(D11-DIN)*%
X68730000Y-43650000D03*
%TO.P,SW6,5,5*%
%TO.N,VCC*%
X55080000Y-31270000D03*
X55080000Y-48730000D03*
%TO.P,SW6,6,6*%
%TO.N,GND*%
X64920000Y-31270000D03*
X64920000Y-48730000D03*
%TO.P,SW6,7*%
%TO.N,N/C*%
X52540000Y-31270000D03*
X52540000Y-48730000D03*
%TD*%
%TO.P,SW9,1,1*%
%TO.N,Net-(SW14-Pad1)*%
X51270000Y-101110000D03*
D11*
X52190000Y-97460000D03*
D12*
X56190000Y-97460000D03*
D10*
X68730000Y-101110000D03*
D12*
%TO.P,SW9,2,2*%
%TO.N,Net-(SW10-Pad2)*%
X62540000Y-94920000D03*
D11*
X66540000Y-94920000D03*
D10*
X67460000Y-91270000D03*
X67460000Y-108730000D03*
%TO.P,SW9,3,3*%
%TO.N,Net-(D4-DIN)*%
X51270000Y-103650000D03*
%TO.P,SW9,4,4*%
%TO.N,Net-(D14-DOUT)*%
X68730000Y-103650000D03*
%TO.P,SW9,5,5*%
%TO.N,VCC*%
X55080000Y-91270000D03*
X55080000Y-108730000D03*
%TO.P,SW9,6,6*%
%TO.N,GND*%
X64920000Y-91270000D03*
X64920000Y-108730000D03*
%TO.P,SW9,7*%
%TO.N,N/C*%
X52540000Y-91270000D03*
X52540000Y-108730000D03*
%TD*%
%TO.P,SW13,1,1*%
%TO.N,Net-(SW13-Pad1)*%
X71270000Y-81110000D03*
D11*
X72190000Y-77460000D03*
D12*
X76190000Y-77460000D03*
D10*
X88730000Y-81110000D03*
D12*
%TO.P,SW13,2,2*%
%TO.N,Net-(SW11-Pad2)*%
X82540000Y-74920000D03*
D11*
X86540000Y-74920000D03*
D10*
X87460000Y-71270000D03*
X87460000Y-88730000D03*
%TO.P,SW13,3,3*%
%TO.N,Net-(D13-DIN)*%
X71270000Y-83650000D03*
%TO.P,SW13,4,4*%
%TO.N,Net-(D13-DOUT)*%
X88730000Y-83650000D03*
%TO.P,SW13,5,5*%
%TO.N,VCC*%
X75080000Y-71270000D03*
X75080000Y-88730000D03*
%TO.P,SW13,6,6*%
%TO.N,GND*%
X84920000Y-71270000D03*
X84920000Y-88730000D03*
%TO.P,SW13,7*%
%TO.N,N/C*%
X72540000Y-71270000D03*
X72540000Y-88730000D03*
%TD*%
%TO.P,SW14,1,1*%
%TO.N,Net-(SW14-Pad1)*%
X71270000Y-101110000D03*
D11*
X72190000Y-97460000D03*
D12*
X76190000Y-97460000D03*
D10*
X88730000Y-101110000D03*
D12*
%TO.P,SW14,2,2*%
%TO.N,Net-(SW11-Pad2)*%
X82540000Y-94920000D03*
D11*
X86540000Y-94920000D03*
D10*
X87460000Y-91270000D03*
X87460000Y-108730000D03*
%TO.P,SW14,3,3*%
%TO.N,Net-(D14-DOUT)*%
X71270000Y-103650000D03*
%TO.P,SW14,4,4*%
%TO.N,Net-(D14-DIN)*%
X88730000Y-103650000D03*
%TO.P,SW14,5,5*%
%TO.N,VCC*%
X75080000Y-91270000D03*
X75080000Y-108730000D03*
%TO.P,SW14,6,6*%
%TO.N,GND*%
X84920000Y-91270000D03*
X84920000Y-108730000D03*
%TO.P,SW14,7*%
%TO.N,N/C*%
X72540000Y-91270000D03*
X72540000Y-108730000D03*
%TD*%
%TO.P,SW19,1,1*%
%TO.N,Net-(SW14-Pad1)*%
X91270000Y-101110000D03*
D11*
X92190000Y-97460000D03*
D12*
X96190000Y-97460000D03*
D10*
X108730000Y-101110000D03*
D12*
%TO.P,SW19,2,2*%
%TO.N,Net-(SW16-Pad2)*%
X102540000Y-94920000D03*
D11*
X106540000Y-94920000D03*
D10*
X107460000Y-91270000D03*
X107460000Y-108730000D03*
%TO.P,SW19,3,3*%
%TO.N,Net-(D14-DIN)*%
X91270000Y-103650000D03*
%TO.P,SW19,4,4*%
%TO.N,Net-(D19-DIN)*%
X108730000Y-103650000D03*
%TO.P,SW19,5,5*%
%TO.N,VCC*%
X95080000Y-91270000D03*
X95080000Y-108730000D03*
%TO.P,SW19,6,6*%
%TO.N,GND*%
X104920000Y-91270000D03*
X104920000Y-108730000D03*
%TO.P,SW19,7*%
%TO.N,N/C*%
X92540000Y-91270000D03*
X92540000Y-108730000D03*
%TD*%
%TO.P,SW24,1,1*%
%TO.N,Net-(SW14-Pad1)*%
X111270000Y-101110000D03*
D11*
X112190000Y-97460000D03*
D12*
X116190000Y-97460000D03*
D10*
X128730000Y-101110000D03*
D12*
%TO.P,SW24,2,2*%
%TO.N,Net-(SW21-Pad2)*%
X122540000Y-94920000D03*
D11*
X126540000Y-94920000D03*
D10*
X127460000Y-91270000D03*
X127460000Y-108730000D03*
%TO.P,SW24,3,3*%
%TO.N,Net-(D19-DIN)*%
X111270000Y-103650000D03*
%TO.P,SW24,4,4*%
%TO.N,Net-(D23-DOUT)*%
X128730000Y-103650000D03*
%TO.P,SW24,5,5*%
%TO.N,VCC*%
X115080000Y-91270000D03*
X115080000Y-108730000D03*
%TO.P,SW24,6,6*%
%TO.N,GND*%
X124920000Y-91270000D03*
X124920000Y-108730000D03*
%TO.P,SW24,7*%
%TO.N,N/C*%
X112540000Y-91270000D03*
X112540000Y-108730000D03*
%TD*%
%TO.P,SW8,1,1*%
%TO.N,Net-(SW13-Pad1)*%
X51270000Y-81110000D03*
D11*
X52190000Y-77460000D03*
D12*
X56190000Y-77460000D03*
D10*
X68730000Y-81110000D03*
D12*
%TO.P,SW8,2,2*%
%TO.N,Net-(SW10-Pad2)*%
X62540000Y-74920000D03*
D11*
X66540000Y-74920000D03*
D10*
X67460000Y-71270000D03*
X67460000Y-88730000D03*
%TO.P,SW8,3,3*%
%TO.N,Net-(D3-DOUT)*%
X51270000Y-83650000D03*
%TO.P,SW8,4,4*%
%TO.N,Net-(D13-DIN)*%
X68730000Y-83650000D03*
%TO.P,SW8,5,5*%
%TO.N,VCC*%
X55080000Y-71270000D03*
X55080000Y-88730000D03*
%TO.P,SW8,6,6*%
%TO.N,GND*%
X64920000Y-71270000D03*
X64920000Y-88730000D03*
%TO.P,SW8,7*%
%TO.N,N/C*%
X52540000Y-71270000D03*
X52540000Y-88730000D03*
%TD*%
D13*
%TO.N,GND*%
X45720000Y-81280000D03*
X45720000Y-101600000D03*
X45500000Y-122500000D03*
X65500000Y-122500000D03*
X85500000Y-122500000D03*
X105500000Y-122000000D03*
X125500000Y-122500000D03*
X125500000Y-102000000D03*
X105500000Y-102500000D03*
X85500000Y-102500000D03*
X65500000Y-102500000D03*
X65500000Y-82500000D03*
X85500000Y-82500000D03*
X105500000Y-82500000D03*
X125500000Y-83000000D03*
X125500000Y-62000000D03*
X105500000Y-62000000D03*
X85500000Y-62000000D03*
X65500000Y-62000000D03*
X45500000Y-62500000D03*
X125500000Y-42500000D03*
X105500000Y-42500000D03*
X85500000Y-42000000D03*
X64000000Y-43180000D03*
X45633957Y-42366043D03*
%TD*%
D14*
%TO.N,Net-(D4-DIN)*%
X48730000Y-103650000D02*
X49580000Y-102800000D01*
X49580000Y-102800000D02*
X50420000Y-102800000D01*
X50420000Y-102800000D02*
X51270000Y-103650000D01*
%TO.N,GND*%
X64920000Y-42160000D02*
X64920000Y-42000000D01*
X64000000Y-43080000D02*
X64920000Y-42160000D01*
X64000000Y-43180000D02*
X64000000Y-43080000D01*
X45720000Y-81280000D02*
X44920000Y-81280000D01*
X44920000Y-80420000D02*
X44920000Y-81280000D01*
X44920000Y-101600000D02*
X44920000Y-108329000D01*
X45720000Y-101600000D02*
X44920000Y-101600000D01*
X44920000Y-120920000D02*
X44920000Y-122500000D01*
X40500000Y-113500000D02*
X40500000Y-116500000D01*
X42730000Y-111270000D02*
X40500000Y-113500000D01*
X40500000Y-116500000D02*
X44920000Y-120920000D01*
X44920000Y-111270000D02*
X42730000Y-111270000D01*
X60500000Y-116080000D02*
X64920000Y-120500000D01*
X64920000Y-120500000D02*
X64920000Y-122500000D01*
X62730000Y-111270000D02*
X60500000Y-113500000D01*
X64920000Y-111270000D02*
X62730000Y-111270000D01*
X60500000Y-113500000D02*
X60500000Y-116080000D01*
X84920000Y-120420000D02*
X84920000Y-122500000D01*
X80500000Y-116000000D02*
X84920000Y-120420000D01*
X80500000Y-113500000D02*
X80500000Y-116000000D01*
X82730000Y-111270000D02*
X80500000Y-113500000D01*
X83717919Y-111270000D02*
X82730000Y-111270000D01*
X100500000Y-113683139D02*
X100500000Y-115460000D01*
X100500000Y-115460000D02*
X104920000Y-119880000D01*
X102913139Y-111270000D02*
X100500000Y-113683139D01*
X104920000Y-111270000D02*
X102913139Y-111270000D01*
X104920000Y-119880000D02*
X104920000Y-122000000D01*
X124920000Y-120420000D02*
X124920000Y-122500000D01*
X120500000Y-116000000D02*
X124920000Y-120420000D01*
X120500000Y-113500000D02*
X120500000Y-116000000D01*
X122730000Y-111270000D02*
X120500000Y-113500000D01*
X124920000Y-111270000D02*
X122730000Y-111270000D01*
X123230000Y-91270000D02*
X124920000Y-91270000D01*
X120500000Y-94000000D02*
X123230000Y-91270000D01*
X124920000Y-99920000D02*
X120500000Y-95500000D01*
X120500000Y-95500000D02*
X120500000Y-94000000D01*
X124920000Y-101500000D02*
X124920000Y-99920000D01*
X40500000Y-73500000D02*
X40500000Y-76000000D01*
X42730000Y-71270000D02*
X40500000Y-73500000D01*
X40500000Y-76000000D02*
X44920000Y-80420000D01*
X44920000Y-71270000D02*
X42730000Y-71270000D01*
X44920000Y-81280000D02*
X44920000Y-88329000D01*
%TO.N,VCC*%
X57591000Y-73781000D02*
X55080000Y-71270000D01*
X57591000Y-82569000D02*
X57591000Y-73781000D01*
X55080000Y-85080000D02*
X57591000Y-82569000D01*
X55080000Y-88730000D02*
X55080000Y-85080000D01*
%TO.N,GND*%
X60500000Y-75500000D02*
X64920000Y-79920000D01*
X64920000Y-79920000D02*
X64920000Y-82500000D01*
X60500000Y-74069500D02*
X60500000Y-75500000D01*
X63299500Y-71270000D02*
X60500000Y-74069500D01*
X64920000Y-71270000D02*
X63299500Y-71270000D01*
X84920000Y-80420000D02*
X84920000Y-82000000D01*
X80500000Y-73750000D02*
X80500000Y-76000000D01*
X82980000Y-71270000D02*
X80500000Y-73750000D01*
X80500000Y-76000000D02*
X84920000Y-80420000D01*
X84920000Y-71270000D02*
X82980000Y-71270000D01*
X102853186Y-71270000D02*
X104920000Y-71270000D01*
X100500000Y-76000000D02*
X100500000Y-73623186D01*
X100500000Y-73623186D02*
X102853186Y-71270000D01*
X104920000Y-80420000D02*
X100500000Y-76000000D01*
X104920000Y-82000000D02*
X104920000Y-80420000D01*
X120500000Y-73500000D02*
X122730000Y-71270000D01*
X120500000Y-76000000D02*
X120500000Y-73500000D01*
X124920000Y-80420000D02*
X120500000Y-76000000D01*
X124920000Y-82500000D02*
X124920000Y-80420000D01*
X122730000Y-71270000D02*
X124920000Y-71270000D01*
X80500000Y-54000000D02*
X83230000Y-51270000D01*
X80500000Y-55750000D02*
X80500000Y-54000000D01*
X85000000Y-60250000D02*
X80500000Y-55750000D01*
X85000000Y-61500000D02*
X85000000Y-60250000D01*
X83230000Y-51270000D02*
X84920000Y-51270000D01*
X62730000Y-51270000D02*
X64920000Y-51270000D01*
X60500000Y-56000000D02*
X60500000Y-53500000D01*
X65000000Y-60500000D02*
X60500000Y-56000000D01*
X65000000Y-61500000D02*
X65000000Y-60500000D01*
X60500000Y-53500000D02*
X62730000Y-51270000D01*
X44920000Y-60951052D02*
X44920000Y-61500000D01*
X42730000Y-51270000D02*
X40500000Y-53500000D01*
X44920000Y-51270000D02*
X42730000Y-51270000D01*
X40500000Y-53500000D02*
X40500000Y-56531052D01*
X40500000Y-56531052D02*
X44920000Y-60951052D01*
%TO.N,VCC*%
X97591000Y-80909000D02*
X95080000Y-83420000D01*
X95080000Y-83420000D02*
X95080000Y-88730000D01*
X97591000Y-73781000D02*
X97591000Y-80909000D01*
X95080000Y-71270000D02*
X97591000Y-73781000D01*
X95080000Y-63420000D02*
X95080000Y-68730000D01*
X97591000Y-60909000D02*
X95080000Y-63420000D01*
X97591000Y-53781000D02*
X97591000Y-60909000D01*
X95080000Y-51270000D02*
X97591000Y-53781000D01*
X97591000Y-40909000D02*
X95080000Y-43420000D01*
X97591000Y-33781000D02*
X97591000Y-40909000D01*
X95080000Y-43420000D02*
X95080000Y-48730000D01*
X95080000Y-31270000D02*
X97591000Y-33781000D01*
X115080000Y-64420000D02*
X115080000Y-68730000D01*
X117649000Y-61851000D02*
X115080000Y-64420000D01*
X117649000Y-53839000D02*
X117649000Y-61851000D01*
X115080000Y-51270000D02*
X117649000Y-53839000D01*
X115080000Y-82920000D02*
X115080000Y-88730000D01*
X117591000Y-80409000D02*
X115080000Y-82920000D01*
X117591000Y-73781000D02*
X117591000Y-80409000D01*
X115080000Y-71270000D02*
X117591000Y-73781000D01*
X115080000Y-103920000D02*
X115080000Y-108730000D01*
X117591000Y-101409000D02*
X115080000Y-103920000D01*
X117591000Y-93781000D02*
X117591000Y-101409000D01*
X115080000Y-91270000D02*
X117591000Y-93781000D01*
X115080000Y-122920000D02*
X115080000Y-128730000D01*
X117591000Y-120409000D02*
X115080000Y-122920000D01*
X117591000Y-113781000D02*
X117591000Y-120409000D01*
X115080000Y-111270000D02*
X117591000Y-113781000D01*
%TO.N,GND*%
X45500000Y-122500000D02*
X44920000Y-122500000D01*
X44920000Y-128730000D02*
X44920000Y-122500000D01*
X65500000Y-122500000D02*
X64920000Y-122500000D01*
X85500000Y-122500000D02*
X84920000Y-122500000D01*
X105500000Y-122000000D02*
X104920000Y-122000000D01*
X124920000Y-122500000D02*
X125500000Y-122500000D01*
X124920000Y-122500000D02*
X124920000Y-128730000D01*
X125500000Y-102000000D02*
X125420000Y-102000000D01*
X125420000Y-102000000D02*
X124920000Y-101500000D01*
X105500000Y-102080000D02*
X104920000Y-101500000D01*
X104920000Y-101500000D02*
X104920000Y-108730000D01*
X105500000Y-102500000D02*
X105500000Y-102080000D01*
X85500000Y-102500000D02*
X85420000Y-102500000D01*
X85420000Y-102500000D02*
X84920000Y-102000000D01*
X84920000Y-102000000D02*
X84920000Y-108730000D01*
X64920000Y-102500000D02*
X65500000Y-102500000D01*
X64920000Y-102500000D02*
X64920000Y-108730000D01*
X65500000Y-82500000D02*
X64920000Y-82500000D01*
X85420000Y-82500000D02*
X84920000Y-82000000D01*
X85500000Y-82500000D02*
X85420000Y-82500000D01*
X84920000Y-82000000D02*
X84920000Y-88730000D01*
X105000000Y-82000000D02*
X104920000Y-82000000D01*
X105500000Y-82500000D02*
X105000000Y-82000000D01*
X124920000Y-82500000D02*
X125000000Y-82500000D01*
X125000000Y-82500000D02*
X125500000Y-83000000D01*
X125420000Y-62000000D02*
X124920000Y-61500000D01*
X125500000Y-62000000D02*
X125420000Y-62000000D01*
X124920000Y-61500000D02*
X124920000Y-60472811D01*
X105420000Y-62000000D02*
X104920000Y-61500000D01*
X105500000Y-62000000D02*
X105420000Y-62000000D01*
X104920000Y-60420000D02*
X104920000Y-61500000D01*
X85500000Y-62000000D02*
X85000000Y-61500000D01*
X65500000Y-62000000D02*
X65000000Y-61500000D01*
X44920000Y-61920000D02*
X45500000Y-62500000D01*
X44920000Y-61500000D02*
X44920000Y-61920000D01*
X44920000Y-61500000D02*
X44920000Y-68329000D01*
X125420000Y-42500000D02*
X124920000Y-42000000D01*
X125500000Y-42500000D02*
X125420000Y-42500000D01*
X124920000Y-48730000D02*
X124920000Y-42000000D01*
X105500000Y-42920000D02*
X104920000Y-43500000D01*
X105500000Y-42500000D02*
X105500000Y-42920000D01*
X104920000Y-40420000D02*
X104920000Y-43500000D01*
X84920000Y-48730000D02*
X84920000Y-41500000D01*
X85420000Y-42000000D02*
X84920000Y-41500000D01*
X85500000Y-42000000D02*
X85420000Y-42000000D01*
X45500000Y-42500000D02*
X45000000Y-42500000D01*
X45633957Y-42366043D02*
X45500000Y-42500000D01*
X44920000Y-42500000D02*
X44920000Y-48730000D01*
X64920000Y-48730000D02*
X64920000Y-42000000D01*
X44920000Y-40420000D02*
X44920000Y-42500000D01*
X40500000Y-36000000D02*
X44920000Y-40420000D01*
X40500000Y-34000000D02*
X40500000Y-36000000D01*
X43230000Y-31270000D02*
X40500000Y-34000000D01*
X44920000Y-31270000D02*
X43230000Y-31270000D01*
X84920000Y-122500000D02*
X84920000Y-128730000D01*
X64920000Y-122500000D02*
X64920000Y-128730000D01*
%TO.N,Net-(SW21-Pad2)*%
X126540000Y-127810000D02*
X127460000Y-128730000D01*
X126540000Y-114920000D02*
X126540000Y-127810000D01*
%TO.N,Net-(SW16-Pad2)*%
X106540000Y-127810000D02*
X106540000Y-114920000D01*
X107460000Y-128730000D02*
X106540000Y-127810000D01*
%TO.N,VCC*%
X35080000Y-113580000D02*
X35080000Y-111270000D01*
X37649000Y-116149000D02*
X35080000Y-113580000D01*
X37649000Y-122851000D02*
X37649000Y-116149000D01*
X35080000Y-125420000D02*
X37649000Y-122851000D01*
X35080000Y-128730000D02*
X35080000Y-125420000D01*
%TO.N,GND*%
X64920000Y-100420000D02*
X64920000Y-102500000D01*
X60500000Y-96000000D02*
X64920000Y-100420000D01*
X60500000Y-93500000D02*
X60500000Y-96000000D01*
X62730000Y-91270000D02*
X60500000Y-93500000D01*
X64920000Y-91270000D02*
X62730000Y-91270000D01*
%TO.N,VCC*%
X57649000Y-102851000D02*
X57649000Y-101000000D01*
X55080000Y-105420000D02*
X57649000Y-102851000D01*
X55080000Y-108730000D02*
X55080000Y-105420000D01*
X57649000Y-93839000D02*
X57649000Y-101000000D01*
X55080000Y-91270000D02*
X57649000Y-93839000D01*
%TO.N,GND*%
X80500000Y-96000000D02*
X84920000Y-100420000D01*
X80500000Y-93500000D02*
X80500000Y-96000000D01*
X84920000Y-100420000D02*
X84920000Y-102000000D01*
X82730000Y-91270000D02*
X80500000Y-93500000D01*
X83717919Y-91270000D02*
X82730000Y-91270000D01*
X100500000Y-96000000D02*
X104920000Y-100420000D01*
X100500000Y-93500000D02*
X100500000Y-96000000D01*
X104920000Y-100420000D02*
X104920000Y-101500000D01*
X102730000Y-91270000D02*
X100500000Y-93500000D01*
X104920000Y-91270000D02*
X102730000Y-91270000D01*
%TO.N,Net-(SW21-Pad2)*%
X126540000Y-105540000D02*
X127460000Y-106460000D01*
X126540000Y-94920000D02*
X126540000Y-105540000D01*
X127460000Y-106460000D02*
X127460000Y-108730000D01*
X127460000Y-86460000D02*
X126540000Y-85540000D01*
X127460000Y-88730000D02*
X127460000Y-86460000D01*
X126540000Y-85540000D02*
X126540000Y-74920000D01*
%TO.N,Net-(SW16-Pad2)*%
X107460000Y-86460000D02*
X107460000Y-88730000D01*
X106540000Y-85540000D02*
X107460000Y-86460000D01*
X106540000Y-74920000D02*
X106540000Y-85540000D01*
X106540000Y-74920000D02*
X106540000Y-72190000D01*
X106540000Y-72190000D02*
X107460000Y-71270000D01*
%TO.N,Net-(SW11-Pad2)*%
X86540000Y-85540000D02*
X86540000Y-74920000D01*
X87460000Y-86460000D02*
X86540000Y-85540000D01*
X87460000Y-88730000D02*
X87460000Y-86460000D01*
%TO.N,Net-(SW10-Pad2)*%
X67460000Y-86460000D02*
X67460000Y-88730000D01*
X66540000Y-85540000D02*
X67460000Y-86460000D01*
X66540000Y-74920000D02*
X66540000Y-85540000D01*
%TO.N,Net-(SW1-Pad2)*%
X47460000Y-66460000D02*
X47460000Y-68730000D01*
X46540000Y-65540000D02*
X47460000Y-66460000D01*
X46540000Y-54920000D02*
X46540000Y-65540000D01*
%TO.N,Net-(SW10-Pad2)*%
X67460000Y-66460000D02*
X67460000Y-68730000D01*
X66540000Y-65540000D02*
X67460000Y-66460000D01*
X66540000Y-54920000D02*
X66540000Y-65540000D01*
%TO.N,Net-(SW11-Pad2)*%
X87460000Y-66460000D02*
X86540000Y-65540000D01*
X86540000Y-65540000D02*
X86540000Y-54920000D01*
X87460000Y-68730000D02*
X87460000Y-66460000D01*
%TO.N,Net-(SW16-Pad2)*%
X106540000Y-65540000D02*
X107460000Y-66460000D01*
X107460000Y-66460000D02*
X107460000Y-68730000D01*
X106540000Y-54920000D02*
X106540000Y-65540000D01*
X106540000Y-52190000D02*
X106540000Y-54920000D01*
X107460000Y-51270000D02*
X106540000Y-52190000D01*
%TO.N,GND*%
X122730000Y-51270000D02*
X124920000Y-51270000D01*
X120500000Y-56052811D02*
X120500000Y-53500000D01*
X124920000Y-60472811D02*
X120500000Y-56052811D01*
X120500000Y-53500000D02*
X122730000Y-51270000D01*
X124920000Y-68730000D02*
X124920000Y-61500000D01*
%TO.N,Net-(SW21-Pad2)*%
X127460000Y-65420000D02*
X127460000Y-68730000D01*
X126540000Y-64500000D02*
X127460000Y-65420000D01*
X126540000Y-54920000D02*
X126540000Y-64500000D01*
%TO.N,Net-(D21-DOUT)*%
X127000000Y-60500000D02*
X127000000Y-61920000D01*
X128730000Y-58770000D02*
X127000000Y-60500000D01*
X127000000Y-61920000D02*
X128730000Y-63650000D01*
X128730000Y-43650000D02*
X128730000Y-58770000D01*
%TO.N,Net-(SW21-Pad2)*%
X127460000Y-46460000D02*
X127460000Y-48730000D01*
X126540000Y-45540000D02*
X127460000Y-46460000D01*
X126540000Y-34920000D02*
X126540000Y-45540000D01*
%TO.N,Net-(SW11-Pad2)*%
X87460000Y-46460000D02*
X87460000Y-48730000D01*
X86540000Y-34920000D02*
X86540000Y-45540000D01*
X86540000Y-45540000D02*
X87460000Y-46460000D01*
%TO.N,Net-(SW10-Pad2)*%
X66540000Y-45080000D02*
X67460000Y-46000000D01*
X66540000Y-34920000D02*
X66540000Y-45080000D01*
X67460000Y-46000000D02*
X67460000Y-48730000D01*
%TO.N,Net-(SW1-Pad2)*%
X47460000Y-46321288D02*
X47460000Y-48730000D01*
X46540000Y-45401288D02*
X47460000Y-46321288D01*
X46540000Y-34920000D02*
X46540000Y-45401288D01*
%TO.N,Net-(SW16-Pad2)*%
X106540000Y-45040000D02*
X106540000Y-34920000D01*
X107460000Y-48730000D02*
X107460000Y-45960000D01*
X107460000Y-45960000D02*
X106540000Y-45040000D01*
%TO.N,GND*%
X120500000Y-33993959D02*
X123223959Y-31270000D01*
X123223959Y-31270000D02*
X124920000Y-31270000D01*
X120500000Y-36000000D02*
X120500000Y-33993959D01*
X124920000Y-40420000D02*
X120500000Y-36000000D01*
X124920000Y-42000000D02*
X124920000Y-40420000D01*
X104920000Y-43500000D02*
X104920000Y-48730000D01*
X100500000Y-36000000D02*
X104920000Y-40420000D01*
X100500000Y-34000000D02*
X100500000Y-36000000D01*
X103230000Y-31270000D02*
X100500000Y-34000000D01*
X104920000Y-31270000D02*
X103230000Y-31270000D01*
X80500000Y-33500000D02*
X82730000Y-31270000D01*
X80500000Y-35980000D02*
X80500000Y-33500000D01*
X84920000Y-41500000D02*
X84920000Y-40400000D01*
X84920000Y-40400000D02*
X80500000Y-35980000D01*
X82730000Y-31270000D02*
X84920000Y-31270000D01*
X60500000Y-34000000D02*
X63230000Y-31270000D01*
X60500000Y-36000000D02*
X60500000Y-34000000D01*
X63230000Y-31270000D02*
X64920000Y-31270000D01*
X64920000Y-42000000D02*
X64920000Y-40420000D01*
X64920000Y-40420000D02*
X60500000Y-36000000D01*
%TO.N,VCC*%
X35080000Y-43920000D02*
X35080000Y-48730000D01*
X37591000Y-36500000D02*
X37591000Y-41409000D01*
X37591000Y-41409000D02*
X35080000Y-43920000D01*
%TO.N,GND*%
X104920000Y-88730000D02*
X104920000Y-82000000D01*
X100500000Y-56000000D02*
X104920000Y-60420000D01*
X104920000Y-61500000D02*
X104920000Y-68730000D01*
X100500000Y-53500000D02*
X100500000Y-56000000D01*
X102730000Y-51270000D02*
X100500000Y-53500000D01*
X104920000Y-51270000D02*
X102730000Y-51270000D01*
X124920000Y-88730000D02*
X124920000Y-82500000D01*
X124920000Y-108730000D02*
X124920000Y-101500000D01*
%TO.N,Net-(SW21-Pad2)*%
X126540000Y-112190000D02*
X126540000Y-114920000D01*
X127460000Y-111270000D02*
X126540000Y-112190000D01*
X126540000Y-92190000D02*
X126540000Y-94920000D01*
X127460000Y-91270000D02*
X126540000Y-92190000D01*
X126540000Y-72190000D02*
X126540000Y-74920000D01*
X127460000Y-71270000D02*
X126540000Y-72190000D01*
X126540000Y-52190000D02*
X126540000Y-54920000D01*
X127460000Y-51270000D02*
X126540000Y-52190000D01*
X127460000Y-31270000D02*
X126540000Y-32190000D01*
X126540000Y-32190000D02*
X126540000Y-34920000D01*
%TO.N,Net-(SW16-Pad2)*%
X106540000Y-32190000D02*
X106540000Y-34920000D01*
X107460000Y-31270000D02*
X106540000Y-32190000D01*
X106540000Y-112190000D02*
X106540000Y-114920000D01*
X107460000Y-111270000D02*
X106540000Y-112190000D01*
%TO.N,VCC*%
X56601000Y-50951081D02*
X56282081Y-51270000D01*
X56601000Y-49048919D02*
X56601000Y-50951081D01*
X56282081Y-48730000D02*
X56601000Y-49048919D01*
X55080000Y-48730000D02*
X56282081Y-48730000D01*
X56282081Y-51270000D02*
X55080000Y-51270000D01*
%TO.N,GND*%
X63399000Y-70951081D02*
X63717919Y-71270000D01*
X63399000Y-69048919D02*
X63399000Y-70951081D01*
X63717919Y-71270000D02*
X64920000Y-71270000D01*
X63717919Y-68730000D02*
X63399000Y-69048919D01*
X64920000Y-68730000D02*
X63717919Y-68730000D01*
%TO.N,VCC*%
X56601000Y-70951081D02*
X56282081Y-71270000D01*
X56601000Y-69551058D02*
X56601000Y-70951081D01*
X56282081Y-71270000D02*
X55080000Y-71270000D01*
X55080000Y-68730000D02*
X55779942Y-68730000D01*
X55779942Y-68730000D02*
X56601000Y-69551058D01*
X56601000Y-89048919D02*
X56601000Y-90951081D01*
X56282081Y-88730000D02*
X56601000Y-89048919D01*
X56601000Y-90951081D02*
X56282081Y-91270000D01*
X55080000Y-88730000D02*
X56282081Y-88730000D01*
X56282081Y-91270000D02*
X55080000Y-91270000D01*
X56601000Y-110899000D02*
X56230000Y-111270000D01*
X56282081Y-108730000D02*
X56601000Y-109048919D01*
X56601000Y-109048919D02*
X56601000Y-110899000D01*
X56230000Y-111270000D02*
X55080000Y-111270000D01*
X55080000Y-108730000D02*
X56282081Y-108730000D01*
%TO.N,GND*%
X103717919Y-51270000D02*
X104920000Y-51270000D01*
X103399000Y-50951081D02*
X103717919Y-51270000D01*
X103399000Y-49048919D02*
X103399000Y-50951081D01*
X103717919Y-48730000D02*
X103399000Y-49048919D01*
X104920000Y-48730000D02*
X103717919Y-48730000D01*
%TO.N,VCC*%
X96282081Y-51270000D02*
X95080000Y-51270000D01*
X96601000Y-50951081D02*
X96282081Y-51270000D01*
X96282081Y-48730000D02*
X96601000Y-49048919D01*
X96601000Y-49048919D02*
X96601000Y-50951081D01*
X95080000Y-48730000D02*
X96282081Y-48730000D01*
X96282081Y-111270000D02*
X95080000Y-111270000D01*
X96601000Y-110951081D02*
X96282081Y-111270000D01*
X96601000Y-109551058D02*
X96601000Y-110951081D01*
X95779942Y-108730000D02*
X96601000Y-109551058D01*
X95080000Y-108730000D02*
X95779942Y-108730000D01*
%TO.N,GND*%
X123717919Y-91270000D02*
X124920000Y-91270000D01*
X123399000Y-90951081D02*
X123717919Y-91270000D01*
X123399000Y-89048919D02*
X123399000Y-90951081D01*
X124920000Y-88730000D02*
X123717919Y-88730000D01*
X123717919Y-88730000D02*
X123399000Y-89048919D01*
%TO.N,VCC*%
X116282081Y-91270000D02*
X115080000Y-91270000D01*
X116601000Y-89048919D02*
X116601000Y-90951081D01*
X116282081Y-88730000D02*
X116601000Y-89048919D01*
X115080000Y-88730000D02*
X116282081Y-88730000D01*
X116601000Y-90951081D02*
X116282081Y-91270000D01*
%TO.N,GND*%
X123717919Y-71270000D02*
X124920000Y-71270000D01*
X123399000Y-69048919D02*
X123399000Y-70951081D01*
X123717919Y-68730000D02*
X123399000Y-69048919D01*
X123399000Y-70951081D02*
X123717919Y-71270000D01*
X124920000Y-68730000D02*
X123717919Y-68730000D01*
%TO.N,VCC*%
X116282081Y-71270000D02*
X115080000Y-71270000D01*
X116601000Y-70951081D02*
X116282081Y-71270000D01*
X116601000Y-69551058D02*
X116601000Y-70951081D01*
X115779942Y-68730000D02*
X116601000Y-69551058D01*
X115080000Y-68730000D02*
X115779942Y-68730000D01*
X116601000Y-49551058D02*
X116601000Y-50951081D01*
X115779942Y-48730000D02*
X116601000Y-49551058D01*
X116601000Y-50951081D02*
X116282081Y-51270000D01*
X115080000Y-48730000D02*
X115779942Y-48730000D01*
X116282081Y-51270000D02*
X115080000Y-51270000D01*
%TO.N,GND*%
X123717919Y-51270000D02*
X124920000Y-51270000D01*
X123399000Y-50951081D02*
X123717919Y-51270000D01*
X123717919Y-48730000D02*
X123399000Y-49048919D01*
X124920000Y-48730000D02*
X123717919Y-48730000D01*
X123399000Y-49048919D02*
X123399000Y-50951081D01*
%TO.N,VCC*%
X117591000Y-33781000D02*
X115080000Y-31270000D01*
X115080000Y-44420000D02*
X117591000Y-41909000D01*
X115080000Y-48730000D02*
X115080000Y-44420000D01*
X117591000Y-41909000D02*
X117591000Y-33781000D01*
%TO.N,GND*%
X123717919Y-111270000D02*
X124920000Y-111270000D01*
X123399000Y-109551058D02*
X123399000Y-110951081D01*
X124220058Y-108730000D02*
X123399000Y-109551058D01*
X123399000Y-110951081D02*
X123717919Y-111270000D01*
X124920000Y-108730000D02*
X124220058Y-108730000D01*
%TO.N,VCC*%
X116282081Y-111270000D02*
X115080000Y-111270000D01*
X116282081Y-108730000D02*
X116601000Y-109048919D01*
X116601000Y-109048919D02*
X116601000Y-110951081D01*
X115080000Y-108730000D02*
X116282081Y-108730000D01*
X116601000Y-110951081D02*
X116282081Y-111270000D01*
%TO.N,GND*%
X103717919Y-111270000D02*
X104920000Y-111270000D01*
X103399000Y-110951081D02*
X103717919Y-111270000D01*
X103399000Y-109048919D02*
X103399000Y-110951081D01*
X104920000Y-108730000D02*
X103717919Y-108730000D01*
X103717919Y-108730000D02*
X103399000Y-109048919D01*
%TO.N,VCC*%
X97591000Y-121409000D02*
X95080000Y-123920000D01*
X97591000Y-113781000D02*
X97591000Y-121409000D01*
X95080000Y-123920000D02*
X95080000Y-128730000D01*
X95080000Y-111270000D02*
X97591000Y-113781000D01*
%TO.N,Net-(SW16-Pad2)*%
X106540000Y-94920000D02*
X106540000Y-107810000D01*
X106540000Y-107810000D02*
X107460000Y-108730000D01*
X106540000Y-92190000D02*
X106540000Y-94920000D01*
X107460000Y-91270000D02*
X106540000Y-92190000D01*
%TO.N,VCC*%
X97591000Y-93781000D02*
X95080000Y-91270000D01*
X97591000Y-102409000D02*
X97591000Y-93781000D01*
X95080000Y-108730000D02*
X95080000Y-104920000D01*
X95080000Y-104920000D02*
X97591000Y-102409000D01*
%TO.N,GND*%
X103399000Y-89048919D02*
X103399000Y-90951081D01*
X103717919Y-91270000D02*
X104920000Y-91270000D01*
X104920000Y-88730000D02*
X103717919Y-88730000D01*
X103717919Y-88730000D02*
X103399000Y-89048919D01*
X103399000Y-90951081D02*
X103717919Y-91270000D01*
%TO.N,VCC*%
X95779942Y-88730000D02*
X96601000Y-89551058D01*
X96601000Y-90951081D02*
X96282081Y-91270000D01*
X96282081Y-91270000D02*
X95080000Y-91270000D01*
X95080000Y-88730000D02*
X95779942Y-88730000D01*
X96601000Y-89551058D02*
X96601000Y-90951081D01*
%TO.N,GND*%
X103717919Y-71270000D02*
X104920000Y-71270000D01*
X103399000Y-70951081D02*
X103717919Y-71270000D01*
X103399000Y-69551058D02*
X103399000Y-70951081D01*
X104220058Y-68730000D02*
X103399000Y-69551058D01*
X104920000Y-68730000D02*
X104220058Y-68730000D01*
%TO.N,VCC*%
X96601000Y-69551058D02*
X96601000Y-70951081D01*
X96282081Y-71270000D02*
X95080000Y-71270000D01*
X95779942Y-68730000D02*
X96601000Y-69551058D01*
X96601000Y-70951081D02*
X96282081Y-71270000D01*
X95080000Y-68730000D02*
X95779942Y-68730000D01*
%TO.N,Net-(SW11-Pad2)*%
X86540000Y-114920000D02*
X86540000Y-127810000D01*
X86540000Y-127810000D02*
X87460000Y-128730000D01*
X86540000Y-112190000D02*
X86540000Y-114920000D01*
X87460000Y-111270000D02*
X86540000Y-112190000D01*
X86540000Y-107810000D02*
X87460000Y-108730000D01*
X86540000Y-94920000D02*
X86540000Y-107810000D01*
X87460000Y-91270000D02*
X86540000Y-92190000D01*
X86540000Y-92190000D02*
X86540000Y-94920000D01*
X87460000Y-71270000D02*
X86540000Y-72190000D01*
X86540000Y-72190000D02*
X86540000Y-74920000D01*
X86540000Y-52190000D02*
X86540000Y-54920000D01*
X87460000Y-51270000D02*
X86540000Y-52190000D01*
%TO.N,GND*%
X84920000Y-111270000D02*
X83717919Y-111270000D01*
X83399000Y-110951081D02*
X83717919Y-111270000D01*
X83399000Y-109551058D02*
X83399000Y-110951081D01*
X84920000Y-108730000D02*
X84220058Y-108730000D01*
X84220058Y-108730000D02*
X83399000Y-109551058D01*
X83717919Y-91270000D02*
X84920000Y-91270000D01*
X83399000Y-90951081D02*
X83717919Y-91270000D01*
X83399000Y-89048919D02*
X83399000Y-90951081D01*
X83717919Y-88730000D02*
X83399000Y-89048919D01*
X84920000Y-88730000D02*
X83717919Y-88730000D01*
X83399000Y-69048919D02*
X83399000Y-70951081D01*
X83399000Y-70951081D02*
X83717919Y-71270000D01*
X83717919Y-68730000D02*
X83399000Y-69048919D01*
X83717919Y-71270000D02*
X84920000Y-71270000D01*
X84920000Y-68730000D02*
X83717919Y-68730000D01*
X83399000Y-49048919D02*
X83399000Y-50951081D01*
X83399000Y-50951081D02*
X83717919Y-51270000D01*
X83717919Y-51270000D02*
X84920000Y-51270000D01*
X83717919Y-48730000D02*
X83399000Y-49048919D01*
X84920000Y-48730000D02*
X83717919Y-48730000D01*
X85000000Y-68730000D02*
X85000000Y-61500000D01*
%TO.N,Net-(SW11-Pad2)*%
X86540000Y-32190000D02*
X86540000Y-34920000D01*
%TO.N,VCC*%
X76282081Y-51270000D02*
X75080000Y-51270000D01*
X76601000Y-49551058D02*
X76601000Y-50951081D01*
X75779942Y-48730000D02*
X76601000Y-49551058D01*
X75080000Y-48730000D02*
X75779942Y-48730000D01*
X76601000Y-50951081D02*
X76282081Y-51270000D01*
X76282081Y-71270000D02*
X75080000Y-71270000D01*
X76601000Y-69048919D02*
X76601000Y-70951081D01*
X76282081Y-68730000D02*
X76601000Y-69048919D01*
X75080000Y-68730000D02*
X76282081Y-68730000D01*
X76601000Y-70951081D02*
X76282081Y-71270000D01*
X76282081Y-91270000D02*
X75080000Y-91270000D01*
X76601000Y-90951081D02*
X76282081Y-91270000D01*
X76601000Y-89551058D02*
X76601000Y-90951081D01*
X75779942Y-88730000D02*
X76601000Y-89551058D01*
X75080000Y-88730000D02*
X75779942Y-88730000D01*
X76601000Y-110951081D02*
X76282081Y-111270000D01*
X76601000Y-109551058D02*
X76601000Y-110951081D01*
X75779942Y-108730000D02*
X76601000Y-109551058D01*
X76282081Y-111270000D02*
X75080000Y-111270000D01*
X75080000Y-108730000D02*
X75779942Y-108730000D01*
X75080000Y-124920000D02*
X75080000Y-128730000D01*
X77591000Y-122409000D02*
X75080000Y-124920000D01*
X77591000Y-113781000D02*
X77591000Y-122409000D01*
X75080000Y-111270000D02*
X77591000Y-113781000D01*
X75080000Y-104000000D02*
X75080000Y-108730000D01*
X77591000Y-101489000D02*
X75080000Y-104000000D01*
X75080000Y-91270000D02*
X77591000Y-93781000D01*
X77591000Y-93781000D02*
X77591000Y-101489000D01*
X75080000Y-88730000D02*
X75080000Y-83920000D01*
X77591000Y-81409000D02*
X77591000Y-81000000D01*
X77591000Y-73781000D02*
X77591000Y-81000000D01*
X75080000Y-83920000D02*
X77591000Y-81409000D01*
X75080000Y-71270000D02*
X77591000Y-73781000D01*
X75080000Y-64000000D02*
X75080000Y-68730000D01*
X77591000Y-61489000D02*
X75080000Y-64000000D01*
X75080000Y-51270000D02*
X77591000Y-53781000D01*
X77591000Y-53781000D02*
X77591000Y-61489000D01*
X75080000Y-48730000D02*
X75080000Y-42420000D01*
X75080000Y-42420000D02*
X77591000Y-39909000D01*
X77591000Y-39909000D02*
X77591000Y-39000000D01*
X77591000Y-33781000D02*
X77591000Y-39000000D01*
X75080000Y-31270000D02*
X77591000Y-33781000D01*
%TO.N,Net-(SW10-Pad2)*%
X66540000Y-127810000D02*
X67460000Y-128730000D01*
X66540000Y-114920000D02*
X66540000Y-127810000D01*
%TO.N,GND*%
X65000000Y-68730000D02*
X65000000Y-61500000D01*
X64920000Y-88730000D02*
X64920000Y-82500000D01*
%TO.N,Net-(SW10-Pad2)*%
X66540000Y-92190000D02*
X66540000Y-94920000D01*
X67460000Y-91270000D02*
X66540000Y-92190000D01*
X66540000Y-107810000D02*
X66540000Y-94920000D01*
X67460000Y-108730000D02*
X66540000Y-107810000D01*
X66540000Y-112190000D02*
X66540000Y-114920000D01*
X67460000Y-111270000D02*
X66540000Y-112190000D01*
%TO.N,GND*%
X63399000Y-109551058D02*
X63399000Y-110448942D01*
X64220058Y-108730000D02*
X63399000Y-109551058D01*
X63399000Y-110448942D02*
X64220058Y-111270000D01*
X64220058Y-111270000D02*
X64920000Y-111270000D01*
X64920000Y-108730000D02*
X64220058Y-108730000D01*
%TO.N,VCC*%
X58500000Y-114690000D02*
X55080000Y-111270000D01*
X58500000Y-117500000D02*
X58500000Y-114690000D01*
X55080000Y-128730000D02*
X55080000Y-120920000D01*
X55080000Y-120920000D02*
X58500000Y-117500000D01*
%TO.N,GND*%
X63399000Y-90448942D02*
X64220058Y-91270000D01*
X64220058Y-88730000D02*
X63399000Y-89551058D01*
X63399000Y-89551058D02*
X63399000Y-90448942D01*
X64220058Y-91270000D02*
X64920000Y-91270000D01*
X64920000Y-88730000D02*
X64220058Y-88730000D01*
%TO.N,Net-(SW10-Pad2)*%
X66540000Y-72190000D02*
X67460000Y-71270000D01*
X66540000Y-74920000D02*
X66540000Y-72190000D01*
X66540000Y-52190000D02*
X67460000Y-51270000D01*
X66540000Y-54920000D02*
X66540000Y-52190000D01*
%TO.N,GND*%
X63717919Y-51270000D02*
X64920000Y-51270000D01*
X63399000Y-50951081D02*
X63717919Y-51270000D01*
X63399000Y-49551058D02*
X63399000Y-50951081D01*
X64220058Y-48730000D02*
X63399000Y-49551058D01*
X64920000Y-48730000D02*
X64220058Y-48730000D01*
%TO.N,VCC*%
X57591000Y-60409000D02*
X57591000Y-60000000D01*
X55080000Y-62920000D02*
X57591000Y-60409000D01*
X57591000Y-56500000D02*
X57591000Y-60000000D01*
X55080000Y-68730000D02*
X55080000Y-62920000D01*
X57591000Y-53781000D02*
X57591000Y-56500000D01*
X55080000Y-51270000D02*
X57591000Y-53781000D01*
X55080000Y-43920000D02*
X55080000Y-48730000D01*
X57591000Y-41409000D02*
X55080000Y-43920000D01*
X57591000Y-33781000D02*
X57591000Y-41409000D01*
X55080000Y-31270000D02*
X57591000Y-33781000D01*
%TO.N,Net-(SW10-Pad2)*%
X66540000Y-34920000D02*
X66540000Y-32190000D01*
X66540000Y-32190000D02*
X67460000Y-31270000D01*
%TO.N,VCC*%
X36601000Y-90951081D02*
X36282081Y-91270000D01*
X36282081Y-88730000D02*
X36601000Y-89048919D01*
X35080000Y-88730000D02*
X36282081Y-88730000D01*
X36601000Y-89048919D02*
X36601000Y-90951081D01*
X36282081Y-91270000D02*
X35080000Y-91270000D01*
X36601000Y-109048919D02*
X36601000Y-110951081D01*
X36282081Y-108730000D02*
X36601000Y-109048919D01*
X36282081Y-111270000D02*
X35080000Y-111270000D01*
X35080000Y-108730000D02*
X36282081Y-108730000D01*
X36601000Y-110951081D02*
X36282081Y-111270000D01*
%TO.N,GND*%
X44920000Y-100420000D02*
X44920000Y-101600000D01*
X40500000Y-96000000D02*
X44920000Y-100420000D01*
X42730000Y-91270000D02*
X40500000Y-93500000D01*
X40500000Y-93500000D02*
X40500000Y-96000000D01*
X43717919Y-91270000D02*
X42730000Y-91270000D01*
%TO.N,Net-(SW1-Pad2)*%
X46540000Y-127810000D02*
X47460000Y-128730000D01*
X46540000Y-114920000D02*
X46540000Y-127810000D01*
X46540000Y-112190000D02*
X46540000Y-114920000D01*
X47460000Y-111270000D02*
X46540000Y-112190000D01*
%TO.N,GND*%
X43717919Y-111270000D02*
X44920000Y-111270000D01*
X43399000Y-110951081D02*
X43717919Y-111270000D01*
X43717919Y-108730000D02*
X43399000Y-109048919D01*
X44920000Y-108730000D02*
X43717919Y-108730000D01*
X43399000Y-109048919D02*
X43399000Y-110951081D01*
X43399000Y-90951081D02*
X43717919Y-91270000D01*
X44220058Y-88730000D02*
X43399000Y-89551058D01*
X43717919Y-91270000D02*
X44920000Y-91270000D01*
X44920000Y-88730000D02*
X44220058Y-88730000D01*
X43399000Y-89551058D02*
X43399000Y-90951081D01*
%TO.N,Net-(SW1-Pad2)*%
X46540000Y-107810000D02*
X47460000Y-108730000D01*
X46540000Y-94920000D02*
X46540000Y-107810000D01*
%TO.N,VCC*%
X37591000Y-102909000D02*
X37591000Y-93781000D01*
X37591000Y-93781000D02*
X35080000Y-91270000D01*
X35080000Y-105420000D02*
X37591000Y-102909000D01*
X35080000Y-108730000D02*
X35080000Y-105420000D01*
%TO.N,Net-(SW1-Pad2)*%
X46540000Y-92190000D02*
X47460000Y-91270000D01*
X46540000Y-94920000D02*
X46540000Y-92190000D01*
%TO.N,GND*%
X43717919Y-71270000D02*
X44920000Y-71270000D01*
X43399000Y-69551058D02*
X43399000Y-70951081D01*
X44220058Y-68730000D02*
X43399000Y-69551058D01*
X43399000Y-70951081D02*
X43717919Y-71270000D01*
X44920000Y-68730000D02*
X44220058Y-68730000D01*
%TO.N,VCC*%
X37591000Y-62409000D02*
X37591000Y-57500000D01*
X35000000Y-65000000D02*
X37591000Y-62409000D01*
X35000000Y-68650000D02*
X35000000Y-65000000D01*
X35080000Y-68730000D02*
X35000000Y-68650000D01*
X36282081Y-71270000D02*
X35080000Y-71270000D01*
X36601000Y-70951081D02*
X36282081Y-71270000D01*
X36601000Y-69048919D02*
X36601000Y-70951081D01*
X36282081Y-68730000D02*
X36601000Y-69048919D01*
X35080000Y-68730000D02*
X36282081Y-68730000D01*
X37591000Y-86219000D02*
X37591000Y-73781000D01*
X35080000Y-88730000D02*
X37591000Y-86219000D01*
X37591000Y-73781000D02*
X35080000Y-71270000D01*
%TO.N,Net-(SW1-Pad2)*%
X47460000Y-86500000D02*
X47460000Y-88730000D01*
X46540000Y-85580000D02*
X47460000Y-86500000D01*
X46540000Y-74920000D02*
X46540000Y-85580000D01*
X46540000Y-74920000D02*
X46540000Y-72190000D01*
X46540000Y-72190000D02*
X47460000Y-71270000D01*
X46540000Y-37040000D02*
X46540000Y-34920000D01*
X46540000Y-52190000D02*
X46540000Y-54920000D01*
X47460000Y-51270000D02*
X46540000Y-52190000D01*
X42540000Y-54920000D02*
X46540000Y-54920000D01*
%TO.N,GND*%
X43399000Y-49048919D02*
X43399000Y-50951081D01*
X43717919Y-48730000D02*
X43399000Y-49048919D01*
X43717919Y-51270000D02*
X44920000Y-51270000D01*
X44920000Y-48730000D02*
X43717919Y-48730000D01*
X43399000Y-50951081D02*
X43717919Y-51270000D01*
%TO.N,VCC*%
X36601000Y-50641000D02*
X35972000Y-51270000D01*
X35972000Y-51270000D02*
X35080000Y-51270000D01*
X36601000Y-49551058D02*
X36601000Y-50641000D01*
X35779942Y-48730000D02*
X36601000Y-49551058D01*
X35080000Y-48730000D02*
X35779942Y-48730000D01*
X37591000Y-53781000D02*
X37591000Y-57500000D01*
X35080000Y-51270000D02*
X37591000Y-53781000D01*
X37591000Y-33781000D02*
X37591000Y-36500000D01*
X35080000Y-31270000D02*
X37591000Y-33781000D01*
X37591000Y-36321000D02*
X37591000Y-36500000D01*
%TO.N,Net-(SW1-Pad2)*%
X46540000Y-34920000D02*
X46540000Y-32190000D01*
X46540000Y-32190000D02*
X47460000Y-31270000D01*
%TO.N,VCC*%
X57591000Y-56321000D02*
X57591000Y-56500000D01*
X37591000Y-56321000D02*
X37591000Y-57500000D01*
%TO.N,Net-(D18-DOUT)*%
X110420000Y-82800000D02*
X111270000Y-83650000D01*
X109580000Y-82800000D02*
X110420000Y-82800000D01*
X108730000Y-83650000D02*
X109580000Y-82800000D01*
%TO.N,Net-(D13-DIN)*%
X69580000Y-82800000D02*
X68730000Y-83650000D01*
X70420000Y-82800000D02*
X69580000Y-82800000D01*
X71270000Y-83650000D02*
X70420000Y-82800000D01*
%TO.N,Net-(D13-DOUT)*%
X91019000Y-83399000D02*
X91270000Y-83650000D01*
X88981000Y-83399000D02*
X91019000Y-83399000D01*
X88730000Y-83650000D02*
X88981000Y-83399000D01*
%TO.N,Net-(D14-DOUT)*%
X70420000Y-102800000D02*
X69580000Y-102800000D01*
X71270000Y-103650000D02*
X70420000Y-102800000D01*
X69580000Y-102800000D02*
X68730000Y-103650000D01*
%TO.N,Net-(D14-DIN)*%
X90420000Y-102800000D02*
X89580000Y-102800000D01*
X89580000Y-102800000D02*
X88730000Y-103650000D01*
X91270000Y-103650000D02*
X90420000Y-102800000D01*
%TO.N,Net-(D19-DIN)*%
X110420000Y-102800000D02*
X109580000Y-102800000D01*
X111270000Y-103650000D02*
X110420000Y-102800000D01*
X109580000Y-102800000D02*
X108730000Y-103650000D01*
%TO.N,Net-(D20-DOUT)*%
X109580000Y-122800000D02*
X108730000Y-123650000D01*
X110420000Y-122800000D02*
X109580000Y-122800000D01*
X111270000Y-123650000D02*
X110420000Y-122800000D01*
%TO.N,Net-(D15-DOUT)*%
X91019000Y-123399000D02*
X91270000Y-123650000D01*
X88981000Y-123399000D02*
X91019000Y-123399000D01*
X88730000Y-123650000D02*
X88981000Y-123399000D01*
%TO.N,Net-(D10-DOUT)*%
X71019000Y-123399000D02*
X71270000Y-123650000D01*
X68730000Y-123650000D02*
X68981000Y-123399000D01*
X68981000Y-123399000D02*
X71019000Y-123399000D01*
%TO.N,Net-(D10-DIN)*%
X51019000Y-123399000D02*
X51270000Y-123650000D01*
X48981000Y-123399000D02*
X51019000Y-123399000D01*
X48730000Y-123650000D02*
X48981000Y-123399000D01*
%TO.N,Net-(D3-DOUT)*%
X50420000Y-82800000D02*
X51270000Y-83650000D01*
X49580000Y-82800000D02*
X50420000Y-82800000D01*
X48730000Y-83650000D02*
X49580000Y-82800000D01*
%TO.N,Net-(D2-DIN)*%
X49580000Y-62800000D02*
X48730000Y-63650000D01*
X50420000Y-62800000D02*
X49580000Y-62800000D01*
X51270000Y-63650000D02*
X50420000Y-62800000D01*
%TO.N,Net-(D12-DOUT)*%
X69580000Y-62800000D02*
X68730000Y-63650000D01*
X70420000Y-62800000D02*
X69580000Y-62800000D01*
X71270000Y-63650000D02*
X70420000Y-62800000D01*
%TO.N,Net-(D12-DIN)*%
X89580000Y-62800000D02*
X88730000Y-63650000D01*
X90420000Y-62800000D02*
X89580000Y-62800000D01*
X91270000Y-63650000D02*
X90420000Y-62800000D01*
%TO.N,Net-(D17-DIN)*%
X109580000Y-62800000D02*
X108730000Y-63650000D01*
X110420000Y-62800000D02*
X109580000Y-62800000D01*
X111270000Y-63650000D02*
X110420000Y-62800000D01*
%TO.N,Net-(D23-DOUT)*%
X127000000Y-101920000D02*
X128730000Y-103650000D01*
X127000000Y-99500000D02*
X127000000Y-101920000D01*
X128730000Y-97770000D02*
X127000000Y-99500000D01*
X128730000Y-83650000D02*
X128730000Y-97770000D01*
%TO.N,Net-(D16-DOUT)*%
X110420000Y-42800000D02*
X111270000Y-43650000D01*
X109580000Y-42800000D02*
X110420000Y-42800000D01*
X108730000Y-43650000D02*
X109580000Y-42800000D01*
%TO.N,Net-(D11-DOUT)*%
X90420000Y-42800000D02*
X91270000Y-43650000D01*
X89580000Y-42800000D02*
X90420000Y-42800000D01*
X88730000Y-43650000D02*
X89580000Y-42800000D01*
%TO.N,Net-(D11-DIN)*%
X70420000Y-42800000D02*
X71270000Y-43650000D01*
X69580000Y-42800000D02*
X70420000Y-42800000D01*
X68730000Y-43650000D02*
X69580000Y-42800000D01*
%TO.N,Net-(D1-DOUT)*%
X50420000Y-42800000D02*
X51270000Y-43650000D01*
X49580000Y-42800000D02*
X50420000Y-42800000D01*
X48730000Y-43650000D02*
X49580000Y-42800000D01*
%TO.N,GND*%
X104920000Y-128730000D02*
X104920000Y-122000000D01*
%TO.N,Net-(SW1-Pad1)*%
X48730000Y-41110000D02*
X51270000Y-41110000D01*
X116190000Y-37460000D02*
X112190000Y-37460000D01*
X92190000Y-37460000D02*
X96190000Y-37460000D01*
X72190000Y-37460000D02*
X76190000Y-37460000D01*
X52190000Y-37460000D02*
X56190000Y-37460000D01*
%TO.N,Net-(SW12-Pad1)*%
X56190000Y-57460000D02*
X52190000Y-57460000D01*
X76190000Y-57460000D02*
X72190000Y-57460000D01*
X92190000Y-57460000D02*
X96190000Y-57460000D01*
X112190000Y-57460000D02*
X116190000Y-57460000D01*
%TO.N,Net-(SW13-Pad1)*%
X96190000Y-77460000D02*
X92190000Y-77460000D01*
X116190000Y-77460000D02*
X112190000Y-77460000D01*
X112190000Y-80190000D02*
X112190000Y-77460000D01*
X111270000Y-81110000D02*
X112190000Y-80190000D01*
X92190000Y-80190000D02*
X92190000Y-77460000D01*
X91270000Y-81110000D02*
X92190000Y-80190000D01*
X71270000Y-81110000D02*
X72190000Y-80190000D01*
X72190000Y-80190000D02*
X72190000Y-77460000D01*
X72190000Y-77460000D02*
X76190000Y-77460000D01*
%TO.N,Net-(SW14-Pad1)*%
X52190000Y-97460000D02*
X56190000Y-97460000D01*
X52190000Y-100190000D02*
X52190000Y-97460000D01*
X51270000Y-101110000D02*
X52190000Y-100190000D01*
X72190000Y-97460000D02*
X76190000Y-97460000D01*
X71270000Y-101110000D02*
X72190000Y-100190000D01*
X72190000Y-100190000D02*
X72190000Y-97460000D01*
X92190000Y-97460000D02*
X96190000Y-97460000D01*
X92190000Y-100190000D02*
X92190000Y-97460000D01*
X91270000Y-101110000D02*
X92190000Y-100190000D01*
X112190000Y-97460000D02*
X116190000Y-97460000D01*
X112190000Y-100190000D02*
X112190000Y-97460000D01*
X111270000Y-101110000D02*
X112190000Y-100190000D01*
%TO.N,Net-(SW10-Pad1)*%
X112190000Y-117460000D02*
X116190000Y-117460000D01*
X112190000Y-120190000D02*
X112190000Y-117460000D01*
X111270000Y-121110000D02*
X112190000Y-120190000D01*
X92190000Y-117460000D02*
X96190000Y-117460000D01*
X92190000Y-120190000D02*
X92190000Y-117460000D01*
X91270000Y-121110000D02*
X92190000Y-120190000D01*
X72190000Y-117460000D02*
X76190000Y-117460000D01*
X72190000Y-120190000D02*
X72190000Y-117460000D01*
X71270000Y-121110000D02*
X72190000Y-120190000D01*
X52190000Y-117460000D02*
X56190000Y-117460000D01*
X51270000Y-121110000D02*
X52190000Y-120190000D01*
X52190000Y-120190000D02*
X52190000Y-117460000D01*
X32190000Y-117460000D02*
X36190000Y-117460000D01*
X32190000Y-120190000D02*
X32190000Y-117460000D01*
X31270000Y-121110000D02*
X32190000Y-120190000D01*
%TO.N,Net-(SW14-Pad1)*%
X32190000Y-100190000D02*
X32190000Y-97460000D01*
X31270000Y-101110000D02*
X32190000Y-100190000D01*
X32190000Y-97460000D02*
X36190000Y-97460000D01*
%TO.N,Net-(SW12-Pad1)*%
X32190000Y-57460000D02*
X36190000Y-57460000D01*
%TO.N,Net-(SW13-Pad1)*%
X32190000Y-77460000D02*
X36190000Y-77460000D01*
X31270000Y-81110000D02*
X32190000Y-80190000D01*
X32190000Y-80190000D02*
X32190000Y-77460000D01*
%TO.N,Net-(SW12-Pad1)*%
X31270000Y-61110000D02*
X32190000Y-60190000D01*
X32190000Y-60190000D02*
X32190000Y-57460000D01*
X52190000Y-60190000D02*
X52190000Y-57460000D01*
X51270000Y-61110000D02*
X52190000Y-60190000D01*
X72190000Y-60190000D02*
X72190000Y-57460000D01*
X71270000Y-61110000D02*
X72190000Y-60190000D01*
X91270000Y-61110000D02*
X92190000Y-60190000D01*
X92190000Y-60190000D02*
X92190000Y-57460000D01*
X112190000Y-60190000D02*
X112190000Y-57460000D01*
X111270000Y-61110000D02*
X112190000Y-60190000D01*
%TO.N,Net-(SW1-Pad1)*%
X112190000Y-40190000D02*
X112190000Y-37460000D01*
X111270000Y-41110000D02*
X112190000Y-40190000D01*
X92190000Y-40190000D02*
X92190000Y-37460000D01*
X91270000Y-41110000D02*
X92190000Y-40190000D01*
X72190000Y-40190000D02*
X72190000Y-37460000D01*
X71270000Y-41110000D02*
X72190000Y-40190000D01*
X52190000Y-40190000D02*
X52190000Y-37460000D01*
X51270000Y-41110000D02*
X52190000Y-40190000D01*
X32190000Y-40190000D02*
X32190000Y-37460000D01*
X31270000Y-41110000D02*
X32190000Y-40190000D01*
X32190000Y-37460000D02*
X36190000Y-37460000D01*
%TO.N,Net-(SW16-Pad2)*%
X102540000Y-74920000D02*
X102500000Y-74880000D01*
%TO.N,Net-(SW1-Pad2)*%
X42540000Y-94920000D02*
X42500000Y-94880000D01*
%TO.N,Net-(SW16-Pad2)*%
X102540000Y-114920000D02*
X106540000Y-114920000D01*
%TO.N,Net-(SW11-Pad2)*%
X82540000Y-114920000D02*
X86540000Y-114920000D01*
%TO.N,Net-(SW10-Pad2)*%
X62540000Y-114920000D02*
X66540000Y-114920000D01*
%TO.N,Net-(SW1-Pad2)*%
X46540000Y-114920000D02*
X42540000Y-114920000D01*
X42540000Y-94920000D02*
X46540000Y-94920000D01*
%TO.N,Net-(SW10-Pad2)*%
X62540000Y-94920000D02*
X66540000Y-94920000D01*
X62540000Y-94960000D02*
X62500000Y-95000000D01*
X62540000Y-94920000D02*
X62540000Y-94960000D01*
%TO.N,Net-(SW11-Pad2)*%
X82540000Y-94920000D02*
X86540000Y-94920000D01*
%TO.N,Net-(SW16-Pad2)*%
X102540000Y-94920000D02*
X106540000Y-94920000D01*
X102540000Y-74920000D02*
X106540000Y-74920000D01*
%TO.N,Net-(SW11-Pad2)*%
X82540000Y-74920000D02*
X86540000Y-74920000D01*
%TO.N,Net-(SW10-Pad2)*%
X62540000Y-74920000D02*
X66540000Y-74920000D01*
%TO.N,Net-(SW1-Pad2)*%
X42540000Y-74920000D02*
X46540000Y-74920000D01*
X46540000Y-73040000D02*
X46540000Y-74920000D01*
%TO.N,Net-(SW11-Pad2)*%
X86540000Y-54920000D02*
X82540000Y-54920000D01*
%TO.N,Net-(SW16-Pad2)*%
X106540000Y-54920000D02*
X102540000Y-54920000D01*
%TO.N,Net-(SW21-Pad2)*%
X126540000Y-114920000D02*
X122540000Y-114920000D01*
X126540000Y-94920000D02*
X122540000Y-94920000D01*
X122540000Y-74920000D02*
X126540000Y-74920000D01*
X126540000Y-54920000D02*
X122540000Y-54920000D01*
X122540000Y-34920000D02*
X126540000Y-34920000D01*
%TO.N,Net-(SW16-Pad2)*%
X102540000Y-34920000D02*
X106540000Y-34920000D01*
%TO.N,Net-(SW11-Pad2)*%
X82540000Y-34920000D02*
X86540000Y-34920000D01*
%TO.N,Net-(SW13-Pad1)*%
X52190000Y-80190000D02*
X52190000Y-77460000D01*
X51270000Y-81110000D02*
X52190000Y-80190000D01*
X56190000Y-77460000D02*
X52190000Y-77460000D01*
%TO.N,Net-(SW10-Pad2)*%
X62540000Y-34920000D02*
X66540000Y-34920000D01*
X66540000Y-33040000D02*
X66540000Y-34920000D01*
X66540000Y-53040000D02*
X66540000Y-54920000D01*
X66540000Y-54920000D02*
X62540000Y-54920000D01*
%TO.N,Net-(SW16-Pad2)*%
X102500000Y-114960000D02*
X102540000Y-114920000D01*
X105641000Y-114920000D02*
X106540000Y-114920000D01*
X105641000Y-114671058D02*
X105641000Y-114920000D01*
X105288942Y-114319000D02*
X105641000Y-114671058D01*
X102540000Y-114920000D02*
X103039000Y-114920000D01*
X103039000Y-114920000D02*
X103039000Y-114671058D01*
%TO.N,Net-(SW1-Pad1)*%
X31270000Y-38380000D02*
X32190000Y-37460000D01*
%TO.N,Net-(SW11-Pad2)*%
X87460000Y-31270000D02*
X86540000Y-32190000D01*
%TD*%
M02*
